<?xml version="1.0" encoding="UTF-8"?>
<!DOCTYPE svg PUBLIC "-//W3C//DTD SVG 1.1//EN" "http://www.w3.org/Graphics/SVG/1.1/DTD/svg11.dtd">
<svg xmlns="http://www.w3.org/2000/svg" version="1.1" width="495px" height="109px" style="shape-rendering:geometricPrecision; text-rendering:geometricPrecision; image-rendering:optimizeQuality; fill-rule:evenodd; clip-rule:evenodd" xmlns:xlink="http://www.w3.org/1999/xlink">
<g><path style="opacity:0.944" fill="#477fc3" d="M 48.5,8.5 C 68.4821,5.54181 84.6488,11.8751 97,27.5C 102.621,35.6893 104.955,44.6893 104,54.5C 103.5,55 103,55.5 102.5,56C 98.5,56.6667 94.5,56.6667 90.5,56C 89.8742,55.2496 89.3742,54.4162 89,53.5C 88.8787,46.7536 88.212,40.087 87,33.5C 84.7785,29.6119 81.6118,26.7786 77.5,25C 65.1667,24.3333 52.8333,24.3333 40.5,25C 35.6667,27.1667 32.1667,30.6667 30,35.5C 29.3333,47.8333 29.3333,60.1667 30,72.5C 32.2563,77.7575 36.0896,81.2575 41.5,83C 53.1667,83.6667 64.8333,83.6667 76.5,83C 82.415,80.7531 86.7483,76.7531 89.5,71C 93.0915,70.2114 96.5915,70.3781 100,71.5C 100.257,74.0168 99.5899,76.3502 98,78.5C 80.1577,101.374 58.3244,105.874 32.5,92C 12.2788,75.1082 7.77878,54.6082 19,30.5C 26.1719,19.4814 36.0052,12.1481 48.5,8.5 Z"/></g>
<g><path style="opacity:0.955" fill="#477fc3" d="M 180.5,48.5 C 187.615,48.0753 194.615,48.5753 201.5,50C 205.446,54.1284 205.446,58.2951 201.5,62.5C 205.822,66.0107 206.655,70.3441 204,75.5C 203.097,76.7014 201.931,77.5348 200.5,78C 193.842,78.4996 187.175,78.6663 180.5,78.5C 180.5,68.5 180.5,58.5 180.5,48.5 Z M 186.5,53.5 C 189.518,53.3354 192.518,53.502 195.5,54C 199.5,56 199.5,58 195.5,60C 192.518,60.498 189.518,60.6646 186.5,60.5C 186.5,58.1667 186.5,55.8333 186.5,53.5 Z M 186.5,65.5 C 189.518,65.3354 192.518,65.502 195.5,66C 200.242,67.7937 200.575,70.127 196.5,73C 193.183,73.4983 189.85,73.665 186.5,73.5C 186.5,70.8333 186.5,68.1667 186.5,65.5 Z"/></g>
<g><path style="opacity:0.946" fill="#477fc3" d="M 209.5,48.5 C 217.167,48.5 224.833,48.5 232.5,48.5C 232.628,50.6547 232.128,52.6547 231,54.5C 225.476,60.3891 220.31,66.5558 215.5,73C 221.157,73.4994 226.824,73.6661 232.5,73.5C 232.5,75.1667 232.5,76.8333 232.5,78.5C 224.167,78.5 215.833,78.5 207.5,78.5C 207.248,75.6802 207.748,73.0135 209,70.5C 213.859,65.2756 218.359,59.7756 222.5,54C 218.179,53.501 213.846,53.3343 209.5,53.5C 209.5,51.8333 209.5,50.1667 209.5,48.5 Z"/></g>
<g><path style="opacity:0.881" fill="#477fc3" d="M 371.5,48.5 C 373.833,48.5 376.167,48.5 378.5,48.5C 378.5,58.5 378.5,68.5 378.5,78.5C 376.167,78.5 373.833,78.5 371.5,78.5C 371.5,68.5 371.5,58.5 371.5,48.5 Z"/></g>
<g><path style="opacity:0.782" fill="#477fc3" d="M 437.5,48.5 C 442.323,47.7735 445.323,49.7735 446.5,54.5C 444.926,55.6309 443.259,55.7975 441.5,55C 439.915,52.9307 438.581,50.764 437.5,48.5 Z"/></g>
<g><path style="opacity:0.881" fill="#477fc3" d="M 474.5,48.5 C 476.833,48.5 479.167,48.5 481.5,48.5C 481.5,58.5 481.5,68.5 481.5,78.5C 479.167,78.5 476.833,78.5 474.5,78.5C 474.5,68.5 474.5,58.5 474.5,48.5 Z"/></g>
<g><path style="opacity:0.892" fill="#477fc3" d="M 262.5,49.5 C 266.514,49.3345 270.514,49.5012 274.5,50C 275.138,51.7067 275.138,53.54 274.5,55.5C 270.363,55.1463 266.363,55.6463 262.5,57C 258.5,61.6667 258.5,66.3333 262.5,71C 266.294,72.7197 270.127,72.8863 274,71.5C 274.667,73.5 274.667,75.5 274,77.5C 255.863,80.3625 249.529,73.0292 255,55.5C 257.114,52.8792 259.614,50.8792 262.5,49.5 Z"/></g>
<g><path style="opacity:0.89" fill="#477fc3" d="M 390.5,51.5 C 391.461,53.2646 391.795,55.2646 391.5,57.5C 393.167,57.5 394.833,57.5 396.5,57.5C 396.5,59.1667 396.5,60.8333 396.5,62.5C 394.833,62.5 393.167,62.5 391.5,62.5C 391.335,65.5184 391.502,68.5184 392,71.5C 395.922,72.1842 397.422,74.5175 396.5,78.5C 393.421,78.7399 390.421,78.4066 387.5,77.5C 386.194,76.0878 385.36,74.4211 385,72.5C 384.806,68.1982 383.973,64.0315 382.5,60C 383.364,57.7715 384.364,55.6048 385.5,53.5C 387.336,52.9724 389.003,52.3058 390.5,51.5 Z"/></g>
<g><path style="opacity:0.907" fill="#000000" d="M 73.5,55.5 C 81.687,56.5399 84.187,60.8732 81,68.5C 76.9605,72.478 72.9605,72.478 69,68.5C 66.0976,62.4662 67.5976,58.1329 73.5,55.5 Z"/></g>
<g><path style="opacity:0.906" fill="#477fc3" d="M 284.5,57.5 C 296.771,56.3994 301.271,61.7327 298,73.5C 294.606,78.0821 290.106,79.5821 284.5,78C 278.129,74.5584 276.295,69.3917 279,62.5C 280.406,60.2563 282.239,58.5897 284.5,57.5 Z M 286.5,62.5 C 290.522,62.0184 292.522,63.8518 292.5,68C 292.376,72.8184 290.209,74.3184 286,72.5C 284.088,69.0666 284.255,65.7333 286.5,62.5 Z"/></g>
<g><path style="opacity:0.882" fill="#477fc3" d="M 302.5,57.5 C 305.144,57.1601 307.477,57.8267 309.5,59.5C 313.299,56.872 317.132,56.872 321,59.5C 322.416,65.7145 322.916,72.0478 322.5,78.5C 320.167,78.5 317.833,78.5 315.5,78.5C 315.5,73.5 315.5,68.5 315.5,63.5C 313.234,63.1412 311.401,63.8078 310,65.5C 309.501,69.8206 309.334,74.1539 309.5,78.5C 307.167,78.5 304.833,78.5 302.5,78.5C 302.5,71.5 302.5,64.5 302.5,57.5 Z"/></g>
<g><path style="opacity:0.894" fill="#477fc3" d="M 331.5,57.5 C 334.777,57.2161 337.943,57.5495 341,58.5C 341.774,60.403 341.44,62.0696 340,63.5C 337.861,62.2309 335.695,62.2309 333.5,63.5C 336.492,64.8873 339.325,66.5539 342,68.5C 343.458,72.7806 342.292,75.9473 338.5,78C 335.167,78.6667 331.833,78.6667 328.5,78C 326.415,76.4736 326.415,74.6402 328.5,72.5C 331.166,73.7378 333.832,73.7378 336.5,72.5C 333.366,70.8563 330.533,68.8563 328,66.5C 326.98,62.5532 328.147,59.5532 331.5,57.5 Z"/></g>
<g><path style="opacity:0.891" fill="#477fc3" d="M 346.5,57.5 C 348.833,57.5 351.167,57.5 353.5,57.5C 353.334,61.8461 353.501,66.1794 354,70.5C 355.401,72.1922 357.234,72.8588 359.5,72.5C 359.5,67.5 359.5,62.5 359.5,57.5C 361.833,57.5 364.167,57.5 366.5,57.5C 366.188,64.4222 366.521,71.2555 367.5,78C 364.621,78.9574 362.121,78.4574 360,76.5C 353.46,80.3991 349.127,78.7324 347,71.5C 346.501,66.8452 346.334,62.1785 346.5,57.5 Z"/></g>
<g><path style="opacity:0.894" fill="#477fc3" d="M 421.5,57.5 C 424.777,57.2161 427.943,57.5495 431,58.5C 431.774,60.403 431.44,62.0696 430,63.5C 427.861,62.2309 425.695,62.2309 423.5,63.5C 426.492,64.8873 429.325,66.5539 432,68.5C 433.458,72.7806 432.292,75.9473 428.5,78C 425.167,78.6667 421.833,78.6667 418.5,78C 416.415,76.4736 416.415,74.6402 418.5,72.5C 421.166,73.7378 423.832,73.7378 426.5,72.5C 423.366,70.8563 420.533,68.8563 418,66.5C 416.98,62.5532 418.147,59.5532 421.5,57.5 Z"/></g>
<g><path style="opacity:0.881" fill="#477fc3" d="M 438.5,57.5 C 442.911,57.021 447.078,57.6876 451,59.5C 453.248,65.6053 454.081,71.9386 453.5,78.5C 448.171,77.3447 442.838,77.1781 437.5,78C 434.136,74.9738 433.636,71.4738 436,67.5C 439.075,65.2293 442.575,64.0627 446.5,64C 443.647,62.1918 440.647,62.0251 437.5,63.5C 436.643,62.2643 435.977,60.931 435.5,59.5C 436.602,58.8243 437.602,58.1577 438.5,57.5 Z M 444.5,68.5 C 446.814,69.1787 447.147,70.512 445.5,72.5C 444.311,73.4287 442.978,73.762 441.5,73.5C 441.5,72.1667 441.5,70.8333 441.5,69.5C 442.791,69.7373 443.791,69.404 444.5,68.5 Z"/></g>
<g><path style="opacity:0.865" fill="#477fc3" d="M 458.5,57.5 C 460.5,57.5 462.5,57.5 464.5,57.5C 464.443,61.1331 465.443,61.2998 467.5,58C 469.134,57.5065 470.801,57.3398 472.5,57.5C 472.5,59.5 472.5,61.5 472.5,63.5C 469.632,63.085 467.465,64.085 466,66.5C 465.501,70.4862 465.334,74.4862 465.5,78.5C 463.167,78.5 460.833,78.5 458.5,78.5C 458.5,71.5 458.5,64.5 458.5,57.5 Z"/></g>
</svg>
