<?xml version="1.0" encoding="UTF-8"?>
<svg id="Layer_2" data-name="Layer 2" xmlns="http://www.w3.org/2000/svg" viewBox="0 0 188.33 39.59">
  <defs>
    <style>
      .cls-1 {
        fill: #000;
        stroke-width: 0px;
      }
    </style>
  </defs>
  <g id="Layer_2-2" data-name="Layer 2">
    <g id="Layer_1-2" data-name="Layer 1-2">
      <g>
        <path class="cls-1" d="M19.9,6.7h-5.63c-4.17.02-7.45,3.08-7.55,7.23-.09,3.94-.09,7.88,0,11.82.09,4.14,3.35,7.24,7.52,7.27,3.8.02,7.59.03,11.39,0,3.03-.02,5.25-1.45,6.67-4.09.89-1.65,3.05-2.43,4.78-1.67.6.26.83.74.67,1.36-.09.34-.27.66-.46.97-3.44,5.74-8.49,9.07-15.16,9.85-6.33.74-11.75-1.28-16.29-5.62C-1.56,26.74-1.97,14.51,4.86,6.83c8.59-9.66,23.61-8.98,31.25,1.44,2.1,2.86,3.22,6.1,3.61,9.61.03.31.03.64,0,.95-.08,1.2-.77,1.9-1.98,1.95-.84.03-1.68.04-2.52,0-1.3-.06-2.06-.82-2.09-2.12-.03-1.51,0-3.02,0-4.54-.03-4.2-3.22-7.38-7.46-7.41-1.92-.01-3.84,0-5.75,0h-.01Z"/>
        <path class="cls-1" d="M51.97,30.28V10.94c.28-.05.47-.12.66-.11,3.35.07,6.7.09,10.04.23,1.82.07,3.95,1.81,4.32,3.47.36,1.59.28,3.74-1.85,5.14-.12.08-.22.2-.39.37.36.21.66.4.97.57,1.84,1.04,2.7,3.01,2.31,5.31-.36,2.11-1.95,3.83-3.93,4.15-.98.16-1.98.26-2.97.27-2.63.04-5.27,0-7.9,0-.39,0-.78-.03-1.26-.05v-.02ZM55.86,27.17c2.33-.12,4.47-.15,6.61-.36,1.15-.11,1.51-.67,1.59-1.75.1-1.45-.28-2.36-1.28-2.67-2.25-.7-4.56-.41-6.92-.39,0,0,0,5.17,0,5.17ZM55.86,18.65c1.92,0,3.67.04,5.41-.03.44-.02.92-.29,1.31-.55.72-.48,1.07-1.17.89-2.05-.2-.94-.84-1.55-1.78-1.69-.51-.07-1.03-.17-1.55-.18-1.42-.03-2.83,0-4.28,0v4.51h0Z"/>
        <path class="cls-1" d="M80.56,14.11h-9.01v-3.18h14.09c.13,1.44.32,2.78-.8,4.1-3.04,3.59-5.94,7.28-8.89,10.94-.21.27-.39.57-.74,1.09h10.75v3.19h-15.61c-.03-1.58-.5-3.09.78-4.57,2.91-3.38,5.68-6.88,8.5-10.33.27-.33.51-.67.93-1.23h0Z"/>
        <path class="cls-1" d="M108.89,26.81c.2,1.04.37,1.96.58,3.07-1.13.22-2.17.57-3.21.59-1.5.03-3.05,0-4.51-.32-3.66-.82-5.73-3.23-6.42-6.88-.77-4.07.85-8.02,4.22-10.02,2.24-1.33,4.72-1.68,7.28-1.38.86.1,1.71.32,2.79.52-.24,1.16-.45,2.17-.68,3.29-.84-.2-1.56-.42-2.29-.55-2.75-.5-5.38.64-6.48,2.77-1.32,2.56-.87,6.09,1.04,7.88,1.6,1.49,3.55,1.68,5.6,1.38.66-.1,1.31-.23,2.08-.36h0Z"/>
        <path class="cls-1" d="M140.65,30.26h-3.94v-2.42c0-1.59.02-3.18,0-4.77,0-.51-.06-1.04-.22-1.52-.31-.96-1.18-1.49-2.12-1.37-1.14.14-2,.94-2.02,1.99-.04,2.19-.02,4.37-.02,6.56v1.51h-4.13v-13.04h3.25c.13.5.24.94.39,1.51.32-.26.54-.41.73-.59,1.47-1.42,3.25-1.68,5.11-1.13,1.86.54,2.84,2.06,2.94,3.85.17,3.08.05,6.18.05,9.43h0Z"/>
        <path class="cls-1" d="M169.19,30.26h-3.18c-.14-.47-.29-.94-.41-1.32-1,.49-1.94,1.14-2.97,1.42-3.08.82-5.42-.63-5.82-3.75-.29-2.27-.16-4.59-.21-6.89-.02-.82,0-1.64,0-2.55h4.16c.03.48.07.9.08,1.33,0,1.83,0,3.66,0,5.48,0,.59.08,1.19.23,1.76.27,1.01.87,1.5,1.74,1.54.98.05,1.93-.54,2.23-1.47.13-.41.17-.86.17-1.29.02-1.99,0-3.97,0-5.96v-1.38h3.95v13.08h.02Z"/>
        <path class="cls-1" d="M125.2,23.68c-.11,4.33-2.93,6.98-7.31,6.87-3.96-.1-6.7-2.99-6.6-6.96.11-4.4,2.88-6.95,7.45-6.83,3.89.09,6.57,2.96,6.46,6.92h0ZM121.06,23.77c-.2-.85-.32-1.68-.61-2.44-.37-.97-1.14-1.49-2.22-1.52-1.09-.02-1.83.49-2.29,1.43-.78,1.6-.75,3.24-.09,4.85.41.98,1.22,1.6,2.33,1.6,1.05,0,1.86-.55,2.25-1.51.31-.76.42-1.59.63-2.41Z"/>
        <path class="cls-1" d="M143.87,29.43c.2-.77.42-1.59.64-2.43,1,.23,1.88.43,2.76.62.9.2,1.73.09,2.44-.49.34-.73.05-1.21-.55-1.52-.53-.27-1.1-.46-1.65-.71-.58-.27-1.16-.53-1.71-.85-2.57-1.5-2.01-4.73-.33-6.07,1.89-1.5,5.43-1.74,7.65-.37-.16.8-.33,1.64-.52,2.6-.63-.17-1.18-.38-1.75-.47-.58-.09-1.21-.2-1.76-.06-.37.09-.86.56-.91.91s.33.82.64,1.12c.23.22.67.23.99.37.77.33,1.59.58,2.27,1.03,2.12,1.39,2.25,4.51.33,6.17-1.98,1.72-6.88,1.59-8.57.14h.03Z"/>
        <path class="cls-1" d="M181.39,20.25c-.64-.1-1.11-.18-1.67-.27v-2.78c.51-.08,1.01-.15,1.64-.24.07-.77.15-1.54.24-2.45,1.21-.29,2.43-.58,3.83-.91.06,1.19.12,2.23.18,3.37.93.06,1.78.12,2.72.19v2.84c-.91.06-1.76.12-2.74.19,0,1.98-.05,3.87.03,5.75.03.78.6,1.27,1.45,1.32.39.02.78.05,1.26.08v2.76c-1.19.5-2.38.56-3.56.36-1.96-.34-3.12-1.68-3.22-3.74-.08-1.67-.03-3.34-.05-5.01,0-.47-.06-.93-.1-1.48v.02Z"/>
        <path class="cls-1" d="M173.24,11.13h3.83v19.08h-3.83V11.13Z"/>
        <path class="cls-1" d="M23.69,23.99c-.02-1.79,1.33-3.19,3.12-3.22,1.87-.04,3.43,1.45,3.4,3.24-.02,1.69-1.51,3.17-3.23,3.21-1.77.05-3.27-1.43-3.29-3.23Z"/>
      </g>
    </g>
  </g>
</svg>