<?xml version="1.0" encoding="UTF-8" standalone="no"?>
<svg
   xmlns:dc="http://purl.org/dc/elements/1.1/"
   xmlns:cc="http://creativecommons.org/ns#"
   xmlns:rdf="http://www.w3.org/1999/02/22-rdf-syntax-ns#"
   xmlns:svg="http://www.w3.org/2000/svg"
   xmlns="http://www.w3.org/2000/svg"
   viewBox="0 0 800 158.49999"
   height="158.5"
   width="800"
   xml:space="preserve"
   version="1.1"
   id="svg2"><metadata
     id="metadata8"><rdf:RDF><cc:Work
         rdf:about=""><dc:format>image/svg+xml</dc:format><dc:type
           rdf:resource="http://purl.org/dc/dcmitype/StillImage" /><dc:title></dc:title></cc:Work></rdf:RDF></metadata><defs
     id="defs6" /><g
     transform="matrix(1.25,0,0,-1.25,0,158.49995)"
     id="g10"><g
       id="g4448"><g
         id="g4443"><path
           id="path84"
           style="fill:#981711;fill-opacity:1;fill-rule:nonzero;stroke:none"
           d="m 116.1167,105.34716 c -2.56522,0.10571 -4.87583,-0.81905 -6.51394,-2.32744 -1.32343,-1.24179 -4.03275,-3.01196 -5.21208,-4.419481 -1.31384,-1.542 -3.0456,-3.36265 -3.96073,-4.88542 -1.0496,-1.74139 -1.39788,-3.48036 -1.16971,-5.10882 0.24259,-1.63089 0.69895,-3.94872 1.4099,-4.88064 0.68696,-0.93435 3.14168,-3.83822 4.1769,-4.41228 1.01118,-0.56925 0.75898,-0.79983 2.78138,-1.86387 2.44511,-1.28502 4.77975,-1.96234 6.16325,-2.20253 0.45875,-0.0865 1.0232,0.12494 1.71013,0.24027 0.68696,0.12013 0.69897,0.55003 1.19136,0.51401 1.28979,-0.0769 0.44674,-0.32906 1.06162,-0.29785 1.1433,0.0721 2.87746,1.22978 2.43072,2.20735 -0.30023,0.68693 1.32343,1.50838 2.55321,2.09683 2.21453,1.04723 6.10318,5.4595 6.04314,6.27615 -0.024,0.39631 -1.73415,0.93193 -1.73415,0.93193 l 0.45875,0.69414 0.12013,1.3931 c 0,0 -0.59087,1.26339 -2.20255,1.04723 -0.51879,-0.0673 0.69655,3.36505 -0.36267,6.622 -0.3603,1.13368 -2.14248,3.927071 -2.78138,4.186481 -0.57646,0.22825 -1.32346,0.55003 -1.50361,0.93195 -0.4107,0.84065 -0.35066,1.38588 -1.86625,2.21213 -0.9992,0.54763 -2.09445,1.00879 -2.79339,1.04483" /><path
           id="path86"
           style="fill:#008974;fill-opacity:1;fill-rule:nonzero;stroke:none"
           d="m 0.00267979,0.0020085 c -0.1898,-0.28342 9.76129001,28.9451505 11.15677021,32.1997005 1.39071,3.25698 10.06632,29.02684 11.38975,30.90991 1.62369,2.33464 10.90699,25.28948 14.87491,30.9243 1.15051,1.62609 16.88046,29.905941 18.7131,32.656091 0,0 9.87178,-18.94849 15.23039,-32.896271 3.47552,-9.06953 13.94296,-36.72726 15.33844,-40.21482 1.39071,-3.48273 11.09913,-23.37278 12.78526,-26.733 0.22825,-0.46118 -2.20252,-1.2778 -4.40747,-2.08724 C 93.1239,24.035309 77.18497,18.597429 68.3436,17.317219 65.10827,16.856059 51.83062,13.947359 49.5152,13.606289 44.86516,12.895329 28.81814,8.9490385 25.79897,7.5655485 23.91828,6.6840485 0.26929979,0.4055185 0.00267979,0.0020085" /><path
           id="path88"
           style="fill:#0075bf;fill-opacity:1;fill-rule:nonzero;stroke:none"
           d="M 157.05377,112.41134 C 152.0122,97.476389 144.90021,81.037869 140.95389,68.528839 c -1.95272,-6.07919 -13.20317,-38.41579 -34.15483,-68.4538205 8.00067,-0.59565 16.87325,2.55081 16.87325,2.55081 8.37539,13.0398605 14.66593,25.1021205 20.7091,40.5198505 13.94296,33.18208 19.42406,65.977471 19.95727,73.440151 1.11207,15.10308 -2.50035,10.75805 -7.28491,-4.17449" /></g><g
         id="g4415"><path
           id="path90"
           style="fill:#6e675d;fill-opacity:1;fill-rule:nonzero;stroke:none"
           d="m 231.10135,126.69321 0,-27.835481 -27.61211,0 0,27.835481 -14.24802,0 0,-70.778851 14.24802,0 0,30.95073 27.61211,0 0,-30.95073 14.24078,0 0,70.778851 -14.24078,0 z" /><path
           id="path92"
           style="fill:#6e675d;fill-opacity:1;fill-rule:nonzero;stroke:none"
           d="m 279.6829,80.350699 c -1.71736,-0.58367 -4.4363,-1.2706 -8.15442,-2.06803 -3.71571,-0.80223 -6.14643,-1.59005 -7.28974,-2.35626 -1.74857,-1.24417 -2.62045,-2.83422 -2.62045,-4.75333 0,-1.89268 0.69416,-3.52598 2.09685,-4.90226 1.39549,-1.38107 3.1777,-2.06082 5.33459,-2.06082 2.41871,0 4.72212,0.80223 6.91503,2.39709 1.62128,1.21536 2.68533,2.70932 3.19451,4.46511 0.35069,1.15531 0.52363,3.34823 0.52363,6.58599 l 0,2.69251 z m -18.06461,11.09913 -12.19198,2.22174 c 1.37148,4.98633 3.73733,8.673211 7.09277,11.070301 3.35544,2.38987 8.33937,3.58842 14.95657,3.58842 6.00711,0 10.47942,-0.71817 13.41935,-2.14729 2.94232,-1.43393 5.01514,-3.24735 6.20888,-5.45707 1.19854,-2.200151 1.7966,-6.244921 1.7966,-12.131941 l -0.14656,-15.83086 c 0,-4.50833 0.21864,-7.82776 0.64611,-9.96784 0.43473,-2.14488 1.25138,-4.43868 2.43791,-6.87901 l -13.51061,0 c -0.34828,0.8887 -0.78063,2.20975 -1.28501,3.95352 -0.22584,0.79262 -0.37949,1.31622 -0.48038,1.57563 -2.2794,-2.28658 -4.72452,-4.00395 -7.32816,-5.14966 -2.60366,-1.14088 -5.38024,-1.71493 -8.32735,-1.71493 -5.2049,0 -9.30731,1.43392 -12.30488,4.30418 -2.99514,2.86305 -4.49632,6.48991 -4.49632,10.87576 0,2.89666 0.68213,5.4787 2.05841,7.74849 1.36908,2.26977 3.2906,4.01835 5.76214,5.21929 2.47394,1.20815 6.03834,2.26259 10.69321,3.16571 6.28573,1.19614 10.63794,2.30581 13.06386,3.33141 l 0,1.37867 c 0,2.65169 -0.64371,4.53718 -1.92391,5.67086 -1.28261,1.13129 -3.70132,1.69574 -7.2513,1.69574 -2.4043,0 -4.28018,-0.48759 -5.62283,-1.44835 -1.34746,-0.96796 -2.44031,-2.65407 -3.26657,-5.07277" /><path
           id="path94"
           style="fill:#6e675d;fill-opacity:1;fill-rule:nonzero;stroke:none"
           d="m 330.65049,55.916279 0,7.68125 c -1.85187,-2.74297 -4.28977,-4.92387 -7.30654,-6.56197 -3.02157,-1.63327 -6.20409,-2.45472 -9.56191,-2.45472 -3.41551,0 -6.48271,0.76379 -9.20164,2.28418 -2.71174,1.518 -4.67409,3.6533 -5.89183,6.40104 -1.21296,2.75738 -1.82065,6.56437 -1.82065,11.41618 l 0,32.612831 13.51543,0 0,-23.704231 c 0,-7.2489 0.24259,-11.69479 0.73498,-13.32808 0.4924,-1.63808 1.38828,-2.9303 2.69251,-3.88145 1.30184,-0.95595 2.95193,-1.43392 4.9503,-1.43392 2.28899,0 4.33782,0.6389 6.14643,1.91911 1.80621,1.2754 3.048,2.86545 3.71333,4.75813 0.66531,1.8903 1.00158,6.53313 1.00158,13.91415 l 0,21.756291 13.51063,0 0,-51.378791 -12.48262,0 z" /><path
           id="path96"
           style="fill:#6e675d;fill-opacity:1;fill-rule:nonzero;stroke:none"
           d="m 375.4003,107.29628 0,-10.810891 -9.25687,0 0,-20.85321 c 0,-4.22732 0.0961,-6.69165 0.27142,-7.38579 0.17779,-0.69657 0.58607,-1.273 1.22017,-1.72938 0.63409,-0.44914 1.4099,-0.68453 2.3226,-0.68453 1.26822,0 3.10807,0.43713 5.51474,1.30904 l 0.95595,-10.5275 c -3.12724,-1.35226 -6.67003,-2.03438 -10.62834,-2.03438 -2.42591,0 -4.61404,0.41553 -6.55956,1.24657 -1.94794,0.82145 -3.37466,1.8903 -4.28498,3.20652 -0.9079,1.31385 -1.542,3.08882 -1.88788,5.32258 -0.29062,1.58286 -0.43233,4.79177 -0.43233,9.62198 l 0,22.5081 -6.16805,0 0,10.810891 6.16805,0 0,10.22003 13.50821,7.98869 0,-18.20872 9.25687,0 z" /><path
           id="path98"
           style="fill:#6e675d;fill-opacity:1;fill-rule:nonzero;stroke:none"
           d="m 410.77148,85.822909 c -0.0961,3.96553 -1.10727,6.9847 -3.02638,9.04552 -1.92631,2.06802 -4.26096,3.10083 -7.01351,3.10083 -2.94952,0 -5.38264,-1.08804 -7.30656,-3.26896 -1.92391,-2.18331 -2.86304,-5.13763 -2.83181,-8.87739 l 20.17826,0 z m -0.73498,-13.6187 13.36171,-2.22174 c -1.72457,-5.01995 -4.44831,-8.84135 -8.17603,-11.46421 -3.72292,-2.62288 -8.38019,-3.9367 -13.9766,-3.9367 -8.85576,0 -15.4153,2.91828 -19.66665,8.76448 -3.35544,4.68128 -5.02955,10.58992 -5.02955,17.72835 0,8.51709 2.20252,15.19435 6.6196,20.017331 4.40988,4.82541 9.98946,7.23689 16.74116,7.23689 7.57796,0 13.55866,-2.52198 17.9421,-7.57556 4.38104,-5.053561 6.47309,-12.794841 6.28574,-23.214251 l -33.78495,0 c 0.0985,-4.02555 1.18893,-7.15522 3.27378,-9.38177 2.08243,-2.23856 4.68367,-3.35544 7.79412,-3.35544 2.11607,0 3.89585,0.58127 5.3442,1.75098 1.44113,1.16731 2.52918,3.0504 3.27137,5.65164" /><path
           id="path100"
           style="fill:#6e675d;fill-opacity:1;fill-rule:nonzero;stroke:none"
           d="m 429.65848,77.344499 14.93015,0 0,8.69484 -14.93015,0 0,-8.69484 z" /><path
           id="path102"
           style="fill:#6e675d;fill-opacity:1;fill-rule:nonzero;stroke:none"
           d="m 448.91828,126.10236 0,-70.188001 39.38615,0 0,11.99504 -25.13816,0 0,58.192961 -14.24799,0 z" /><path
           id="path104"
           style="fill:#6e675d;fill-opacity:1;fill-rule:nonzero;stroke:none"
           d="m 501.44806,81.462529 c 0,-5.09921 1.19855,-9.00227 3.58602,-11.7092 2.39228,-2.70933 5.3418,-4.0688 8.85336,-4.0688 3.49955,0 6.43705,1.35947 8.81732,4.0688 2.38027,2.70693 3.5668,6.64363 3.5668,11.80047 0,5.02956 -1.18653,8.89659 -3.5668,11.61072 -2.38027,2.70693 -5.31777,4.05921 -8.81732,4.05921 -3.51156,0 -6.46108,-1.35228 -8.85336,-4.05921 -2.38747,-2.71413 -3.58602,-6.60999 -3.58602,-11.70199 m -13.80845,0.72297 c 0,4.51554 1.10246,8.8942 3.29777,13.11912 2.20735,4.23213 5.32501,7.453051 9.35777,9.684401 4.03516,2.22895 8.54111,3.34103 13.51303,3.34103 7.69083,0 13.98858,-2.52438 18.90286,-7.57556 4.90945,-5.055961 7.36657,-11.435371 7.36657,-19.152661 0,-7.7773 -2.48353,-14.22877 -7.44343,-19.34239 -4.9551,-5.11843 -11.20002,-7.67884 -18.72754,-7.67884 -4.65244,0 -9.09595,1.06885 -13.32568,3.19931 -4.22732,2.13047 -7.43623,5.25293 -9.64358,9.36735 -2.19531,4.11926 -3.29777,9.12479 -3.29777,15.03824" /><path
           id="path106"
           style="fill:#6e675d;fill-opacity:1;fill-rule:nonzero;stroke:none"
           d="m 544.19975,55.917239 13.51541,0 0,51.378791 -13.51541,0 0,-51.378791 z m 0,58.185751 13.51541,0 0,12.5883 -13.51541,0 0,-12.5883 z" /><path
           id="path108"
           style="fill:#6e675d;fill-opacity:1;fill-rule:nonzero;stroke:none"
           d="m 576.2294,55.916279 -13.51301,0 0,51.378791 12.4802,0 0,-7.29211 c 2.14248,3.44671 4.06159,5.69726 5.76454,6.75169 1.70054,1.04723 3.64125,1.57564 5.81016,1.57564 3.05521,0 6.00713,-0.85026 8.84615,-2.55321 l -4.18407,-11.810091 c -2.25298,1.48439 -4.34023,2.22415 -6.27375,2.22415 -1.86866,0 -3.4515,-0.52841 -4.75093,-1.57083 -1.29702,-1.04722 -2.32503,-2.9375 -3.06241,-5.67566 -0.74697,-2.73574 -1.11688,-8.46907 -1.11688,-17.1879 l 0,-15.84047 z" /><path
           id="path110"
           style="fill:#6e675d;fill-opacity:1;fill-rule:nonzero;stroke:none"
           d="m 626.62199,85.822909 c -0.0961,3.96553 -1.10967,6.9847 -3.02878,9.04552 -1.92391,2.06802 -4.26096,3.10083 -7.01111,3.10083 -2.94951,0 -5.38504,-1.08804 -7.30415,-3.26896 -1.91911,-2.18331 -2.86545,-5.13763 -2.83422,-8.87739 l 20.17826,0 z m -0.73979,-13.6187 13.36893,-2.22174 c -1.72457,-5.01995 -4.45312,-8.84135 -8.17844,-11.46421 -3.72532,-2.62288 -8.385,-3.9367 -13.979,-3.9367 -8.85576,0 -15.41292,2.91828 -19.65464,8.76448 -3.36264,4.68128 -5.03676,10.58992 -5.03676,17.72835 0,8.51709 2.19532,15.19435 6.6148,20.017331 4.41465,4.82541 9.99664,7.23689 16.74116,7.23689 7.57555,0 13.55385,-2.52198 17.9445,-7.57556 4.37384,-5.053561 6.4731,-12.794841 6.28574,-23.214251 l -33.78735,0 c 0.0961,-4.02555 1.19374,-7.15522 3.27377,-9.38177 2.08485,-2.23856 4.68608,-3.35544 7.79893,-3.35544 2.11365,0 3.89105,0.58127 5.3442,1.75098 1.43633,1.16731 2.52678,3.0504 3.26416,5.65164" /></g><g
         id="g4428"><path
           id="path112"
           style="fill:#6e675d;fill-opacity:1;fill-rule:nonzero;stroke:none"
           d="m 189.2739,0.0992885 0,36.9218205 7.45544,0 0,-30.6481005 18.54019,0 0,-6.27372 -25.99563,0 z" /><path
           id="path114"
           style="fill:#6e675d;fill-opacity:1;fill-rule:nonzero;stroke:none"
           d="m 219.55209,0.0992885 0,37.2268505 27.37913,0 0,-6.29774 -19.92366,0 0,-8.25288 18.54019,0 0,-6.27134 -18.54019,0 0,-10.1311705 20.62981,0 0,-6.27372 -28.08528,0 z" /><path
           id="path116"
           style="fill:#6e675d;fill-opacity:1;fill-rule:nonzero;stroke:none"
           d="m 266.20302,37.325899 13.62831,0 c 3.07201,0 5.41626,-0.23785 7.02553,-0.71095 2.1665,-0.64371 4.02317,-1.78699 5.56757,-3.4299 1.54442,-1.64048 2.72134,-3.65086 3.52598,-6.02873 0.80703,-2.37789 1.21055,-5.31299 1.21055,-8.79812 0,-3.06722 -0.37949,-5.7069 -1.13369,-7.92384 -0.92232,-2.7093305 -2.24337,-4.9022405 -3.9559,-6.5787605 -1.29223,-1.26819 -3.0384,-2.25778 -5.23854,-2.96874 -1.64528,-0.52362 -3.84543,-0.78781 -6.59798,-0.78781 l -14.03183,0 0,37.2268505 z m 7.45785,-6.29775 0,-24.6553805 5.5652,0 c 2.08241,0 3.58601,0.11773 4.50833,0.35309 1.21056,0.30503 2.21213,0.82143 3.00956,1.5492 0.79983,0.72778 1.44834,1.9263205 1.95275,3.5932305 0.5044,1.66691 0.75658,3.9391 0.75658,6.81897 0,2.87746 -0.25218,5.08719 -0.75658,6.62681 -0.50441,1.542 -1.20816,2.74294 -2.11608,3.60524 -0.9079,0.86468 -2.05601,1.44832 -3.4515,1.75338 -1.04002,0.23786 -3.08163,0.35546 -6.12003,0.35546 l -3.34823,0 z" /><path
           id="path118"
           style="fill:#6e675d;fill-opacity:1;fill-rule:nonzero;stroke:none"
           d="m 302.45137,0.0992885 0,37.2268505 27.3791,0 0,-6.29774 -19.92365,0 0,-8.25288 18.54018,0 0,-6.27134 -18.54018,0 0,-10.1311705 20.62983,0 0,-6.27372 -28.08528,0 z m 9.47064,39.3597305 3.47552,7.59237 7.93585,0 -6.92704,-7.59237 -4.48433,0 z" /><path
           id="path120"
           style="fill:#6e675d;fill-opacity:1;fill-rule:nonzero;stroke:none"
           d="m 335.82679,0.0992885 0,37.2268505 11.96381,0 c 4.53476,0 7.49148,-0.1874 8.86537,-0.55964 2.11848,-0.55964 3.89105,-1.77259 5.3178,-3.64125 1.42671,-1.87348 2.14007,-4.28977 2.14007,-7.2537 0,-2.28421 -0.41312,-4.20572 -1.23458,-5.76214 -0.82145,-1.55881 -1.86865,-2.78138 -3.13687,-3.67008 -1.2682,-0.8887 -2.55559,-1.47717 -3.86463,-1.76539 -1.7798,-0.35547 -4.35701,-0.53081 -7.73408,-0.53081 l -4.86142,0 0,-14.0438405 -7.45547,0 z m 7.45547,30.9291105 0,-10.5635 4.08082,0 c 2.9399,0 4.90224,0.19462 5.89423,0.58365 0.98956,0.3891 1.76779,0.9992 2.32983,1.82783 0.56445,0.82866 0.84546,1.79422 0.84546,2.89669 0,1.35226 -0.39631,2.46914 -1.18413,3.35063 -0.79022,0.88149 -1.78942,1.43152 -2.99757,1.65009 -0.89108,0.17059 -2.6805,0.25461 -5.3682,0.25461 l -3.60044,0 z" /><path
           id="path122"
           style="fill:#6e675d;fill-opacity:1;fill-rule:nonzero;stroke:none"
           d="m 398.67342,0.0992885 -8.11119,0 -3.22573,8.45464 -14.7596,0 -3.048,-8.45464 -7.90942,0 14.38491,37.2268505 7.883,0 14.78603,-37.2268505 z m -13.72679,14.7283705 -5.08962,13.81326 -4.98872,-13.81326 10.07834,0 z" /><path
           id="path124"
           style="fill:#6e675d;fill-opacity:1;fill-rule:nonzero;stroke:none"
           d="m 401.62318,0.0992885 0,37.2268505 15.69153,0 c 3.94631,0 6.81416,-0.33626 8.60356,-1.00397 1.78701,-0.66774 3.21853,-1.85667 4.29217,-3.56683 1.07605,-1.71013 1.61407,-3.66528 1.61407,-5.8654 0,-2.79339 -0.81665,-5.1016 -2.44511,-6.91983 -1.62849,-1.82063 -4.064,-2.96874 -7.30176,-3.44191 1.60927,-0.94634 2.93991,-1.98876 3.98954,-3.12486 1.04963,-1.1337 2.46433,-3.14648 4.24654,-6.0431405 l 4.50836,-7.26091 -8.91823,0 -5.38983,8.10156 c -1.9143,2.8942805 -3.22334,4.7173105 -3.92949,5.4715105 -0.70615,0.75178 -1.45315,1.2682 -2.24097,1.5468 -0.79021,0.28104 -2.04159,0.42274 -3.75415,0.42274 l -1.51078,0 0,-15.5426105 -7.45545,0 z m 7.45545,21.4824905 5.51473,0 c 3.57881,0 5.81017,0.15377 6.70127,0.45876 0.8887,0.30263 1.58765,0.82863 2.09205,1.57323 0.502,0.74459 0.75418,1.67411 0.75418,2.79339 0,1.25138 -0.33144,2.26499 -0.99437,3.03359 -0.66293,0.771 -1.59966,1.25858 -2.80781,1.46035 -0.60526,0.0841 -2.42111,0.12734 -5.44268,0.12734 l -5.81737,0 0,-9.44661 z" /><path
           id="path126"
           style="fill:#6e675d;fill-opacity:1;fill-rule:nonzero;stroke:none"
           d="m 446.13161,0.0992885 0,30.9291105 -10.95743,0 0,6.29774 29.34627,0 0,-6.29774 -10.9334,0 0,-30.9291105 -7.45544,0 z" /><path
           id="path128"
           style="fill:#6e675d;fill-opacity:1;fill-rule:nonzero;stroke:none"
           d="m 468.29911,0.0992885 0,37.2268505 27.37913,0 0,-6.29774 -19.92366,0 0,-8.25288 18.54016,0 0,-6.27134 -18.54016,0 0,-10.1311705 20.62981,0 0,-6.27372 -28.08528,0 z" /><path
           id="path130"
           style="fill:#6e675d;fill-opacity:1;fill-rule:nonzero;stroke:none"
           d="m 501.57319,0.0992885 0,37.2268505 11.15917,0 6.70127,-25.39277 6.62201,25.39277 11.1856,0 0,-37.2268505 -6.92705,0 0,29.3030405 -7.32815,-29.3030405 -7.18165,0 -7.30416,29.3030405 0,-29.3030405 -6.92704,0 z" /><path
           id="path132"
           style="fill:#6e675d;fill-opacity:1;fill-rule:nonzero;stroke:none"
           d="m 543.61344,0.0992885 0,37.2268505 27.37913,0 0,-6.29774 -19.92366,0 0,-8.25288 18.54017,0 0,-6.27134 -18.54017,0 0,-10.1311705 20.62981,0 0,-6.27372 -28.08528,0 z" /><path
           id="path134"
           style="fill:#6e675d;fill-opacity:1;fill-rule:nonzero;stroke:none"
           d="m 577.06695,0.0992885 0,37.2268505 7.2537,0 15.11269,-24.85953 0,24.85953 6.92704,0 0,-37.2268505 -7.48187,0 -14.88452,24.2758905 0,-24.2758905 -6.92704,0 z" /><path
           id="path136"
           style="fill:#6e675d;fill-opacity:1;fill-rule:nonzero;stroke:none"
           d="m 621.52543,0.0992885 0,30.9291105 -10.95742,0 0,6.29774 29.34626,0 0,-6.29774 -10.93339,0 0,-30.9291105 -7.45545,0 z" /></g></g></g></svg>