<?xml version="1.0" encoding="UTF-8"?>
<svg id="Layer_2" data-name="Layer 2" xmlns="http://www.w3.org/2000/svg" viewBox="0 0 377.25 38.28">

  <g id="Layer_1-2" data-name="Layer 1">
    <g>
      <path class="cls-1" d="M138.41,0c.75,0,1.5,0,2.27,0,3.06.1,6.09.44,9.11,1.01.52.07,1,.23,1.45.48-1.6,3.76-3.16,7.53-4.67,11.33-.19.51-.43.99-.72,1.45-.81-1.64-2.09-2.72-3.86-3.23-4.89-.81-9.52-.04-13.88,2.31-1.9,1.26-3.39,2.88-4.48,4.87-1.6,3.62-.62,6.24,2.94,7.86,1.52.52,3.08.86,4.67,1.01,3.57-.27,7.19-.76,10.84-1.45.03.03.06.06.1.1-.12.33-.28.64-.48.92-1.19,3.39-2.46,6.75-3.81,10.07-4.68,1.01-9.42,1.53-14.22,1.54-4.75.17-9.28-.73-13.59-2.7-1.09-.61-2.15-1.27-3.18-1.98-.73-.74-1.45-1.5-2.17-2.27-.79-1.26-1.37-2.61-1.73-4.05-.32-4.07.45-7.92,2.31-11.57.46-.61.88-1.25,1.25-1.93.52-.65,1.03-1.29,1.54-1.93.8-.85,1.61-1.67,2.46-2.46,4.07-3.37,8.66-5.81,13.78-7.33,1.2-.31,2.38-.63,3.57-.96,3.49-.61,6.99-.98,10.51-1.11Z"/>
      <path class="cls-1" d="M13.49.77c7.13-.02,14.26,0,21.4.05,1.78.39,2.92,1.46,3.42,3.23.25.95.39,1.91.43,2.89-.39,4.4-.69,8.8-.92,13.2,4.26-6.42,8.49-12.87,12.67-19.32,8.35-.08,16.71-.06,25.06.05-.82,2.23-1.67,4.44-2.55,6.65-1.88,5.16-3.75,10.34-5.59,15.52-.93,2.24-1.76,4.52-2.51,6.84-.81,1.89-1.52,3.81-2.12,5.78-.29.52-.53,1.07-.72,1.64-5.37.1-10.73.13-16.1.1.57-1.83,1.23-3.63,1.98-5.4,2.38-6.68,4.79-13.33,7.23-19.95-4.58,6.71-9.11,13.45-13.59,20.24-.84,1.1-1.61,2.26-2.31,3.47-.44.5-.84,1.03-1.2,1.59-4.79.05-9.57.06-14.36.05.72-8.6,1.35-17.21,1.88-25.83-3.17,8.57-6.32,17.15-9.45,25.73-5.37.1-10.76.13-16.14.1C4.44,25.17,8.94,12.96,13.49.77Z"/>
      <path class="cls-1" d="M85.49.77h17.83c-3.54,9.68-7.06,19.39-10.55,29.11-.82,1.99-1.56,4.02-2.22,6.07-.25.43-.46.88-.63,1.35-5.94.11-11.89.13-17.83.05,2.55-6.66,5.01-13.36,7.37-20.1.78-1.9,1.49-3.82,2.12-5.78.82-1.99,1.56-4.02,2.22-6.07.22-.29.38-.61.48-.96.43-1.21.83-2.44,1.2-3.66Z"/>
      <path class="cls-1" d="M160.19.77h16.96c-.28.99-.6,1.97-.96,2.94-1.26,3.42-2.55,6.82-3.86,10.22,2.95.08,5.89.06,8.82-.05,1.18-3.06,2.3-6.14,3.37-9.25.08-.11.16-.22.24-.34.43-1.16.81-2.33,1.16-3.52,5.65-.03,11.31,0,16.96.1-3.81,10.08-7.52,20.2-11.13,30.36-.83,2.02-1.59,4.08-2.27,6.17-5.65.02-11.31,0-16.96-.05,1.52-4.03,3.03-8.06,4.53-12.1-.03-.08-.08-.14-.14-.19-2.82,0-5.65,0-8.48,0-.35.8-.71,1.61-1.06,2.41-1.13,3.33-2.34,6.62-3.61,9.88-5.62.05-11.25.06-16.87.05,3.23-9,6.49-18,9.78-26.99.72-1.73,1.36-3.5,1.93-5.3.63-1.41,1.16-2.85,1.59-4.34Z"/>
      <path class="cls-1" d="M259.37.77c5.75-.03,11.5,0,17.25.1-2.99,8.11-5.95,16.24-8.87,24.39,5.75-.03,11.5,0,17.25.1-1.37,3.55-2.65,7.13-3.86,10.75-.25.39-.44.81-.58,1.25-11.53.08-23.07.06-34.6-.05,3.84-10.31,7.63-20.64,11.37-30.99.76-1.81,1.43-3.66,2.02-5.54Z"/>
      <path class="cls-1" d="M300.72.77c5.91-.03,11.82,0,17.73.1-3.81,10.08-7.52,20.2-11.13,30.36-.84,2.03-1.59,4.08-2.27,6.17h-17.83c4.55-12.18,9.05-24.39,13.49-36.63Z"/>
      <path class="cls-1" d="M328.86.77c7.04-.02,14.07,0,21.11.05,1.51.31,2.65,1.13,3.42,2.46.14.47.33.92.58,1.35.18.86.26,1.72.24,2.6-.39,6.07-.69,12.14-.92,18.22,2.34-6.21,4.62-12.44,6.84-18.7.83-1.92,1.55-3.88,2.17-5.88,4.98-.13,9.96-.13,14.94,0-.67,2.09-1.43,4.14-2.27,6.17-3.63,10.12-7.34,20.21-11.13,30.26-8.39.1-16.77.13-25.16.1.48-8.41.85-16.83,1.11-25.25-3.09,8.39-6.19,16.78-9.3,25.16-5.01.11-10.02.13-15.04.05,4.51-12.17,8.98-24.37,13.4-36.58Z"/>
      <path class="cls-1" d="M212.82.87h36.82c-.91,2.45-1.79,4.93-2.65,7.42-.38.69-.69,1.41-.92,2.17-6.72.05-13.43.06-20.14.05-.51,1.32-.99,2.65-1.45,4,6.39.05,12.79.06,19.18.05-1.07,2.96-2.13,5.94-3.18,8.92-6.43.05-12.85.06-19.28.05-.5,1.31-.98,2.62-1.45,3.95,6.81.1,13.62.13,20.43.1-1.1,3.3-2.26,6.58-3.47,9.83h-37.4c4.46-12.19,8.96-24.37,13.49-36.53Z"/>
    </g>
  </g>
</svg>