<?xml version="1.0" encoding="UTF-8"?>
<!DOCTYPE svg PUBLIC "-//W3C//DTD SVG 1.1//EN" "http://www.w3.org/Graphics/SVG/1.1/DTD/svg11.dtd">
<svg xmlns="http://www.w3.org/2000/svg" version="1.1" width="4000px" height="2262px" style="shape-rendering:geometricPrecision; text-rendering:geometricPrecision; image-rendering:optimizeQuality; fill-rule:evenodd; clip-rule:evenodd" xmlns:xlink="http://www.w3.org/1999/xlink">
<g><path style="opacity:1" fill="#000001" d="M 2899.5,1581.5 C 2883.83,1581.5 2868.17,1581.5 2852.5,1581.5C 2852.68,1556.76 2848.68,1532.76 2840.5,1509.5C 2828.86,1535.47 2814.19,1559.47 2796.5,1581.5C 2759.83,1581.5 2723.17,1581.5 2686.5,1581.5C 2689.66,1549.24 2683.5,1518.24 2668,1488.5C 2663.7,1481.54 2658.7,1475.21 2653,1469.5C 2646.92,1471.86 2640.75,1474.03 2634.5,1476C 2576.46,1483.62 2519.3,1486.46 2463,1484.5C 2271.53,1474.2 2083.7,1441.87 1899.5,1387.5C 1880.63,1380.71 1861.63,1374.21 1842.5,1368C 1824.49,1360.22 1806.15,1353.22 1787.5,1347C 1778.56,1342.03 1769.22,1337.86 1759.5,1334.5C 1757.97,1334.53 1756.8,1335.2 1756,1336.5C 1754.33,1339.5 1752.67,1342.5 1751,1345.5C 1729.77,1372.4 1705.6,1396.23 1678.5,1417C 1669.91,1421.92 1661.58,1427.25 1653.5,1433C 1598.95,1464 1541.28,1476.5 1480.5,1470.5C 1475.66,1508.93 1480.66,1545.93 1495.5,1581.5C 1479.17,1581.5 1462.83,1581.5 1446.5,1581.5C 1439.49,1561.8 1435.16,1541.46 1433.5,1520.5C 1432.12,1502.43 1432.78,1484.43 1435.5,1466.5C 1435.45,1464.9 1435.12,1463.4 1434.5,1462C 1396.63,1451.39 1363.3,1432.39 1334.5,1405C 1314.16,1402.07 1294.33,1397.23 1275,1390.5C 1259.39,1384.46 1243.89,1377.29 1228.5,1369C 1219.83,1362.01 1210.83,1355.34 1201.5,1349C 1195.67,1341.83 1189.17,1335.33 1182,1329.5C 1177.45,1323.95 1173.28,1318.11 1169.5,1312C 1160.09,1308.53 1150.75,1304.86 1141.5,1301C 1131.88,1295.28 1122.38,1289.45 1113,1283.5C 1073.99,1258.6 1045.82,1224.27 1028.5,1180.5C 1016.27,1174.23 1004.94,1166.73 994.5,1158C 984.946,1152.45 976.612,1145.45 969.5,1137C 968.167,1136.33 966.833,1135.67 965.5,1135C 938.972,1108.44 918.805,1077.61 905,1042.5C 896.364,1021.37 891.364,999.366 890,976.5C 889.309,957.456 889.642,938.456 891,919.5C 879.379,901.247 870.713,881.581 865,860.5C 859.488,839.426 855.488,818.093 853,796.5C 851.37,747.839 864.537,703.673 892.5,664C 885.925,654.338 878.758,645.171 871,636.5C 865.384,626.56 859.384,616.894 853,607.5C 846.194,595.852 840.027,583.852 834.5,571.5C 827.265,558.692 820.765,545.359 815,531.5C 805.016,512.694 796.516,493.194 789.5,473C 787.62,470.742 786.12,468.242 785,465.5C 778.634,448.604 772.134,431.771 765.5,415C 757.855,391.418 750.522,367.751 743.5,344C 736.117,317.987 732.95,291.487 734,264.5C 734.85,250.446 739.35,237.779 747.5,226.5C 739.987,201.947 743.153,178.947 757,157.5C 761.918,152.244 767.084,147.411 772.5,143C 776.731,140.597 781.064,138.43 785.5,136.5C 787.338,119.817 792.838,104.483 802,90.5C 823.106,68.6926 848.606,61.1926 878.5,68C 886.102,70.131 892.769,73.7977 898.5,79C 900.618,79.6353 902.618,80.4686 904.5,81.5C 929.89,73.7246 953.223,77.8913 974.5,94C 979.391,100.298 984.391,106.464 989.5,112.5C 1002.74,139.988 1016.24,167.321 1030,194.5C 1037.43,207.031 1044.1,220.031 1050,233.5C 1059.18,250.535 1068.35,267.535 1077.5,284.5C 1082.93,268.704 1089.43,253.371 1097,238.5C 1120.03,201.749 1152.86,188.249 1195.5,198C 1217.78,205.277 1232.28,220.11 1239,242.5C 1239.67,249.833 1239.67,257.167 1239,264.5C 1229.87,320.07 1221.2,375.737 1213,431.5C 1210.14,441.309 1208.14,451.309 1207,461.5C 1202.01,496.753 1197.68,532.087 1194,567.5C 1192.79,573.483 1190.62,578.983 1187.5,584C 1200.03,591.095 1212.36,598.428 1224.5,606C 1229.81,611.871 1235.81,616.871 1242.5,621C 1264.47,642.085 1281.63,666.585 1294,694.5C 1304.13,722.026 1311.3,750.359 1315.5,779.5C 1328.32,792.142 1339.82,805.808 1350,820.5C 1355.69,831.375 1361.52,842.208 1367.5,853C 1371.21,861.625 1374.21,870.459 1376.5,879.5C 1401.46,881.191 1425.96,885.525 1450,892.5C 1506.79,876.597 1563.12,878.264 1619,897.5C 1631.51,902.835 1644.01,908.335 1656.5,914C 1666.92,921.543 1677.92,928.043 1689.5,933.5C 1738.18,924.456 1787.18,917.956 1836.5,914C 1855.49,912.975 1874.49,912.308 1893.5,912C 1839.54,848.9 1822.7,776.733 1843,695.5C 1854.33,659.729 1872.83,628.396 1898.5,601.5C 1907.2,593.635 1916.03,585.969 1925,578.5C 1932.23,541.471 1944.23,506.137 1961,472.5C 2001.04,399.467 2060.04,348.134 2138,318.5C 2145.38,309.441 2153.21,300.608 2161.5,292C 2199.62,265.103 2241.95,255.103 2288.5,262C 2320.95,267.521 2348.12,282.354 2370,306.5C 2376.53,314.733 2381.37,323.9 2384.5,334C 2391.48,336.487 2397.81,339.987 2403.5,344.5C 2409.87,347.369 2415.87,350.869 2421.5,355C 2463.25,386.098 2493.75,425.931 2513,474.5C 2529.13,516.622 2536.63,560.288 2535.5,605.5C 2535.33,614.833 2535.17,624.167 2535,633.5C 2534.83,640.133 2533.99,646.633 2532.5,653C 2569.62,708.224 2583.45,769.058 2574,835.5C 2569.07,857.62 2561.74,878.953 2552,899.5C 2540.44,918.444 2526.6,935.61 2510.5,951C 2500.19,958.315 2490.19,965.981 2480.5,974C 2472.54,977.982 2464.87,982.482 2457.5,987.5C 2450.95,990.609 2444.28,993.442 2437.5,996C 2435.64,999.284 2434.81,1002.78 2435,1006.5C 2451.2,1014.35 2467.37,1022.35 2483.5,1030.5C 2491.67,1036.42 2500.33,1041.59 2509.5,1046C 2546.7,1069.62 2581.37,1096.62 2613.5,1127C 2690.5,1136.07 2753.33,1170.23 2802,1229.5C 2806.56,1237.4 2811.9,1244.73 2818,1251.5C 2825.59,1265.01 2832.92,1278.67 2840,1292.5C 2851.9,1322.45 2859.24,1353.45 2862,1385.5C 2862.53,1404.2 2862.2,1422.87 2861,1441.5C 2887.74,1484.25 2900.58,1530.91 2899.5,1581.5 Z"/></g>
<g><path style="opacity:1" fill="#fefefe" d="M 850.5,112.5 C 864.939,110.302 875.439,115.635 882,128.5C 910.099,194.784 937.432,261.451 964,328.5C 966.706,332.607 969.04,336.94 971,341.5C 975.612,345.571 979.946,345.238 984,340.5C 985.483,337.298 985.817,333.964 985,330.5C 958.639,266.278 932.139,202.111 905.5,138C 910.34,128.971 918.007,124.471 928.5,124.5C 935.349,125.513 941.182,128.513 946,133.5C 959.333,160.5 972.667,187.5 986,214.5C 986.98,215.981 988.147,217.315 989.5,218.5C 1003.43,247.412 1017.76,276.078 1032.5,304.5C 1046.41,330.73 1060.41,356.896 1074.5,383C 1067.84,393.665 1062.5,404.998 1058.5,417C 1058.49,419.163 1059.49,420.663 1061.5,421.5C 1067.34,411.489 1074.5,402.489 1083,394.5C 1084,392.833 1085,391.167 1086,389.5C 1094.29,368.627 1102.95,347.96 1112,327.5C 1117.01,303.676 1125.68,281.342 1138,260.5C 1149.17,245.748 1163.67,240.915 1181.5,246C 1185.29,247.8 1188.46,250.3 1191,253.5C 1181.36,319.947 1170.7,386.28 1159,452.5C 1154.18,485.068 1150.18,517.734 1147,550.5C 1143.37,569.724 1137.54,588.224 1129.5,606C 1135.15,634.269 1141.32,662.436 1148,690.5C 1149.43,699.608 1149.26,709.108 1147.5,719C 1147.94,720.825 1148.28,722.658 1148.5,724.5C 1149.87,724.657 1151.21,724.49 1152.5,724C 1161.87,710.562 1168.53,695.896 1172.5,680C 1172.26,663.285 1169.59,646.785 1164.5,630.5C 1177.11,636.606 1189.11,643.773 1200.5,652C 1208.95,659.112 1216.78,666.946 1224,675.5C 1228.26,683.032 1233.26,690.032 1239,696.5C 1258.17,737.357 1267.5,780.357 1267,825.5C 1262.17,864.823 1246.33,898.823 1219.5,927.5C 1164.98,978.185 1101.64,995.018 1029.5,978C 998.095,968.936 971.595,952.103 950,927.5C 944.655,921.146 939.655,914.48 935,907.5C 929.935,897.704 924.601,888.038 919,878.5C 907.298,849.141 900.131,818.808 897.5,787.5C 898.439,755.343 908.105,725.677 926.5,698.5C 932.453,701.713 938.953,704.713 946,707.5C 949.975,730.92 956.475,753.587 965.5,775.5C 969.71,781.419 974.044,787.252 978.5,793C 996.289,803.09 1014.96,805.09 1034.5,799C 1038.5,796 1038.5,793 1034.5,790C 1024.02,784.018 1014.19,777.185 1005,769.5C 1001.86,764.892 999.53,759.892 998,754.5C 993.922,733.189 988.755,712.189 982.5,691.5C 984.322,688.67 986.822,686.67 990,685.5C 994.354,680.978 997.188,675.644 998.5,669.5C 996.724,664.554 993.224,662.22 988,662.5C 969.915,667.602 953.748,664.102 939.5,652C 933.279,645.779 927.113,639.613 921,633.5C 916.245,626.324 911.245,619.324 906,612.5C 895.528,596.301 885.694,579.634 876.5,562.5C 867.587,543.674 858.42,525.008 849,506.5C 842.528,490.227 835.528,474.227 828,458.5C 819.999,435.829 811.999,413.163 804,390.5C 798.794,371.053 793.294,351.719 787.5,332.5C 780.711,308.871 778.545,284.871 781,260.5C 781.646,253.86 785.146,249.693 791.5,248C 803.619,245.651 813.119,249.484 820,259.5C 822.254,263.007 824.254,266.673 826,270.5C 831.784,295.865 837.784,321.199 844,346.5C 852.032,370.063 862.865,392.23 876.5,413C 884.049,416.702 889.216,414.536 892,406.5C 892.584,403.743 892.25,401.077 891,398.5C 885.347,388.532 879.681,378.532 874,368.5C 861.794,337.477 853.128,305.477 848,272.5C 844.94,262.548 840.44,253.382 834.5,245C 829.198,240.019 823.531,235.519 817.5,231.5C 811.132,228.742 804.465,227.242 797.5,227C 789.965,214.042 788.465,200.542 793,186.5C 801.528,177.91 811.361,175.41 822.5,179C 827.214,181.051 831.381,183.885 835,187.5C 844.147,200.626 851.313,214.793 856.5,230C 869.602,281.358 890.936,328.858 920.5,372.5C 932.023,376.816 937.189,372.816 936,360.5C 920.31,335.121 906.31,308.788 894,281.5C 887.732,265.862 882.565,249.862 878.5,233.5C 874.005,221.842 869.505,210.175 865,198.5C 861.897,193.294 859.064,187.96 856.5,182.5C 840.861,168.447 833.695,150.781 835,129.5C 836.596,120.41 841.763,114.744 850.5,112.5 Z"/></g>
<g><path style="opacity:1" fill="#fefefe" d="M 2251.5,304.5 C 2275.07,303.159 2297.4,308.492 2318.5,320.5C 2324.4,324.892 2329.9,329.892 2335,335.5C 2338.22,340.395 2339.89,345.729 2340,351.5C 2339.5,352 2339,352.5 2338.5,353C 2334.77,353.066 2331.27,353.899 2328,355.5C 2327.84,357.387 2328.67,358.887 2330.5,360C 2407.37,387.56 2456.87,441.06 2479,520.5C 2488.78,563.76 2490.78,607.094 2485,650.5C 2484,650.167 2483,649.833 2482,649.5C 2479.99,650.669 2477.83,651.335 2475.5,651.5C 2475.34,653.527 2475.5,655.527 2476,657.5C 2481.31,662.479 2486.31,667.813 2491,673.5C 2496.33,681.5 2501.67,689.5 2507,697.5C 2515.1,716.028 2521.77,735.028 2527,754.5C 2536.97,799.992 2530.31,843.326 2507,884.5C 2493.18,903.99 2476.34,920.49 2456.5,934C 2448.83,937.831 2441.5,942.164 2434.5,947C 2412.93,956.786 2390.93,965.452 2368.5,973C 2359.91,975.314 2351.24,977.314 2342.5,979C 2336.65,980.549 2335.98,983.382 2340.5,987.5C 2347.51,990.586 2354.84,992.419 2362.5,993C 2372.2,993.214 2381.87,993.88 2391.5,995C 2394.57,995.739 2396.74,997.572 2398,1000.5C 2399.42,1008.55 2397.76,1015.89 2393,1022.5C 2389.2,1026 2385.7,1029.83 2382.5,1034C 2376.11,1037.86 2370.11,1042.19 2364.5,1047C 2367.24,1047.98 2370.07,1048.48 2373,1048.5C 2380.75,1047.6 2388.41,1046.26 2396,1044.5C 2402.32,1045.38 2408.48,1046.88 2414.5,1049C 2481.35,1079.06 2540.85,1120.56 2593,1173.5C 2602,1185.12 2611.34,1195.79 2621,1205.5C 2625.95,1213.74 2631.61,1221.41 2638,1228.5C 2645.68,1241.2 2653.35,1253.87 2661,1266.5C 2667.02,1279.21 2673.02,1291.87 2679,1304.5C 2689.03,1328.37 2692.03,1353.04 2688,1378.5C 2686.45,1384.49 2684.11,1390.16 2681,1395.5C 2673.77,1403.4 2665.93,1410.57 2657.5,1417C 2641.55,1424.83 2625.05,1429.33 2608,1430.5C 2588.96,1433.39 2569.79,1435.39 2550.5,1436.5C 2497.53,1437.84 2442.19,1436.34 2384.5,1432C 2226.83,1417 2071.83,1387.66 1919.5,1344C 1896.65,1335.94 1873.65,1328.27 1850.5,1321C 1833.65,1314.08 1816.65,1307.41 1799.5,1301C 1793.53,1297.26 1787.2,1294.26 1780.5,1292C 1793.05,1266.3 1800.89,1239.13 1804,1210.5C 1814.05,1120.02 1789.55,1040.52 1730.5,972C 1748.06,968.93 1765.73,966.596 1783.5,965C 1783.17,964.667 1782.83,964.333 1782.5,964C 1805.95,961.406 1829.12,959.906 1852,959.5C 1870.73,958.246 1887.9,957.579 1903.5,957.5C 1915.56,958.246 1927.39,960.246 1939,963.5C 1955.46,972.643 1970.96,983.143 1985.5,995C 1993.99,999.299 2001.32,1004.3 2007.5,1010C 2013.9,1013.19 2020.57,1015.69 2027.5,1017.5C 2029.57,1017.03 2031.57,1016.37 2033.5,1015.5C 2034.83,1014.17 2034.83,1012.83 2033.5,1011.5C 2022.64,1003.12 2014.14,992.782 2008,980.5C 2006.65,970.526 2010.82,964.193 2020.5,961.5C 2048,969.434 2076,974.601 2104.5,977C 2109.77,975.445 2109.77,973.779 2104.5,972C 2077.12,964.207 2050.12,955.207 2023.5,945C 2010.68,938.426 1997.68,932.093 1984.5,926C 1959.85,912.418 1938.35,894.918 1920,873.5C 1878.43,818.726 1868.43,758.726 1890,693.5C 1893.17,686.5 1896.33,679.5 1899.5,672.5C 1904.58,665.338 1909.42,658.005 1914,650.5C 1923.47,640.029 1933.3,629.863 1943.5,620C 1959.83,608.17 1977.83,599.504 1997.5,594C 2003.49,591.754 2003.82,589.088 1998.5,586C 1991.6,584.289 1984.77,582.455 1978,580.5C 1976.3,578.1 1975.47,575.433 1975.5,572.5C 1977.39,556.452 1981.39,540.952 1987.5,526C 2020.82,442.997 2079.49,387.33 2163.5,359C 2178.85,354.997 2194.19,350.997 2209.5,347C 2210.93,344.733 2210.6,342.733 2208.5,341C 2201.62,338.365 2194.62,336.198 2187.5,334.5C 2186.42,333.635 2186.25,332.635 2187,331.5C 2194.26,325.126 2202.09,319.626 2210.5,315C 2223.85,309.746 2237.52,306.246 2251.5,304.5 Z"/></g>
<g><path style="opacity:1" fill="#010102" d="M 2185.5,496.5 C 2218.53,497.713 2239.69,514.047 2249,545.5C 2256.63,578.152 2254.63,610.152 2243,641.5C 2235.85,656.661 2225.68,669.495 2212.5,680C 2205.63,683.646 2198.3,685.479 2190.5,685.5C 2176.72,684.981 2163.38,682.314 2150.5,677.5C 2146.62,674.377 2142.78,671.377 2139,668.5C 2120.1,641.303 2113.76,611.636 2120,579.5C 2123.74,557.591 2131.41,537.258 2143,518.5C 2148.21,513.622 2153.71,509.122 2159.5,505C 2168.01,501.221 2176.68,498.388 2185.5,496.5 Z"/></g>
<g><path style="opacity:1" fill="#f9f9f9" d="M 2179.5,520.5 C 2218.62,521.454 2238.95,541.954 2240.5,582C 2241.55,610.173 2233.72,635.673 2217,658.5C 2210.56,665.473 2202.72,669.306 2193.5,670C 2209.38,659.065 2218.88,643.898 2222,624.5C 2225.92,603.384 2222.92,583.384 2213,564.5C 2195.55,543.338 2176.72,542.005 2156.5,560.5C 2170.38,566.92 2174.88,577.586 2170,592.5C 2162.57,604.154 2153.74,605.321 2143.5,596C 2141.96,594.421 2140.79,592.587 2140,590.5C 2134.43,610.778 2135.6,630.611 2143.5,650C 2146.02,651.917 2147.19,654.417 2147,657.5C 2136.95,644.702 2131.62,630.035 2131,613.5C 2129.33,590.693 2133.49,569.027 2143.5,548.5C 2148.59,538.911 2155.92,531.411 2165.5,526C 2170.58,524.599 2175.24,522.765 2179.5,520.5 Z"/></g>
<g><path style="opacity:1" fill="#010102" d="M 2369.5,524.5 C 2385.02,523.037 2399.68,525.87 2413.5,533C 2417.3,535.797 2420.8,538.964 2424,542.5C 2435.35,559.19 2441.18,577.69 2441.5,598C 2442.74,630.206 2434.24,659.706 2416,686.5C 2409.81,691.69 2403.98,697.19 2398.5,703C 2391.1,706.615 2383.26,708.448 2375,708.5C 2360.92,708.184 2347.42,705.351 2334.5,700C 2329.3,695.135 2324.47,689.968 2320,684.5C 2307.68,657.937 2304.68,630.604 2311,602.5C 2315.33,579.842 2324.5,559.509 2338.5,541.5C 2347.59,533.457 2357.92,527.79 2369.5,524.5 Z"/></g>
<g><path style="opacity:1" fill="#f8f8f8" d="M 2372.5,546.5 C 2405.18,546.687 2423.02,563.02 2426,595.5C 2430.05,626.974 2422.72,655.307 2404,680.5C 2398.51,687.822 2391.35,692.489 2382.5,694.5C 2381.3,694.154 2381.3,693.654 2382.5,693C 2389,689.167 2394.17,684 2398,677.5C 2409.68,655.316 2412.68,631.983 2407,607.5C 2403.62,596.14 2397.79,586.307 2389.5,578C 2378,571.135 2366.33,570.802 2354.5,577C 2350.83,580 2347.17,583 2343.5,586C 2354.13,589.32 2359.46,596.653 2359.5,608C 2359.31,613.243 2357.81,618.076 2355,622.5C 2343.85,630.775 2335.51,628.441 2330,615.5C 2323.56,639.57 2325.89,662.57 2337,684.5C 2332.75,679.448 2329.41,673.781 2327,667.5C 2314.49,631.258 2318.49,596.924 2339,564.5C 2347.88,554.142 2359.05,548.142 2372.5,546.5 Z"/></g>
<g><path style="opacity:1" fill="#030406" d="M 2103.5,730.5 C 2106.73,730.299 2109.89,730.633 2113,731.5C 2116.59,734.97 2116.09,737.803 2111.5,740C 2099.75,741.786 2090.25,747.286 2083,756.5C 2082.24,759.053 2081.41,761.553 2080.5,764C 2073.84,765.666 2071,763.166 2072,756.5C 2077.22,741.447 2087.72,732.781 2103.5,730.5 Z"/></g>
<g><path style="opacity:1" fill="#010203" d="M 2101.5,749.5 C 2104.19,749.336 2106.85,749.503 2109.5,750C 2167.36,776.131 2228.02,790.964 2291.5,794.5C 2311.14,794.939 2331.14,793.773 2351.5,791C 2366.98,787.285 2382.32,782.952 2397.5,778C 2400.33,776.753 2403,775.253 2405.5,773.5C 2402.42,770.142 2402.92,767.809 2407,766.5C 2419.2,768.87 2423.86,776.204 2421,788.5C 2417.06,799.702 2413.72,800.035 2411,789.5C 2398.45,796.024 2385.62,801.857 2372.5,807C 2360.19,816.639 2347.86,826.305 2335.5,836C 2302.02,855.459 2267.02,859.459 2230.5,848C 2221.93,845.254 2213.59,841.921 2205.5,838C 2191.36,828.867 2178.69,817.867 2167.5,805C 2160.62,798.618 2153.62,792.452 2146.5,786.5C 2130.52,781.09 2114.85,774.924 2099.5,768C 2092.98,760.94 2093.65,754.773 2101.5,749.5 Z"/></g>
<g><path style="opacity:1" fill="#f9f9f9" d="M 2187.5,799.5 C 2188.1,798.861 2188.93,798.528 2190,798.5C 2218.65,804.772 2246.82,809.272 2274.5,812C 2294.85,812.519 2315.18,812.519 2335.5,812C 2299.94,837.59 2261.94,841.59 2221.5,824C 2215,820.586 2208.67,816.919 2202.5,813C 2197.96,807.957 2192.96,803.457 2187.5,799.5 Z"/></g>
<g><path style="opacity:1" fill="#fdfdfd" d="M 1311.5,850.5 C 1332.67,887.128 1341.83,926.795 1339,969.5C 1337.33,993.884 1332.33,1017.55 1324,1040.5C 1317.51,1054.14 1310.51,1067.47 1303,1080.5C 1294.72,1090.2 1286.56,1100.03 1278.5,1110C 1235.14,1150.34 1184.14,1167.68 1125.5,1162C 1084.2,1157.83 1047.86,1142.5 1016.5,1116C 1013.67,1113.75 1010.67,1111.75 1007.5,1110C 999.946,1102.45 992.446,1094.95 985,1087.5C 961.391,1059.28 946.058,1026.94 939,990.5C 938.248,986.163 937.914,981.829 938,977.5C 987.793,1018.09 1044.96,1034.92 1109.5,1028C 1131.53,1025.93 1152.86,1020.93 1173.5,1013C 1189.3,1005.86 1204.63,997.861 1219.5,989C 1229.04,982.022 1238.37,974.689 1247.5,967C 1253.98,960.855 1260.14,954.355 1266,947.5C 1270.95,939.261 1276.61,931.594 1283,924.5C 1295.35,900.94 1304.85,876.274 1311.5,850.5 Z"/></g>
<g><path style="opacity:1" fill="#fdfdfd" d="M 1524.5,929.5 C 1556.58,928.348 1587.58,934.515 1617.5,948C 1678.53,976.054 1721.19,1021.39 1745.5,1084C 1781.61,1195.23 1755.94,1289.56 1668.5,1367C 1638.55,1391.31 1604.88,1408.81 1567.5,1419.5C 1521.07,1430.65 1474.07,1427.82 1426.5,1411C 1422.6,1408.48 1418.6,1406.15 1414.5,1404C 1431.86,1401.08 1448.86,1396.74 1465.5,1391C 1511.23,1371.93 1548.73,1342.43 1578,1302.5C 1622.17,1238.13 1637.83,1167.13 1625,1089.5C 1614.4,1033.44 1588.56,985.941 1547.5,947C 1540.29,940.629 1532.62,934.796 1524.5,929.5 Z"/></g>
<g><path style="opacity:1" fill="#fdfdfd" d="M 1439.5,939.5 C 1494.15,954.955 1534.32,988.289 1560,1039.5C 1582.18,1086.75 1588.18,1136.08 1578,1187.5C 1565.65,1243.46 1536.81,1288.62 1491.5,1323C 1456.86,1346.88 1418.36,1359.38 1376,1360.5C 1331.32,1361.44 1289.15,1349.94 1249.5,1326C 1343.36,1318.08 1413.86,1273.58 1461,1192.5C 1489.7,1134.78 1495.53,1075.11 1478.5,1013.5C 1472.36,996.387 1465.02,979.887 1456.5,964C 1450.93,955.629 1445.27,947.462 1439.5,939.5 Z"/></g>
<g><path style="opacity:1" fill="#fdfdfd" d="M 1385.5,950.5 C 1389.09,952.58 1392.25,955.246 1395,958.5C 1401.1,967.051 1407.44,975.385 1414,983.5C 1449.51,1046.61 1450.51,1110.27 1417,1174.5C 1380.04,1235.94 1325.54,1270.61 1253.5,1278.5C 1193.05,1277.86 1141.39,1255.53 1098.5,1211.5C 1097.24,1209.32 1095.74,1207.32 1094,1205.5C 1093.31,1204.67 1093.48,1204 1094.5,1203.5C 1143.33,1213.41 1191.99,1208.91 1240.5,1190C 1254.12,1183.19 1267.46,1175.86 1280.5,1168C 1286.91,1161.62 1293.91,1155.96 1301.5,1151C 1342.29,1112.61 1368.46,1065.77 1380,1010.5C 1383.68,990.454 1385.51,970.454 1385.5,950.5 Z"/></g>
<g><path style="opacity:1" fill="#fdfdfd" d="M 2666.5,1189.5 C 2666.56,1188.96 2666.89,1188.62 2667.5,1188.5C 2679.22,1192.86 2690.55,1198.03 2701.5,1204C 2708.48,1209.49 2715.82,1214.49 2723.5,1219C 2731.67,1225.34 2739.34,1232.17 2746.5,1239.5C 2774.13,1267.39 2793.63,1300.39 2805,1338.5C 2821.96,1397.18 2816.8,1453.85 2789.5,1508.5C 2779.45,1527.7 2766.95,1545.03 2752,1560.5C 2751.33,1561.83 2750.67,1563.17 2750,1564.5C 2744.63,1568.36 2739.63,1572.69 2735,1577.5C 2735.27,1549.62 2731.6,1522.29 2724,1495.5C 2719.02,1484.87 2714.02,1474.21 2709,1463.5C 2705.4,1457.94 2701.56,1452.61 2697.5,1447.5C 2725.35,1425.04 2739.01,1395.71 2738.5,1359.5C 2737.66,1335.79 2733.16,1312.79 2725,1290.5C 2719.2,1277.46 2713.2,1264.46 2707,1251.5C 2698.32,1236.8 2689.65,1222.13 2681,1207.5C 2676.33,1201.34 2671.5,1195.34 2666.5,1189.5 Z"/></g>
<g><path style="opacity:1" fill="#fefefe" d="M 2686.5,1581.5 C 2289.5,1581.5 1892.5,1581.5 1495.5,1581.5C 1480.66,1545.93 1475.66,1508.93 1480.5,1470.5C 1541.28,1476.5 1598.95,1464 1653.5,1433C 1661.58,1427.25 1669.91,1421.92 1678.5,1417C 1705.6,1396.23 1729.77,1372.4 1751,1345.5C 1752.67,1342.5 1754.33,1339.5 1756,1336.5C 1756.8,1335.2 1757.97,1334.53 1759.5,1334.5C 1769.22,1337.86 1778.56,1342.03 1787.5,1347C 1806.15,1353.22 1824.49,1360.22 1842.5,1368C 1861.63,1374.21 1880.63,1380.71 1899.5,1387.5C 2083.7,1441.87 2271.53,1474.2 2463,1484.5C 2519.3,1486.46 2576.46,1483.62 2634.5,1476C 2640.75,1474.03 2646.92,1471.86 2653,1469.5C 2658.7,1475.21 2663.7,1481.54 2668,1488.5C 2683.5,1518.24 2689.66,1549.24 2686.5,1581.5 Z"/></g>
<g><path style="opacity:1" fill="#fbfbfb" d="M 2852.5,1581.5 C 2833.83,1581.5 2815.17,1581.5 2796.5,1581.5C 2814.19,1559.47 2828.86,1535.47 2840.5,1509.5C 2848.68,1532.76 2852.68,1556.76 2852.5,1581.5 Z"/></g>
<g><path style="opacity:1" fill="#fee500" d="M 1446.5,1581.5 C 1462.83,1581.5 1479.17,1581.5 1495.5,1581.5C 1892.5,1581.5 2289.5,1581.5 2686.5,1581.5C 2723.17,1581.5 2759.83,1581.5 2796.5,1581.5C 2815.17,1581.5 2833.83,1581.5 2852.5,1581.5C 2868.17,1581.5 2883.83,1581.5 2899.5,1581.5C 3266.17,1581.5 3632.83,1581.5 3999.5,1581.5C 3999.5,1584.5 3999.5,1587.5 3999.5,1590.5C 3995.79,1599.29 3992.46,1608.29 3989.5,1617.5C 3988.17,1617.5 3987.5,1618.17 3987.5,1619.5C 3981.13,1638.77 3974.46,1657.94 3967.5,1677C 2709.5,1677.5 1451.5,1677.67 193.5,1677.5C 203.843,1645.29 215.176,1613.45 227.5,1582C 633.833,1581.5 1040.17,1581.33 1446.5,1581.5 Z"/></g>
<g><path style="opacity:1" fill="#284469" d="M 3989.5,1617.5 C 3989.5,1618.83 3988.83,1619.5 3987.5,1619.5C 3987.5,1618.17 3988.17,1617.5 3989.5,1617.5 Z"/></g>
<g><path style="opacity:1" fill="#004e9e" d="M 1442.5,1794.5 C 1450.27,1794.53 1458.11,1794.53 1466,1794.5C 1497.72,1795.52 1529.22,1799.02 1560.5,1805C 1565.87,1805.68 1570.87,1807.35 1575.5,1810C 1558.92,1848.99 1542.75,1888.16 1527,1927.5C 1525.02,1932.8 1522.52,1937.8 1519.5,1942.5C 1511.13,1925.47 1497.8,1914.31 1479.5,1909C 1428.73,1900.57 1380.73,1908.57 1335.5,1933C 1315.78,1946.05 1300.28,1962.88 1289,1983.5C 1272.39,2021.02 1282.55,2048.19 1319.5,2065C 1335.3,2070.38 1351.47,2073.88 1368,2075.5C 1405.05,2072.66 1442.55,2067.66 1480.5,2060.5C 1480.83,2060.83 1481.17,2061.17 1481.5,2061.5C 1480.3,2064.94 1478.64,2068.1 1476.5,2071C 1464.11,2106.19 1450.94,2141.02 1437,2175.5C 1388.44,2186.01 1339.28,2191.34 1289.5,2191.5C 1240.24,2193.24 1193.24,2183.9 1148.5,2163.5C 1137.16,2157.17 1126.16,2150.33 1115.5,2143C 1107.95,2135.29 1100.45,2127.45 1093,2119.5C 1084.82,2106.47 1078.82,2092.47 1075,2077.5C 1071.7,2035.32 1079.7,1995.32 1099,1957.5C 1103.82,1951.21 1108.15,1944.54 1112,1937.5C 1117.36,1930.75 1122.69,1924.09 1128,1917.5C 1136.25,1908.65 1144.75,1900.15 1153.5,1892C 1195.69,1857.06 1243.36,1831.73 1296.5,1816C 1308.91,1812.82 1321.24,1809.48 1333.5,1806C 1369.72,1799.65 1406.06,1795.81 1442.5,1794.5 Z"/></g>
<g><path style="opacity:1" fill="#004e9e" d="M 146.5,1802.5 C 220.501,1802.33 294.501,1802.5 368.5,1803C 386.997,1807.02 398.831,1818.18 404,1836.5C 406.597,1846.33 408.097,1856.33 408.5,1866.5C 404.49,1912.13 401.323,1957.8 399,2003.5C 443.236,1936.84 487.069,1870.01 530.5,1803C 617.169,1802.17 703.835,1802.33 790.5,1803.5C 781.963,1826.61 773.13,1849.61 764,1872.5C 744.478,1926.06 725.144,1979.73 706,2033.5C 696.355,2056.76 687.689,2080.43 680,2104.5C 671.558,2124.06 664.225,2144.06 658,2164.5C 654.96,2169.91 652.46,2175.58 650.5,2181.5C 594.837,2182.5 539.171,2182.83 483.5,2182.5C 489.45,2163.48 496.283,2144.81 504,2126.5C 528.651,2057.2 553.651,1988.2 579,1919.5C 531.528,1989.09 484.528,2059.09 438,2129.5C 429.249,2140.93 421.249,2152.93 414,2165.5C 409.481,2170.69 405.314,2176.19 401.5,2182C 351.834,2182.5 302.168,2182.67 252.5,2182.5C 259.995,2093.23 266.495,2003.9 272,1914.5C 239.133,2003.44 206.466,2092.44 174,2181.5C 118.238,2182.5 62.4049,2182.83 6.5,2182.5C 52.573,2055.61 99.2397,1928.95 146.5,1802.5 Z"/></g>
<g><path style="opacity:1" fill="#004e9e" d="M 893.5,1802.5 C 955.167,1802.5 1016.83,1802.5 1078.5,1802.5C 1041.78,1902.97 1005.28,2003.64 969,2104.5C 960.503,2125.17 952.836,2146.17 946,2167.5C 943.359,2171.91 941.193,2176.58 939.5,2181.5C 877.836,2182.67 816.169,2182.83 754.5,2182C 780.969,2112.93 806.469,2043.43 831,1973.5C 839.115,1953.83 846.448,1933.83 853,1913.5C 861.497,1892.83 869.164,1871.83 876,1850.5C 878.234,1847.47 879.901,1844.14 881,1840.5C 885.475,1827.9 889.641,1815.23 893.5,1802.5 Z"/></g>
<g><path style="opacity:1" fill="#004e9e" d="M 1668.5,1802.5 C 1727.17,1802.5 1785.83,1802.5 1844.5,1802.5C 1841.61,1812.78 1838.28,1822.95 1834.5,1833C 1821.42,1868.48 1808.09,1903.81 1794.5,1939C 1825.07,1939.83 1855.57,1939.66 1886,1938.5C 1898.25,1906.76 1909.91,1874.76 1921,1842.5C 1921.83,1841.34 1922.66,1840.17 1923.5,1839C 1927.95,1826.95 1931.95,1814.78 1935.5,1802.5C 1994.17,1802.17 2052.84,1802.5 2111.5,1803.5C 2071.94,1908.03 2033.44,2013.03 1996,2118.5C 1987.34,2139.5 1979.5,2160.83 1972.5,2182.5C 1913.83,2182.67 1855.17,2182.5 1796.5,2182C 1812.27,2140.18 1827.94,2098.35 1843.5,2056.5C 1843.19,2055.69 1842.69,2055.03 1842,2054.5C 1812.72,2054.6 1783.38,2054.6 1754,2054.5C 1750.33,2062.85 1746.66,2071.19 1743,2079.5C 1731.27,2114.04 1718.77,2148.21 1705.5,2182C 1647.17,2182.5 1588.83,2182.67 1530.5,2182.5C 1564.02,2089.12 1597.85,1995.79 1632,1902.5C 1639.42,1884.51 1646.09,1866.18 1652,1847.5C 1658.58,1832.92 1664.08,1817.92 1668.5,1802.5 Z"/></g>
<g><path style="opacity:1" fill="#004e9e" d="M 2697.5,1802.5 C 2757.17,1802.17 2816.84,1802.5 2876.5,1803.5C 2845.44,1887.68 2814.77,1972.01 2784.5,2056.5C 2844.17,2056.17 2903.84,2056.5 2963.5,2057.5C 2949.29,2094.29 2935.96,2131.46 2923.5,2169C 2920.93,2173.05 2918.93,2177.39 2917.5,2182C 2797.83,2182.83 2678.17,2182.67 2558.5,2181.5C 2598.31,2074.56 2637.65,1967.39 2676.5,1860C 2684.38,1841.2 2691.38,1822.03 2697.5,1802.5 Z"/></g>
<g><path style="opacity:1" fill="#004e9e" d="M 3126.5,1802.5 C 3187.84,1802.17 3249.17,1802.5 3310.5,1803.5C 3270.94,1908.07 3232.44,2013.07 3195,2118.5C 3186.32,2139.52 3178.49,2160.86 3171.5,2182.5C 3109.83,2182.5 3048.17,2182.5 2986.5,2182.5C 3033.68,2056.12 3080.35,1929.45 3126.5,1802.5 Z"/></g>
<g><path style="opacity:1" fill="#004e9e" d="M 3418.5,1802.5 C 3491.5,1802.33 3564.5,1802.5 3637.5,1803C 3653.15,1806.24 3664.99,1814.74 3673,1828.5C 3674.46,1833.42 3676.46,1838.08 3679,1842.5C 3680.9,1851.39 3681.73,1860.39 3681.5,1869.5C 3677.49,1932.47 3674.33,1995.47 3672,2058.5C 3696.24,1994.12 3719.91,1929.45 3743,1864.5C 3751.57,1844.62 3759.07,1824.29 3765.5,1803.5C 3817.17,1802.17 3868.83,1802.17 3920.5,1803.5C 3913.5,1825.17 3905.66,1846.5 3897,1867.5C 3859.33,1972.5 3820.83,2077.17 3781.5,2181.5C 3694.5,2182.5 3607.5,2182.83 3520.5,2182.5C 3525.51,2095.21 3529.34,2007.88 3532,1920.5C 3499.93,2007.55 3467.76,2094.55 3435.5,2181.5C 3383.5,2182.67 3331.5,2182.83 3279.5,2182C 3326.32,2055.69 3372.66,1929.19 3418.5,1802.5 Z"/></g>
<g><path style="opacity:1" fill="#004e9e" d="M 2214.5,1803.5 C 2341.83,1803.5 2469.17,1803.5 2596.5,1803.5C 2587.06,1828.97 2577.9,1854.64 2569,1880.5C 2565.05,1887.68 2561.88,1895.18 2559.5,1903C 2489.83,1903.5 2420.17,1903.67 2350.5,1903.5C 2345.22,1917.17 2340.22,1931.01 2335.5,1945C 2401.83,1945.5 2468.17,1945.67 2534.5,1945.5C 2523.41,1976.26 2512.41,2007.09 2501.5,2038C 2434.83,2038.5 2368.17,2038.67 2301.5,2038.5C 2296.32,2052.04 2291.32,2065.7 2286.5,2079.5C 2357.16,2080.5 2427.83,2080.83 2498.5,2080.5C 2487.08,2114.75 2475.08,2148.75 2462.5,2182.5C 2333.17,2182.5 2203.83,2182.5 2074.5,2182.5C 2120.82,2056.02 2167.49,1929.69 2214.5,1803.5 Z"/></g>
</svg>
