<svg fill='currentColor' xmlns="http://www.w3.org/2000/svg" viewBox="0 0 2783.67 316.8">

    <path id="path132" class="cls-1" d="M83.78,0L0,156.01l83.78,156.01h23.18l84.69-156.01-53.96-100.48-12.18,22.69,41.77,77.79-72.05,134.17L23.18,156.01,106.96,0h-23.18ZM131.79,0L47.09,156.01l53.96,100.48,12.18-22.69-41.77-77.79L143.51,21.84l72.05,134.17-83.78,156.01h23.18l83.78-156.01L154.97,0h-23.18Z"/>
    <path id="rect47" class="cls-2" d="M701.88,2.47v308.45h268.71v-62.19h-188.83v-62.46h165.41v-61.37h-165.41v-61.06h184.93V2.47h-264.81Z"/>
    <path id="rect47-6" class="cls-2" d="M305.38,2.47v308.45h79.88v-96.6h96.16l55.78,96.6h92.13l-66.89-113.47c32.48-17.93,55.87-50.59,55.87-90.78,0-82.51-62.54-104.21-113.36-104.21h-199.56ZM385.26,63.84h113.29c14.63,0,30.91,11.37,30.91,46.53,0,11.92-3.48,42.59-30.91,42.59h-113.29V63.84Z"/>
    <path id="rect1271" class="cls-1" d="M1043.15,2.47v308.45h79.88V112.24l176.6,198.69h79.88V2.47h-79.88v197.07L1123.03,2.47h-79.88Z"/>
    <path id="path1750" class="cls-1" d="M1560.94,2.47l-135.92,308.45h91.6l20.73-52.52h155.36l20.73,52.52h91.6L1669.1,2.47h-108.16ZM1615.02,61.56l53.46,135.48h-106.93l53.46-135.48Z"/>
    <path id="rect3635" class="cls-1" d="M2246.93,2.47v308.45h255.9v-62.19h-176.02V2.47h-79.88Z"/>
    <path id="rect4042" class="cls-1" d="M2463.69,2.47v61.37h120.05v247.09h79.88V63.84h120.05V2.47h-319.98Z"/>
    <path id="rect8237" class="cls-1" d="M1842.54,2.47v208.46c0,87.35,88.61,105.87,158.87,105.87s158.87-18.51,158.87-105.87V2.47h-79.88v204.56c0,31.76-48.02,42.42-78.99,42.42s-78.99-10.66-78.99-42.42V2.47h-79.88Z"/>
</svg>