<?xml version="1.0" encoding="UTF-8"?>
<svg id="Layer_2" data-name="Layer 2" xmlns="http://www.w3.org/2000/svg" viewBox="0 0 1979.26 312.02">
  <defs>
    <style>
      .cls-1, .cls-2 {
        fill: #000;
        stroke-width: 0px;
      }

      .cls-2 {
        fill-rule: evenodd;
      }
    </style>
  </defs>
  <g id="Livello_1" data-name="Livello 1">
    <path id="path132" class="cls-1" d="M83.78,0L0,156.01l83.78,156.01h23.18l84.69-156.01-53.96-100.48-12.18,22.69,41.77,77.79-72.05,134.17L23.18,156.01,106.96,0h-23.18ZM131.79,0L47.09,156.01l53.96,100.48,12.18-22.69-41.77-77.79L143.51,21.84l72.05,134.17-83.78,156.01h23.18l83.78-156.01L154.97,0h-23.18Z"/>
    <path id="rect47" class="cls-2" d="M599.01,51.81v204.51h178.16v-41.23h-125.19v-41.41h109.67v-40.69h-109.67v-40.49h122.61v-40.69h-175.57Z"/>
    <path id="rect47-6" class="cls-2" d="M336.13,51.81v204.51h52.96v-64.05h63.76l36.98,64.05h61.08l-44.35-75.23c21.54-11.89,37.04-33.54,37.04-60.19,0-54.7-41.47-69.09-75.16-69.09h-132.31ZM389.09,92.5h75.11c9.7,0,20.49,7.54,20.49,30.85,0,7.9-2.31,28.23-20.49,28.23h-75.11v-59.08Z"/>
    <path id="rect1271" class="cls-1" d="M825.28,51.81v204.51h52.96V124.59l117.08,131.73h52.96V51.81h-52.96v130.66l-117.08-130.66h-52.96Z"/>
    <path id="path1750" class="cls-1" d="M1168.58,51.81l-90.12,204.51h60.73l13.74-34.82h103.01l13.74,34.82h60.73l-90.12-204.51h-71.71ZM1204.43,90.99l35.45,89.82h-70.89l35.45-89.82Z"/>
    <path id="rect3635" class="cls-1" d="M1623.4,51.81v204.51h169.67v-41.23h-116.71V51.81h-52.96Z"/>
    <path id="rect4042" class="cls-1" d="M1767.11,51.81v40.69h79.59v163.82h52.96V92.5h79.59v-40.69h-212.15Z"/>
    <path id="rect8237" class="cls-1" d="M1355.28,51.81v138.21c0,57.92,58.75,70.19,105.33,70.19s105.34-12.27,105.34-70.19V51.81h-52.96v135.62c0,21.06-31.84,28.13-52.37,28.13s-52.37-7.07-52.37-28.13V51.81h-52.96Z"/>
  </g>
</svg>