<?xml version="1.0" encoding="UTF-8" standalone="no"?>
<svg
   xmlns:dc="http://purl.org/dc/elements/1.1/"
   xmlns:cc="http://creativecommons.org/ns#"
   xmlns:rdf="http://www.w3.org/1999/02/22-rdf-syntax-ns#"
   xmlns:svg="http://www.w3.org/2000/svg"
   xmlns="http://www.w3.org/2000/svg"
   viewBox="0 0 933.33331 386.66666"
   height="386.66666"
   width="933.33331"
   xml:space="preserve"
   id="svg2"
   version="1.1"><metadata
     id="metadata8"><rdf:RDF><cc:Work
         rdf:about=""><dc:format>image/svg+xml</dc:format><dc:type
           rdf:resource="http://purl.org/dc/dcmitype/StillImage" /></cc:Work></rdf:RDF></metadata><defs
     id="defs6"><clipPath
       id="clipPath34"
       clipPathUnits="userSpaceOnUse"><path
         id="path32"
         d="M 0,290 H 700 V 0 H 0 Z" /></clipPath></defs><g
     transform="matrix(1.3333333,0,0,-1.3333333,0,386.66667)"
     id="g10"><g
       transform="translate(68.3252,23.427)"
       id="g12"><path
         id="path14"
         style="fill:#ff0000;fill-opacity:1;fill-rule:nonzero;stroke:none"
         d="M 0,0 H 0.001 V 44.415 182.38 l -44.458,60.766 V 60.751 Z" /></g><g
       transform="translate(344.6853,266.573)"
       id="g16"><path
         id="path18"
         style="fill:#000000;fill-opacity:1;fill-rule:nonzero;stroke:none"
         d="m 0,0 v -163.875 l 44.457,-60.696 v 88.829 l 78.786,-107.402 h 55.102 z" /></g><g
       transform="translate(342.3684,23.427)"
       id="g20"><path
         id="path22"
         style="fill:#ff0000;fill-opacity:1;fill-rule:nonzero;stroke:none"
         d="M 0,0 H 47.14 L -131.223,243.146 V 179.768 Z" /></g><g
       transform="translate(255.6021,23.427)"
       id="g24"><path
         id="path26"
         style="fill:#000000;fill-opacity:1;fill-rule:nonzero;stroke:none"
         d="M 0,0 V 101.001 L -44.448,161.74 -44.457,0 Z" /></g><g
       id="g28"><g
         clip-path="url(#clipPath34)"
         id="g30"><g
           transform="translate(540.2845,167.0949)"
           id="g36"><path
             id="path38"
             style="fill:#ff0000;fill-opacity:1;fill-rule:nonzero;stroke:none"
             d="m 0,0 h -17.621 c -15.142,0 -27.461,12.39 -27.461,27.532 0,15.142 12.319,27.46 27.461,27.46 H 60.051 L 27.497,99.478 h -45.118 c -39.671,0 -71.946,-32.275 -71.946,-71.946 0,-39.672 32.275,-71.947 71.946,-71.947 h 50.123 z" /></g><g
           transform="translate(604.1851,167.0897)"
           id="g40"><path
             id="path42"
             style="fill:#000000;fill-opacity:1;fill-rule:nonzero;stroke:none"
             d="m 0,0 h -50.555 l 32.502,-44.415 H 0 c 15.142,0 27.461,-12.39 27.461,-27.531 0,-15.142 -12.319,-27.461 -27.461,-27.461 h -100.263 l 32.385,-44.256 H 5.484 c 34.99,0 66.462,33.892 66.462,71.717 C 71.946,-32.275 39.671,0 0,0" /></g><g
           transform="translate(196.3089,23.427)"
           id="g44"><path
             id="path46"
             style="fill:#000000;fill-opacity:1;fill-rule:nonzero;stroke:none"
             d="m 0,0 v 182.38 l -44.457,60.766 V 44.415 h -83.526 V 0 Z" /></g></g></g></g></svg>