<?xml version="1.0" encoding="utf-8"?>
<!-- Generator: Adobe Illustrator 28.3.0, SVG Export Plug-In . SVG Version: 6.00 Build 0)  -->
<svg version="1.1" id="Layer_2_00000083773464030324483200000001128444085880378783_"
	 xmlns="http://www.w3.org/2000/svg" xmlns:xlink="http://www.w3.org/1999/xlink" x="0px" y="0px" viewBox="0 0 5588.6 594"
	 style="enable-background:new 0 0 5588.6 594;" xml:space="preserve">
<path d="M264.1,0c26.6-0.1,53.1,0,79.7,0.3c0.6,0.6,1.3,1.1,2.1,1.4c5.2,0.2,10.3,0.9,15.2,2.1c25.4,5.9,49.8,14.2,73.5,25
	c30.9,15.8,60.2,34.3,88,55.4c34.4,27.9,67.2,57.7,98.4,89.4c-26.9,28.9-53.9,57.6-81.1,86.3c-26.6-26.9-54.3-52.4-83.2-76.6
	c-25.6-20.6-53.6-37-83.9-49.2c-22.2-7.9-45.1-12.2-69-12.8c-60.4,1.4-108.4,26.6-144.1,75.5c-24.7,37.6-34.6,79.2-29.8,124.7
	c3.8,26.5,12.4,51.2,26,74.1c28.5,42.8,68,67.6,118.5,74.5c7.8,0.2,15.5,0.8,23.2,1.7c7.7-0.9,15.5-1.5,23.2-1.7
	c6.7-1.3,13.4-2.5,20.1-3.5c25.7-6.4,50.2-16.1,73.5-29.1c26.2-15.9,51-33.9,74.1-54c17.5-15.9,34.7-31.9,51.6-48.2
	c27.4,27.1,54.6,54.6,81.4,82.5c-34,35.5-70.5,68-109.5,97.4c-34.2,25.5-71.2,45.6-110.9,60.3c-9.9,3-19.8,6-29.8,9
	c-7.5,1-14.9,2.7-22.2,4.8c-5.9,1.2-11.9,1.9-18,2.1c-0.9,0.5-1.9,0.9-2.8,1.4c-25.9,0.5-51.7,0.5-77.6,0c-0.9-0.5-1.9-0.9-2.8-1.4
	C155,579,84.7,532.2,36.9,451.1C18.5,416.1,7,378.6,2.6,338.9c-11-91.7,13.7-172.1,74.2-241.2C127.3,44,188.9,12,261.5,1.7
	C262.5,1.4,263.4,0.8,264.1,0L264.1,0z"/>
<path d="M987.6,0c28.2-0.1,56.4,0,84.5,0.3c0.8,0.7,1.7,1.2,2.8,1.4c79.9,10.5,143.8,48.5,191.6,114c22.4,33.2,37.9,69.2,46.4,108.1
	c1.2,9.7,2.8,19.4,4.8,29.1c0.5,27.5,0.5,55,0,82.5c-13.5,86.3-56.3,155-128.6,206.2c-64.4,42.6-135.3,59.2-212.8,49.9
	c-5.6-0.3-11.2-1-16.6-2.1c-8.3-2.2-16.6-4.3-25-6.2c-31.8-10.2-62.1-24.1-90.8-41.6c-33.7-22.3-65.5-47-95.6-74.1
	c-17.5-16.4-34.9-33-52-49.9c27.9-28.1,55.5-56.4,82.8-84.9c29.6,30.3,60.9,58.6,93.9,84.9c19.6,14.4,40.4,26.6,62.4,36.7
	c14.9,6,30.1,10.6,45.7,13.9c54.4,9.3,103.1-3,146.2-36.7c48.9-43.9,69.3-98.5,61.3-163.9c-5.8-41.1-23.7-75.8-53.7-104.3
	c-40.1-33.9-86.5-47.3-139.3-40.2c-8.2,2-16.6,3.6-25,4.8c-35.2,10.4-67.8,26.3-97.7,47.8c-33.4,24.7-64.6,52.1-93.5,82.1
	c-27-27.4-54.2-54.6-81.4-81.8c-0.5-0.7-0.5-1.4,0-2.1c34-34.7,70.1-66.7,108.5-96c25.2-18.4,51.8-34.3,79.7-47.8
	c17.9-7.6,36.2-14.4,54.8-20.1c9-1.9,18.1-4,27-6.2c5.7-1.2,11.5-1.9,17.3-2.1C986.5,1.5,987.2,0.9,987.6,0L987.6,0z"/>
<path d="M4774.4,52.3c37.6,2.3,51.4,21.5,41.7,57.9c-14.9,19.9-33.8,24.6-56.8,13.9c-23.4-23-22.7-45.2,2.1-66.3
	C4766,55.8,4770.2,54.1,4774.4,52.3z"/>
<path d="M3811,453c-6.4-1.7-12.5-4.2-18.2-7.4c-17.3-15.8-25.6-35.3-24.6-58.9c-1-110-1.4-220-1-330h-66.5l0,0
	c0.3,57.2,0,114.3-1,171.5c-41.9-54.9-96.5-73.1-163.9-54.6c-84.2,28.4-128.5,87-132.9,175.7c4,93.9,51.1,154,141.4,180
	c75.7,15.1,136-8.1,181-69.6c12.6,42.6,41.2,64.1,85.7,64.3C3812.6,500.1,3812.6,476.6,3811,453z M3606.5,462.7
	c-69.6,6.1-114.3-24.3-133.9-91.1c-5.9-69.8,24.6-114.8,91.1-134.9c69.6-5,114.3,25.6,133.9,92.2
	C3703.6,398.4,3673.2,442.9,3606.5,462.7z"/>
<path d="M1521.5,73.6c117.1,104.5,233.9,209.4,350.3,314.9c1-105,1.4-209.9,1-314.9h70.7c0.7,155.7,0,311.5-2.1,467.2
	c-115.7-105.3-231.8-210.3-348.2-314.9c-1,98.6-1.4,197.1-1,295.7h-70.7V73.6z"/>
<path d="M2312.1,284.8c18.7-8.7,33.3-22,44-39.7c19.9-40.2,18.5-79.5-4.3-117.8c-25.6-31.2-58.9-48.7-99.6-52.5
	c-75.7-1-151.4-1.4-227.1-1v447.8c81.4,0.3,162.8,0,244.2-1c15.9-2.3,31.7-5.7,47.1-10.7c50.9-19.4,76.6-56.6,77.1-111.4
	C2394.8,339.7,2367.6,301.8,2312.1,284.8z M2317.5,405.9c-9.5,25.8-27.7,41.9-54.6,48.2c-9.2,1.9-18.5,3.3-27.9,4.3
	c-46.4,1-92.8,1.4-139.3,1V135.8l0,0c48-0.9,95.8,0.2,143.6,3.3c48.3,11.3,65.1,40.2,50.4,86.8c-12.8,17.7-30.3,27.4-52.5,28.9
	c-35.7,1-71.4,1.4-107.1,1V318c41.4-0.7,83,0.3,124.4,3.3C2303.3,328.8,2324.4,356.9,2317.5,405.9z"/>
<path d="M2451.6,73.6c79.3-0.3,158.5,0,237.8,1c70.3,13.2,112.1,54.9,125.4,125.4c9.4,59.9-8.1,110.3-52.5,151.1
	c-21.8,15.9-46.1,25.8-72.9,30c-44.3,1-88.5,1.4-132.9,1V320c37.1,0.3,74.3,0,111.4-1c63.9-17.3,88.5-58.4,74-123.2
	c-13.9-33.3-38.5-52.8-74-58.9c-48.5-1-97.2-1.4-145.7-1c-2.1,129.2-2.1,258.6,0,387.9h-70.7L2451.6,73.6L2451.6,73.6z"/>
<path d="M4551.4,97.4h66.5v75h85.7v66.3h-85.7c-0.3,44.3,0,88.5,1,132.9c-1,48.3,22.2,75.7,69.6,82.5c11.6,0.5,23,1.6,34.3,3.3
	c2.1,22,2.8,44.2,2.1,66.3c-47.5,3.3-90.9-7.8-130.8-33.3c-23-19.4-37.1-44-41.7-74c-1-59.2-1.4-118.5-1-177.9h-32.2v-66.3h32.2
	L4551.4,97.4L4551.4,97.4z"/>
<path d="M4333,163.7c56.5-6.2,106.4,8.3,150,44c12.1,11.8,22,24.9,30,39.7c-16.3,15.6-32.7,31.4-49.2,47.1
	c-33.1-56-81.1-74.1-143.6-54.6c-62.5,31.2-85.1,80.7-67.6,149c26.7,62,73.4,87.5,140.3,76c31.7-10,55.3-29.6,70.7-58.9
	c15.8,15.4,31.9,30.3,48.2,45c1.4,2.1,1.4,4.3,0,6.4c-43.5,61.7-103.2,87.8-178.9,78.3c-80.4-16.8-130.6-65-151.1-144.6
	c-15.6-97,19.7-168,106-213.2C4302.8,172,4317.7,167.3,4333,163.7L4333,163.7z"/>
<path d="M3361.2,249.5c-44.5-62.7-105.7-90.6-183.3-83.5c-24.8,4.9-48.3,13.7-70.7,26.9c-77.1,57-101,131.7-71.7,224
	c27.4,63.1,74.8,100.6,142.6,112.4c92.5,8.3,158.5-29.3,198.2-112.4C3396,358.4,3391,302.8,3361.2,249.5z M3265.7,445.5
	c-63.1,30.8-115.5,18.2-157.5-37.4c-30.8-63.1-18.2-115.5,37.4-157.5c12.5-6.9,25.3-12.3,38.6-16.1l0,0
	c50.6-5.5,90.3,12.3,118.8,53.5C3334,351,3321.5,403.6,3265.7,445.5z"/>
<path d="M5188.9,249.5c-44.5-62.7-105.7-90.6-183.3-83.5c-24.8,4.9-48.3,13.7-70.7,26.9c-77.1,57-101,131.7-71.7,224
	c27.4,63.1,74.8,100.6,142.6,112.4c92.5,8.3,158.5-29.3,198.2-112.4C5223.9,358.4,5218.9,302.8,5188.9,249.5z M5093.6,445.5
	c-63.1,30.8-115.5,18.2-157.5-37.4c-30.8-63.1-18.2-115.5,37.4-157.5c12.5-6.9,25.3-12.3,38.6-16.1l0,0
	c50.6-5.5,90.3,12.3,118.8,53.5C5161.9,351,5149.4,403.6,5093.6,445.5z"/>
<path d="M5389.3,166c66.5-9.4,122,10.6,166.1,59.9c17.8,24.3,28.6,51.4,32.2,81.4c1,71.4,1.4,142.9,1,214.3h-66.5
	c0.3-61.5,0-122.8-1-184.3c-1.6-66.9-35.3-101.2-101.9-102.9c-43.1-1.4-74.3,17.1-93.2,55.8c-5.5,15.2-8.5,30.8-8.5,47.1
	c-1,61.5-1.4,122.8-1,184.3H5250c-0.3-71.4,0-142.9,1-214.3C5265.1,228.5,5311.2,181.4,5389.3,166L5389.3,166z"/>
<path d="M2856.4,170.1h64.3c-0.3,12.8,0,25.8,1,38.6c9.4-13.5,21.8-23,37.4-28.9c24.9-8.3,50.8-11.6,77.1-9.7v68.6
	c-39.8-5.4-73.1,6.8-99.6,36.4c-8.3,13.2-12.5,27.4-12.8,42.8c-1,68.6-1.4,137.2-1,205.6h-66.5V170.1H2856.4z"/>
<path d="M3825.1,170.1h66.5c-0.3,61.5,0,122.8,1,184.3c6.4,77.1,48.2,111,125.4,101.9c52.5-13.2,78.6-47.1,78.1-101.9
	c1-61.5,1.4-122.8,1-184.3h66.5c0.3,71.4,0,142.9-1,214.3c-17.8,92.5-74,139.6-168.2,141.4c-94.2-1.7-150.4-48.8-168.2-141.4
	C3825.1,313,3824.7,241.7,3825.1,170.1L3825.1,170.1z"/>
<path d="M4748.5,170.1h64.3v351.5h-64.3V170.1z"/>
</svg>
