<?xml version="1.0" encoding="utf-8"?>
<!-- Generator: Adobe Illustrator 28.3.0, SVG Export Plug-In . SVG Version: 6.00 Build 0)  -->
<svg version="1.1" id="Layer_2_00000083773464030324483200000001128444085880378783_"
	 xmlns="http://www.w3.org/2000/svg" xmlns:xlink="http://www.w3.org/1999/xlink" x="0px" y="0px" viewBox="0 0 3824.7 594"
	 style="enable-background:new 0 0 3824.7 594;" xml:space="preserve">
<path d="M264.1,0c26.6-0.1,53.1,0,79.7,0.3c0.6,0.6,1.3,1.1,2.1,1.4c5.2,0.2,10.3,0.9,15.2,2.1c25.4,5.9,49.8,14.2,73.5,25
	c30.9,15.8,60.2,34.3,88,55.4c34.4,27.9,67.2,57.7,98.4,89.4c-26.9,28.9-53.9,57.6-81.1,86.3c-26.6-26.9-54.3-52.4-83.2-76.6
	c-25.6-20.6-53.6-37-83.9-49.2c-22.2-7.9-45.1-12.2-69-12.8c-60.4,1.4-108.4,26.6-144.1,75.5c-24.7,37.6-34.6,79.2-29.8,124.7
	c3.8,26.5,12.4,51.2,26,74.1c28.5,42.8,68,67.6,118.5,74.5c7.8,0.2,15.5,0.8,23.2,1.7c7.7-0.9,15.5-1.5,23.2-1.7
	c6.7-1.3,13.4-2.5,20.1-3.5c25.7-6.4,50.2-16.1,73.5-29.1c26.2-15.9,51-33.9,74.1-54c17.5-15.9,34.7-31.9,51.6-48.2
	c27.4,27.1,54.6,54.6,81.4,82.5c-34,35.5-70.5,68-109.5,97.4c-34.2,25.5-71.2,45.6-110.9,60.3c-9.9,3-19.8,6-29.8,9
	c-7.5,1-14.9,2.7-22.2,4.8c-5.9,1.2-11.9,1.9-18,2.1c-0.9,0.5-1.9,0.9-2.8,1.4c-25.9,0.5-51.7,0.5-77.6,0c-0.9-0.5-1.9-0.9-2.8-1.4
	c-92.9-12.4-163.2-59.2-211-140.3C18.5,416.1,7,378.6,2.6,338.9c-11-91.7,13.7-172.1,74.2-241.2c50.5-53.7,112.1-85.7,184.7-96
	C262.5,1.4,263.4,0.8,264.1,0L264.1,0z"/>
<path d="M987.6,0c28.2-0.1,56.4,0,84.5,0.3c0.8,0.7,1.7,1.2,2.8,1.4c79.9,10.5,143.8,48.5,191.6,114c22.4,33.2,37.9,69.2,46.4,108.1
	c1.2,9.7,2.8,19.4,4.8,29.1c0.5,27.5,0.5,55,0,82.5c-13.5,86.3-56.3,155-128.6,206.2c-64.4,42.6-135.3,59.2-212.8,49.9
	c-5.6-0.3-11.2-1-16.6-2.1c-8.3-2.2-16.6-4.3-25-6.2c-31.8-10.2-62.1-24.1-90.8-41.6c-33.7-22.3-65.5-47-95.6-74.1
	c-17.5-16.4-34.9-33-52-49.9c27.9-28.1,55.5-56.4,82.8-84.9c29.6,30.3,60.9,58.6,93.9,84.9c19.6,14.4,40.4,26.6,62.4,36.7
	c14.9,6,30.1,10.6,45.7,13.9c54.4,9.3,103.1-3,146.2-36.7c48.9-43.9,69.3-98.5,61.3-163.9c-5.8-41.1-23.7-75.8-53.7-104.3
	c-40.1-33.9-86.5-47.3-139.3-40.2c-8.2,2-16.6,3.6-25,4.8c-35.2,10.4-67.8,26.3-97.7,47.8c-33.4,24.7-64.6,52.1-93.5,82.1
	c-27-27.4-54.2-54.6-81.4-81.8c-0.5-0.7-0.5-1.4,0-2.1c34-34.7,70.1-66.7,108.5-96c25.2-18.4,51.8-34.3,79.7-47.8
	c17.9-7.6,36.2-14.4,54.8-20.1c9-1.9,18.1-4,27-6.2c5.7-1.2,11.5-1.9,17.3-2.1C986.5,1.5,987.2,0.9,987.6,0L987.6,0z"/>
<path d="M3354.6,16.2c21.7,1.3,29.7,12.4,24.1,33.4c-8.6,11.5-19.5,14.2-32.8,8c-13.5-13.3-13.1-26.1,1.2-38.3
	C3349.8,18.2,3352.2,17.2,3354.6,16.2z"/>
<path d="M2798.5,247.5c-3.7-1-7.2-2.4-10.5-4.3c-10-9.1-14.8-20.4-14.2-34c-0.6-63.5-0.8-127-0.6-190.5h-38.4l0,0
	c0.2,33,0,66-0.6,99c-24.2-31.7-55.7-42.2-94.6-31.5c-48.6,16.4-74.2,50.2-76.7,101.4c2.3,54.2,29.5,88.9,81.6,103.9
	c43.7,8.7,78.5-4.7,104.5-40.2c7.3,24.6,23.8,37,49.5,37.1C2799.4,274.7,2799.4,261.1,2798.5,247.5z M2680.4,253.1
	c-40.2,3.5-66-14-77.3-52.6c-3.4-40.3,14.2-66.3,52.6-77.9c40.2-2.9,66,14.8,77.3,53.2C2736.5,216,2718.9,241.7,2680.4,253.1z"/>
<path d="M1476.8,28.5c67.6,60.3,135,120.9,202.2,181.8c0.6-60.6,0.8-121.2,0.6-181.8h40.8c0.4,89.9,0,179.8-1.2,269.7
	c-66.8-60.8-133.8-121.4-201-181.8c-0.6,56.9-0.8,113.8-0.6,170.7h-40.8V28.5z"/>
<path d="M1933.2,150.4c10.8-5,19.2-12.7,25.4-22.9c11.5-23.2,10.7-45.9-2.5-68c-14.8-18-34-28.1-57.5-30.3
	c-43.7-0.6-87.4-0.8-131.1-0.6v258.5c47,0.2,94,0,141-0.6c9.2-1.3,18.3-3.3,27.2-6.2c29.4-11.2,44.2-32.7,44.5-64.3
	C1980.9,182.1,1965.2,160.2,1933.2,150.4z M1936.3,220.3c-5.5,14.9-16,24.2-31.5,27.8c-5.3,1.1-10.7,1.9-16.1,2.5
	c-26.8,0.6-53.6,0.8-80.4,0.6V64.4h0c27.7-0.5,55.3,0.1,82.9,1.9c27.9,6.5,37.6,23.2,29.1,50.1c-7.4,10.2-17.5,15.8-30.3,16.7
	c-20.6,0.6-41.2,0.8-61.8,0.6v35.9c23.9-0.4,47.9,0.2,71.8,1.9C1928.1,175.8,1940.3,192,1936.3,220.3z"/>
<path d="M2013.7,28.5c45.8-0.2,91.5,0,137.3,0.6c40.6,7.6,64.7,31.7,72.4,72.4c5.4,34.6-4.7,63.7-30.3,87.2
	c-12.6,9.2-26.6,14.9-42.1,17.3c-25.6,0.6-51.1,0.8-76.7,0.6v-35.9c21.4,0.2,42.9,0,64.3-0.6c36.9-10,51.1-33.7,42.7-71.1
	c-8-19.2-22.2-30.5-42.7-34c-28-0.6-56.1-0.8-84.1-0.6c-1.2,74.6-1.2,149.3,0,223.9h-40.8L2013.7,28.5L2013.7,28.5z"/>
<path d="M3225.9,42.2h38.4v43.3h49.5v38.3h-49.5c-0.2,25.6,0,51.1,0.6,76.7c-0.6,27.9,12.8,43.7,40.2,47.6
	c6.7,0.3,13.3,0.9,19.8,1.9c1.2,12.7,1.6,25.5,1.2,38.3c-27.4,1.9-52.5-4.5-75.5-19.2c-13.3-11.2-21.4-25.4-24.1-42.7
	c-0.6-34.2-0.8-68.4-0.6-102.7h-18.6V85.4h18.6V42.2L3225.9,42.2z"/>
<path d="M3099.8,80.5c32.6-3.6,61.4,4.8,86.6,25.4c7,6.8,12.7,14.4,17.3,22.9c-9.4,9-18.9,18.1-28.4,27.2
	c-19.1-32.3-46.8-42.8-82.9-31.5c-36.1,18-49.1,46.6-39,86c15.4,35.8,42.4,50.5,81,43.9c18.3-5.8,31.9-17.1,40.8-34
	c9.1,8.9,18.4,17.5,27.8,26c0.8,1.2,0.8,2.5,0,3.7c-25.1,35.6-59.6,50.7-103.3,45.2c-46.4-9.7-75.4-37.5-87.2-83.5
	c-9-56,11.4-97,61.2-123.1C3082.4,85.3,3091,82.6,3099.8,80.5L3099.8,80.5z"/>
<path d="M2538.8,130c-25.7-36.2-61-52.3-105.8-48.2c-14.3,2.8-27.9,7.9-40.8,15.5c-44.5,32.9-58.3,76-41.4,129.3
	c15.8,36.4,43.2,58.1,82.3,64.9c53.4,4.8,91.5-16.9,114.4-64.9C2558.9,192.9,2556,160.8,2538.8,130z M2483.7,243.2
	c-36.4,17.8-66.7,10.5-90.9-21.6c-17.8-36.4-10.5-66.7,21.6-90.9c7.2-4,14.6-7.1,22.3-9.3v0c29.2-3.2,52.1,7.1,68.6,30.9
	C2523.1,188.6,2515.9,219,2483.7,243.2z"/>
<path d="M3593.9,130c-25.7-36.2-61-52.3-105.8-48.2c-14.3,2.8-27.9,7.9-40.8,15.5c-44.5,32.9-58.3,76-41.4,129.3
	c15.8,36.4,43.2,58.1,82.3,64.9c53.4,4.8,91.5-16.9,114.4-64.9C3614.1,192.9,3611.2,160.8,3593.9,130z M3538.9,243.2
	c-36.4,17.8-66.7,10.5-90.9-21.6c-17.8-36.4-10.5-66.7,21.6-90.9c7.2-4,14.6-7.1,22.3-9.3v0c29.2-3.2,52.1,7.1,68.6,30.9
	C3578.3,188.6,3571.1,219,3538.9,243.2z"/>
<path d="M3709.6,81.8c38.4-5.4,70.4,6.1,95.9,34.6c10.3,14,16.5,29.7,18.6,47c0.6,41.2,0.8,82.5,0.6,123.7h-38.4
	c0.2-35.5,0-70.9-0.6-106.4c-0.9-38.6-20.4-58.4-58.8-59.4c-24.9-0.8-42.9,9.9-53.8,32.2c-3.2,8.8-4.9,17.8-4.9,27.2
	c-0.6,35.5-0.8,70.9-0.6,106.4h-38.4c-0.2-41.2,0-82.5,0.6-123.7C3637.9,117.9,3664.5,90.7,3709.6,81.8L3709.6,81.8z"/>
<path d="M2247.4,84.2h37.1c-0.2,7.4,0,14.9,0.6,22.3c5.4-7.8,12.6-13.3,21.6-16.7c14.4-4.8,29.3-6.7,44.5-5.6v39.6
	c-23-3.1-42.2,3.9-57.5,21c-4.8,7.6-7.2,15.8-7.4,24.7c-0.6,39.6-0.8,79.2-0.6,118.7h-38.4V84.2z"/>
<path d="M2806.6,84.2h38.4c-0.2,35.5,0,70.9,0.6,106.4c3.7,44.5,27.8,64.1,72.4,58.8c30.3-7.6,45.4-27.2,45.1-58.8
	c0.6-35.5,0.8-70.9,0.6-106.4h38.4c0.2,41.2,0,82.5-0.6,123.7c-10.3,53.4-42.7,80.6-97.1,81.6c-54.4-1-86.8-28.2-97.1-81.6
	C2806.6,166.7,2806.4,125.5,2806.6,84.2L2806.6,84.2z"/>
<path d="M3339.7,84.2h37.1v202.9h-37.1V84.2z"/>
<path d="M2241.2,373.1c22.3-1.9,42.1,4.1,59.2,18.1c0.5-5,0.7-10,0.5-14.9h105.7v25.6h-39.5v120.6h-26.7V401.9
	c-12.1-0.2-24.2,0-36.3,0.5c-4.8,5-9.8,9.8-14.9,14.4c-18.1-19.1-39.1-22.9-63-11.2c-25,18.4-30.9,41.7-17.6,69.9
	c18.8,25.9,42.4,31.4,71,16.5c4.1-2.7,7.5-6.1,10.1-10.1c6.3,5.9,12.1,12.1,17.6,18.7c-8.7,10.8-19.7,18.3-33.1,22.4
	c-42.1,9.3-72.9-5.1-92.3-43.2c-12.7-35.6-5-66,22.9-91.3C2215.8,380.4,2227.9,375.3,2241.2,373.1L2241.2,373.1z"/>
<path d="M1478,376.3v145.2h26.7c-9,1.1-18.3,1.4-27.8,1.1C1476.6,473.6,1476.9,424.9,1478,376.3L1478,376.3z"/>
<path d="M2758.9,376.3c0.4,50.7,0,101.2-1.1,151.6c-35.6-31-71.2-61.9-106.7-92.9c-0.1-0.6-0.4-0.9-1.1-1.1
	c-1.1,29.2-1.4,58.3-1.1,87.5h-26.7c-0.4-48,0-96.1,1.1-144.1c36,31.5,72.1,62.8,108.3,93.9c0.5-31.7,0.7-63.3,0.5-95L2758.9,376.3
	L2758.9,376.3z"/>
<path d="M2758.9,376.3c1.4,50.7,1.4,101.6,0,152.6c-0.7-0.1-1-0.5-1.1-1.1C2758.9,477.6,2759.3,427,2758.9,376.3L2758.9,376.3z"/>
<path d="M2045.9,377.4h25.6c-0.4,30.4,0,60.7,1.1,90.7c3,22.3,15.8,32.1,38.4,29.4c13-3,21-11,24-24c0.5-32,0.7-64,0.5-96.1h25.6v95
	c-2.8,28.9-18.4,46.2-47,51.8c-34.4,3.9-56.6-10.5-66.7-43.2C2046,446.4,2045.4,411.9,2045.9,377.4L2045.9,377.4z"/>
<path d="M2045.9,377.4c8.7-1.1,17.6-1.4,26.7-1.1v91.8c-1.1-30.1-1.4-60.3-1.1-90.7L2045.9,377.4L2045.9,377.4z"/>
<path d="M2135.6,377.4c8.7-1.1,17.6-1.4,26.7-1.1c0.4,32.2,0,64.2-1.1,96.1v-95H2135.6L2135.6,377.4z"/>
<path d="M2413.1,376.3h26.7v146.2h-26.7V376.3L2413.1,376.3z"/>
<path d="M2809.1,378.5c9.4-1.1,19-1.4,28.8-1.1c16.2,30.9,32.9,61.5,50.2,91.8c16.7-30.6,33.4-61.2,50.2-91.8
	c16.7-1.1,33.4-1.4,50.2-1.1v146.2h-26.7c0.2-44.5,0-89-0.5-133.4c-24.1,44.3-48.5,88.4-73.1,132.4
	C2861.2,474.2,2834.9,426.5,2809.1,378.5L2809.1,378.5z"/>
<path d="M3158.2,376.3h104.6v23.5h-77.9v37.4h68.3v23.5h-68.3v38.4h77.9v23.5h-104.6V376.3L3158.2,376.3z"/>
<path d="M1560.2,377.9c-27.3-1.5-54.7-2.1-82.2-1.6v145.2h26.7v-42.7c18.5,0.4,37-0.1,55.5-1.6c24.8-7.6,37.3-24.5,37.4-50.7
	C1596,401.9,1583.6,385.7,1560.2,377.9L1560.2,377.9z M1566.1,443.6c-3.5,4.6-8,8-13.3,10.1c-16,1.5-32,2.1-48,1.6v-55.5
	c16.1-0.5,32.1,0.1,48,1.6C1570.8,410.9,1575.3,425,1566.1,443.6z"/>
<path d="M1699,475.6c24.1-13.8,33.6-34.4,28.3-61.9c-6.7-22-21.5-34.3-44.3-36.8c-23.8-0.5-47.7-0.7-71.5-0.5v146.2h26.7v-43.8
	c10.7-0.2,21.4,0,32,0.5c10,14.2,19.9,28.5,29.9,42.7c10.3,0.9,20.7,0.7,31-0.5C1720.3,506.2,1709.6,490.9,1699,475.6L1699,475.6z
	 M1678.7,454.8c-13.5,0.5-27,0.7-40.6,0.5v-55.5c14.2-0.2,28.5,0,42.7,0.5c20.6,8.6,26.1,23,16.5,43.2
	C1692.7,449.9,1686.5,453.6,1678.7,454.8L1678.7,454.8z"/>
<path d="M1884.2,422.2c-15.9-34.7-43.1-51.1-81.7-49.1c-35.2,6.9-57.1,27.9-65.6,63c-4,39.6,11.9,67.9,47.5,84.9
	c33.7,11.1,62.7,3.8,87-21.9C1889,475.8,1893.3,450.2,1884.2,422.2L1884.2,422.2z M1796.1,496.4c-25.8-12-36.3-32.1-31.5-60.3
	c6.8-19.4,20.2-31.6,40-36.3c37.8,0.2,56.8,19.1,57.1,56.6C1852.5,490.3,1830.6,503.6,1796.1,496.4L1796.1,496.4z"/>
<path d="M2604.7,422.2c-15.9-34.7-43.1-51.1-81.7-49.1c-35.2,6.9-57.1,27.9-65.6,63c-4,39.6,11.9,67.9,47.5,84.9
	c33.7,11.1,62.7,3.8,87-21.9C2609.6,475.8,2613.8,450.2,2604.7,422.2L2604.7,422.2z M2516.6,496.4c-25.8-12-36.3-32.1-31.5-60.3
	c6.8-19.4,20.2-31.6,40-36.3c37.8,0.2,56.8,19.1,57.1,56.6C2573,490.3,2551.1,503.6,2516.6,496.4L2516.6,496.4z"/>
<path d="M3418.1,422.2c-15.9-34.7-43.1-51.1-81.7-49.1c-35.2,6.9-57.1,27.9-65.6,63c-4,39.6,11.9,67.9,47.5,84.9
	c33.7,11.1,62.7,3.8,87-21.9C3422.9,475.8,3427.2,450.2,3418.1,422.2L3418.1,422.2z M3330,496.4c-25.8-12-36.3-32.1-31.5-60.3
	c6.8-19.4,20.2-31.6,40-36.3c37.8,0.2,56.8,19.1,57.1,56.6C3386.4,490.3,3364.5,503.6,3330,496.4L3330,496.4z"/>
<path d="M1970.1,376.9c-22.1-0.5-44.1-0.7-66.2-0.5v146.2c22.4,0.2,44.8,0,67.2-0.5c39.6-9.2,59.9-34.3,60.8-75.3
	C2030.7,406.2,2010.1,382.9,1970.1,376.9L1970.1,376.9z M1963.7,496.4c-11,0.5-22.1,0.7-33.1,0.5v-95c11-0.2,22.1,0,33.1,0.5
	c25.6,4.1,39.2,19.2,40.6,45.4C2003.7,474.9,1990.2,491.1,1963.7,496.4L1963.7,496.4z"/>
<path d="M3081.3,376.9c-22.1-0.5-44.1-0.7-66.2-0.5v146.2c22.4,0.2,44.8,0,67.2-0.5c39.6-9.2,59.9-34.3,60.8-75.3
	C3141.9,406.2,3121.3,382.9,3081.3,376.9L3081.3,376.9z M3074.9,496.4c-11,0.5-22.1,0.7-33.1,0.5v-95c11-0.2,22.1,0,33.1,0.5
	c25.6,4.1,39.2,19.2,40.6,45.4C3114.9,474.9,3101.4,491.1,3074.9,496.4L3074.9,496.4z"/>
<path d="M2651.1,435c-1.1,29-1.4,58.2-1.1,87.5c-9.4,0.4-18.7,0-27.8-1.1h26.7c-0.4-29.2,0-58.4,1.1-87.5
	C2650.7,434.1,2651,434.4,2651.1,435L2651.1,435z"/>
</svg>
