<?xml version="1.0" encoding="UTF-8"?>
<svg id="Layer_2" data-name="Layer 2" xmlns="http://www.w3.org/2000/svg" viewBox="0 0 327.78 148.96">
  <defs>
    <style>
      .cls-1 {
        fill: none;
        stroke: #fff;
        stroke-miterlimit: 10;
        stroke-width: 2px;
      }
    </style>
  </defs>
  <g id="Layer_2-2" data-name="Layer 2">
    <g id="Layer_1-2" data-name="Layer 1-2">
      <g>
        <path class="cls-1" d="M133.26,84.75c7.54,7.03,14.3,13.34,21.28,19.84-20.63,20.29-41.67,39.06-71.57,42.71-41.87,5.11-73.14-19.76-80.41-56.2C-5.38,51.37,17.69,13.26,56.65,3.47c23.24-5.84,44.71-1.12,64.44,12.23,12,8.12,22.61,17.82,33.13,28.32-6.59,7-13.07,13.89-19.81,21.06-2.96-2.84-5.71-5.52-8.5-8.16-10.08-9.51-20.63-18.24-33.9-23.17-16.52-6.15-36.1-1.75-47.71,11.07-12.39,13.69-15.05,33.62-7.43,49.78,9.89,20.99,33.94,28.48,56.51,19.73,14.84-5.75,26.55-15.93,37.77-26.79,1.06-1.03,1.81-2.38,2.11-2.77v-.02Z"/>
        <path class="cls-1" d="M173.25,104.51c7.35-7.07,14.01-13.47,20.67-19.88,6.6,5.9,13.13,12.13,20.07,17.85,10.02,8.25,21.17,14.32,34.43,15.52,30.94,2.82,54.09-26.21,45.54-57.11-5.89-21.29-26.5-33.53-49.22-29.23-14.4,2.73-26.15,10.5-37.03,19.78-4.74,4.05-9.25,8.4-13.74,12.49-6.56-6.45-13.05-12.84-19.71-19.38,3.46-3.48,6.75-7.03,10.29-10.31,12.98-11.98,26.76-23.04,43.87-28.37,28.57-8.89,55.39-6.36,77.93,15.32,12.93,12.43,19.17,28.22,20.2,46.06.79,13.83-.41,27.37-7.23,39.8-14.04,25.61-35.51,39.22-64.9,40.51-22.39.98-40.57-8.58-57.28-21.91-8.1-6.46-15.57-13.71-23.91-21.13h0Z"/>
      </g>
    </g>
  </g>
</svg>