<?xml version="1.0" encoding="UTF-8"?>
<!DOCTYPE svg PUBLIC "-//W3C//DTD SVG 1.1//EN" "http://www.w3.org/Graphics/SVG/1.1/DTD/svg11.dtd">
<svg xmlns="http://www.w3.org/2000/svg" version="1.1" width="2500px" height="2500px" style="shape-rendering:geometricPrecision; text-rendering:geometricPrecision; image-rendering:optimizeQuality; fill-rule:evenodd; clip-rule:evenodd" xmlns:xlink="http://www.w3.org/1999/xlink">
<g><path style="opacity:1" fill="#3800a9" d="M 679.5,586.5 C 717.835,586.333 756.168,586.5 794.5,587C 795.328,587.915 796.328,588.581 797.5,589C 805.031,589.234 812.364,590.234 819.5,592C 856.084,600.509 891.417,612.509 925.5,628C 970.087,650.791 1012.42,677.458 1052.5,708C 1102.14,748.206 1149.48,791.206 1194.5,837C 1155.66,878.677 1116.66,920.177 1077.5,961.5C 1039.18,922.67 999.177,885.837 957.5,851C 920.481,821.337 880.148,797.67 836.5,780C 804.522,768.543 771.355,762.377 737,761.5C 649.916,763.556 580.583,799.89 529,870.5C 493.394,924.834 479.061,984.834 486,1050.5C 491.462,1088.67 503.962,1124.34 523.5,1157.5C 564.632,1219.23 621.632,1255.07 694.5,1265C 705.709,1265.34 716.875,1266.18 728,1267.5C 739.125,1266.18 750.291,1265.34 761.5,1265C 771.201,1263.09 780.868,1261.43 790.5,1260C 827.606,1250.7 862.939,1236.7 896.5,1218C 934.383,1195.13 970.05,1169.13 1003.5,1140C 1028.7,1117.13 1053.53,1093.96 1078,1070.5C 1117.59,1109.59 1156.75,1149.26 1195.5,1189.5C 1146.49,1240.78 1093.82,1287.61 1037.5,1330C 988.151,1366.75 934.818,1395.75 877.5,1417C 863.209,1421.33 848.876,1425.66 834.5,1430C 823.688,1431.52 813.021,1433.85 802.5,1437C 794.02,1438.75 785.354,1439.75 776.5,1440C 775.167,1440.67 773.833,1441.33 772.5,1442C 735.167,1442.67 697.833,1442.67 660.5,1442C 659.167,1441.33 657.833,1440.67 656.5,1440C 522.479,1422.07 420.979,1354.57 352,1237.5C 325.001,1186.8 308.335,1132.8 302,1075.5C 286.093,943.149 321.759,827.149 409,727.5C 481.976,650.011 570.809,603.844 675.5,589C 677.066,588.392 678.4,587.558 679.5,586.5 Z"/></g>
<g><path style="opacity:1" fill="#0b37e2" d="M 1723.5,586.5 C 1764.17,586.333 1804.83,586.5 1845.5,587C 1846.62,588.044 1847.96,588.71 1849.5,589C 1964.8,604.178 2056.97,659.011 2126,753.5C 2158.3,801.403 2180.63,853.403 2193,909.5C 2194.68,923.558 2197.01,937.558 2200,951.5C 2200.67,991.167 2200.67,1030.83 2200,1070.5C 2180.56,1195.05 2118.72,1294.22 2014.5,1368C 1921.63,1429.44 1819.3,1453.44 1707.5,1440C 1699.39,1439.6 1691.39,1438.6 1683.5,1437C 1671.55,1433.84 1659.55,1430.84 1647.5,1428C 1601.54,1413.24 1557.87,1393.24 1516.5,1368C 1467.94,1335.79 1421.94,1300.12 1378.5,1261C 1353.17,1237.34 1328.17,1213.34 1303.5,1189C 1343.7,1148.47 1383.53,1107.64 1423,1066.5C 1465.73,1110.23 1510.89,1151.07 1558.5,1189C 1586.84,1209.72 1616.84,1227.38 1648.5,1242C 1669.94,1250.68 1691.94,1257.35 1714.5,1262C 1792.95,1275.39 1863.29,1257.73 1925.5,1209C 1996.04,1145.73 2025.54,1066.9 2014,972.5C 2005.6,913.262 1979.77,863.096 1936.5,822C 1878.66,773.127 1811.66,753.794 1735.5,764C 1723.61,766.897 1711.61,769.23 1699.5,771C 1648.73,785.944 1601.73,808.944 1558.5,840C 1510.33,875.659 1465.33,915.159 1423.5,958.5C 1384.51,919.014 1345.35,879.68 1306,840.5C 1305.33,839.5 1305.33,838.5 1306,837.5C 1354.99,787.474 1407.15,741.308 1462.5,699C 1498.93,672.512 1537.27,649.512 1577.5,630C 1603.36,618.955 1629.69,609.289 1656.5,601C 1669.56,598.243 1682.56,595.243 1695.5,592C 1703.71,590.29 1712.04,589.29 1720.5,589C 1721.94,588.623 1722.94,587.79 1723.5,586.5 Z"/></g>
<g><path style="opacity:0.937" fill="#3800a9" d="M 1820.5,1494.5 C 1838.04,1495.54 1844.54,1504.54 1840,1521.5C 1833.06,1530.83 1824.23,1533 1813.5,1528C 1802.57,1517.25 1802.91,1506.92 1814.5,1497C 1816.61,1496.16 1818.61,1495.32 1820.5,1494.5 Z"/></g>
<g><path style="opacity:0.971" fill="#3800a9" d="M 1319.5,1496.5 C 1329.83,1496.5 1340.17,1496.5 1350.5,1496.5C 1350.33,1547.83 1350.5,1599.17 1351,1650.5C 1350.58,1661.49 1354.41,1670.65 1362.5,1678C 1365.21,1679.55 1368.04,1680.71 1371,1681.5C 1371.67,1692.5 1371.67,1703.5 1371,1714.5C 1350.26,1714.43 1336.92,1704.43 1331,1684.5C 1309.95,1713.19 1281.78,1724.03 1246.5,1717C 1204.33,1704.83 1182.33,1676.83 1180.5,1633C 1182.54,1591.59 1203.21,1564.25 1242.5,1551C 1273.97,1542.39 1299.47,1550.89 1319,1576.5C 1319.5,1549.84 1319.67,1523.17 1319.5,1496.5 Z M 1255.5,1580.5 C 1287.99,1578.14 1308.82,1592.48 1318,1623.5C 1320.84,1656.01 1306.67,1676.84 1275.5,1686C 1242.99,1688.84 1222.16,1674.67 1213,1643.5C 1210.28,1610.9 1224.45,1589.9 1255.5,1580.5 Z"/></g>
<g><path style="opacity:1" fill="#0b37e2" d="M 302.5,1504.5 C 357.109,1553.27 411.609,1602.27 466,1651.5C 466.5,1602.5 466.667,1553.5 466.5,1504.5C 477.5,1504.5 488.5,1504.5 499.5,1504.5C 499.833,1577.17 499.5,1649.84 498.5,1722.5C 444.483,1673.32 390.316,1624.32 336,1575.5C 335.5,1621.5 335.333,1667.5 335.5,1713.5C 324.5,1713.5 313.5,1713.5 302.5,1713.5C 302.5,1643.83 302.5,1574.17 302.5,1504.5 Z"/></g>
<g><path style="opacity:1" fill="#0b37e2" d="M 537.5,1504.5 C 572.835,1504.33 608.168,1504.5 643.5,1505C 662.531,1506.76 678.031,1514.93 690,1529.5C 700.623,1547.39 701.289,1565.72 692,1584.5C 687.061,1592.77 680.228,1598.94 671.5,1603C 697.345,1610.97 710.012,1628.63 709.5,1656C 709.253,1681.56 697.253,1698.9 673.5,1708C 666.312,1710.3 658.978,1711.96 651.5,1713C 613.501,1713.5 575.501,1713.67 537.5,1713.5C 537.5,1643.83 537.5,1574.17 537.5,1504.5 Z M 570.5,1533.5 C 592.868,1533.08 615.202,1533.58 637.5,1535C 660.039,1540.27 667.872,1553.77 661,1575.5C 654.992,1583.76 646.825,1588.26 636.5,1589C 619.837,1589.5 603.17,1589.67 586.5,1589.5C 586.5,1599.17 586.5,1608.83 586.5,1618.5C 605.857,1618.19 625.191,1618.69 644.5,1620C 667.323,1623.49 677.156,1636.65 674,1659.5C 669.593,1671.57 661.093,1679.07 648.5,1682C 644.205,1682.91 639.872,1683.58 635.5,1684C 613.836,1684.5 592.169,1684.67 570.5,1684.5C 570.5,1634.17 570.5,1583.83 570.5,1533.5 Z"/></g>
<g><path style="opacity:1" fill="#0b37e2" d="M 736.5,1504.5 C 773.502,1504.33 810.502,1504.5 847.5,1505C 880.333,1511.17 899.833,1530.67 906,1563.5C 910.342,1591.48 902.175,1614.98 881.5,1634C 871.354,1641.4 860.021,1646.07 847.5,1648C 826.836,1648.5 806.169,1648.67 785.5,1648.5C 785.5,1638.83 785.5,1629.17 785.5,1619.5C 802.837,1619.67 820.17,1619.5 837.5,1619C 867.29,1610.93 878.79,1591.77 872,1561.5C 865.507,1546 854.007,1536.84 837.5,1534C 814.836,1533.5 792.169,1533.33 769.5,1533.5C 768.492,1593.84 768.492,1654.17 769.5,1714.5C 758.5,1714.5 747.5,1714.5 736.5,1714.5C 736.5,1644.5 736.5,1574.5 736.5,1504.5 Z"/></g>
<g><path style="opacity:0.983" fill="#3800a9" d="M 1716.5,1515.5 C 1726.83,1515.5 1737.17,1515.5 1747.5,1515.5C 1747.5,1527.17 1747.5,1538.83 1747.5,1550.5C 1760.83,1550.5 1774.17,1550.5 1787.5,1550.5C 1787.5,1560.83 1787.5,1571.17 1787.5,1581.5C 1774.17,1581.5 1760.83,1581.5 1747.5,1581.5C 1747.33,1602.17 1747.5,1622.84 1748,1643.5C 1747.49,1666.02 1758.33,1678.86 1780.5,1682C 1785.89,1682.21 1791.22,1682.71 1796.5,1683.5C 1797.5,1693.81 1797.83,1704.15 1797.5,1714.5C 1775.37,1716.05 1755.04,1710.88 1736.5,1699C 1725.73,1689.96 1719.23,1678.46 1717,1664.5C 1716.5,1636.84 1716.33,1609.17 1716.5,1581.5C 1711.5,1581.5 1706.5,1581.5 1701.5,1581.5C 1701.5,1571.17 1701.5,1560.83 1701.5,1550.5C 1706.5,1550.5 1711.5,1550.5 1716.5,1550.5C 1716.5,1538.83 1716.5,1527.17 1716.5,1515.5 Z"/></g>
<g><path style="opacity:0.96" fill="#3800a9" d="M 1614.5,1546.5 C 1640.83,1543.56 1664.16,1550.39 1684.5,1567C 1690.13,1572.46 1694.79,1578.62 1698.5,1585.5C 1690.86,1592.81 1683.19,1600.14 1675.5,1607.5C 1660.02,1581.39 1637.69,1572.89 1608.5,1582C 1579.31,1596.53 1568.81,1619.7 1577,1651.5C 1589.43,1680.47 1611.27,1692.3 1642.5,1687C 1657.33,1682.33 1668.33,1673.16 1675.5,1659.5C 1682.85,1666.68 1690.35,1673.68 1698,1680.5C 1698.67,1681.5 1698.67,1682.5 1698,1683.5C 1677.69,1712.29 1649.86,1724.45 1614.5,1720C 1577.01,1712.18 1553.51,1689.68 1544,1652.5C 1536.71,1607.24 1553.21,1574.08 1593.5,1553C 1600.47,1550.35 1607.47,1548.18 1614.5,1546.5 Z"/></g>
<g><path style="opacity:0.964" fill="#3800a9" d="M 1075.5,1547.5 C 1111.7,1544.19 1140.2,1557.19 1161,1586.5C 1174.97,1611.39 1177.31,1637.39 1168,1664.5C 1149.47,1703.35 1118.64,1720.85 1075.5,1717C 1043.94,1711.44 1021.77,1693.94 1009,1664.5C 995.35,1621.46 1006.52,1586.62 1042.5,1560C 1052.92,1553.92 1063.92,1549.76 1075.5,1547.5 Z M 1078.5,1579.5 C 1102.09,1576.88 1120.59,1585.22 1134,1604.5C 1148.35,1633.93 1142.52,1658.43 1116.5,1678C 1087.07,1692.35 1062.57,1686.52 1043,1660.5C 1028.65,1631.07 1034.48,1606.57 1060.5,1587C 1066.33,1583.79 1072.33,1581.29 1078.5,1579.5 Z"/></g>
<g><path style="opacity:0.964" fill="#3800a9" d="M 1928.5,1547.5 C 1964.7,1544.19 1993.2,1557.19 2014,1586.5C 2027.97,1611.39 2030.31,1637.39 2021,1664.5C 2002.47,1703.35 1971.64,1720.85 1928.5,1717C 1896.94,1711.44 1874.77,1693.94 1862,1664.5C 1848.35,1621.46 1859.52,1586.62 1895.5,1560C 1905.92,1553.92 1916.92,1549.76 1928.5,1547.5 Z M 1931.5,1579.5 C 1955.09,1576.88 1973.59,1585.22 1987,1604.5C 2001.35,1633.93 1995.52,1658.43 1969.5,1678C 1940.07,1692.35 1915.57,1686.52 1896,1660.5C 1881.65,1631.07 1887.48,1606.57 1913.5,1587C 1919.33,1583.79 1925.33,1581.29 1931.5,1579.5 Z"/></g>
<g><path style="opacity:0.978" fill="#3800a9" d="M 2107.5,1547.5 C 2138.54,1543.12 2164.37,1552.45 2185,1575.5C 2193.32,1586.82 2198.32,1599.49 2200,1613.5C 2200.5,1646.83 2200.67,1680.17 2200.5,1713.5C 2190.17,1713.5 2179.83,1713.5 2169.5,1713.5C 2169.67,1684.83 2169.5,1656.16 2169,1627.5C 2168.31,1596.31 2152.47,1580.31 2121.5,1579.5C 2101.33,1578.83 2086.83,1587.5 2078,1605.5C 2075.38,1612.59 2074.05,1619.93 2074,1627.5C 2073.5,1656.16 2073.33,1684.83 2073.5,1713.5C 2063.17,1713.5 2052.83,1713.5 2042.5,1713.5C 2042.33,1680.17 2042.5,1646.83 2043,1613.5C 2049.59,1576.74 2071.09,1554.74 2107.5,1547.5 Z"/></g>
<g><path style="opacity:0.978" fill="#3800a9" d="M 925.5,1549.5 C 935.5,1549.5 945.5,1549.5 955.5,1549.5C 955.334,1555.51 955.501,1561.51 956,1567.5C 960.401,1561.21 966.235,1556.71 973.5,1554C 985.181,1550.11 997.181,1548.61 1009.5,1549.5C 1009.5,1560.17 1009.5,1570.83 1009.5,1581.5C 990.895,1579.02 975.395,1584.68 963,1598.5C 959.141,1604.6 957.141,1611.27 957,1618.5C 956.5,1650.5 956.333,1682.5 956.5,1714.5C 946.167,1714.5 935.833,1714.5 925.5,1714.5C 925.5,1659.5 925.5,1604.5 925.5,1549.5 Z"/></g>
<g><path style="opacity:0.978" fill="#3800a9" d="M 1377.5,1549.5 C 1387.83,1549.5 1398.17,1549.5 1408.5,1549.5C 1408.33,1578.17 1408.5,1606.84 1409,1635.5C 1411.97,1671.45 1431.47,1687.29 1467.5,1683C 1492,1676.82 1504.16,1660.98 1504,1635.5C 1504.5,1606.84 1504.67,1578.17 1504.5,1549.5C 1514.83,1549.5 1525.17,1549.5 1535.5,1549.5C 1535.67,1582.83 1535.5,1616.17 1535,1649.5C 1526.64,1692.69 1500.47,1714.69 1456.5,1715.5C 1412.53,1714.69 1386.36,1692.69 1378,1649.5C 1377.5,1616.17 1377.33,1582.83 1377.5,1549.5 Z"/></g>
<g><path style="opacity:0.972" fill="#3800a9" d="M 1808.5,1549.5 C 1818.5,1549.5 1828.5,1549.5 1838.5,1549.5C 1838.5,1604.17 1838.5,1658.83 1838.5,1713.5C 1828.5,1713.5 1818.5,1713.5 1808.5,1713.5C 1808.5,1658.83 1808.5,1604.17 1808.5,1549.5 Z"/></g>
</svg>
