<?xml version="1.0" encoding="UTF-8"?>
<svg id="a" data-name="Nicolas Blanc Production Logo" xmlns="http://www.w3.org/2000/svg" fill="currentColor" width="443.65" height="146.81" viewBox="0 0 443.65 146.81">

    <path d="M105.9,79.65c5.63,0,10.35,4.53,10.31,11.4,0,6.92-4.72,11.4-10.31,11.4h-11.18v12.89h-4.84v-35.7h16.02ZM111.17,91.03c.03-4.75-2.5-7.31-5.27-7.31h-11.18v14.66h11.18c2.75,0,5.27-2.53,5.27-7.35h0Z"   fill="currentColor"/>
    <path d="M129.4,101.12v14.23h-4.84v-35.7h15.51c5.62,0,10.34,4.26,10.3,10.73,0,5.13-2.92,8.83-6.9,10.18l8.68,14.78h-5.75l-7.78-14.23h-9.22ZM140.07,97.04c2.89,0,5.27-2.38,5.27-6.68.03-4.24-2.35-6.64-5.27-6.64h-10.67v13.32h10.67Z"   fill="currentColor"/>
    <path d="M192.94,97.5c0,10.27-6.89,18.56-17.51,18.56s-17.51-8.3-17.51-18.56,6.96-18.56,17.51-18.56,17.51,8.3,17.51,18.56ZM162.96,97.5c0,8.05,5.06,13.96,12.47,13.96s12.47-5.89,12.47-13.96-5-13.96-12.5-13.96-12.43,5.83-12.43,13.96Z"   fill="currentColor"/>
    <path d="M214.57,79.65c10.62,0,17.61,7.58,17.61,17.85s-6.99,17.85-17.61,17.85h-12.29v-35.7h12.29ZM214.57,111.27c7.68,0,12.57-5.43,12.57-13.78s-4.89-13.77-12.57-13.77h-7.45v27.55h7.45Z"   fill="currentColor"/>
    <path d="M270.58,103.26c0,7.08-5.72,12.79-14.54,12.79s-14.54-5.72-14.54-12.79v-23.61h4.84v23.61c0,5.04,3.71,8.53,9.7,8.53s9.7-3.48,9.7-8.53v-23.61h4.84v23.61Z"   fill="currentColor"/>
    <path d="M310.91,83.95l-1.33,3.67c-3.97-2.69-8.46-4.08-12.47-4.08-7.38-.05-12.41,5.83-12.41,13.96s5.05,14,12.44,14c3.98,0,8.47-1.44,12.44-4.11l1.33,3.66c-4.26,3.29-9.34,5.01-13.77,5.01-10.53,0-17.48-8.3-17.48-18.56s6.95-18.63,17.48-18.56c4.47,0,9.5,1.71,13.77,5.01Z"   fill="currentColor"/>
    <path d="M332.67,83.72v31.62h-4.89v-31.62h-11.66v-4.07h28.22v4.07h-11.66Z"   fill="currentColor"/>
    <path d="M351.1,115.35v-35.7h4.84v35.7h-4.84Z"   fill="currentColor"/>
    <path d="M400.25,97.5c0,10.27-6.89,18.56-17.51,18.56s-17.51-8.3-17.51-18.56,6.96-18.56,17.51-18.56,17.51,8.3,17.51,18.56ZM370.28,97.5c0,8.05,5.06,13.96,12.47,13.96s12.47-5.89,12.47-13.96-5-13.96-12.5-13.96-12.43,5.83-12.43,13.96Z"   fill="currentColor"/>
    <path d="M438.76,115.35h-4.27l-20.32-26.86v26.86h-4.84v-35.7h4.27l20.32,26.86v-26.86h4.84v35.7Z"   fill="currentColor"/>

    <path d="M81.72,21.53v92.67c0,.63-.51,1.15-1.15,1.15h-19.22c-.37,0-.72-.18-.93-.48l-32.22-45.13c-.65-.91-2.09-.45-2.08.68l.44,43.77c0,.64-.51,1.16-1.15,1.16H4.54c-.63,0-1.15-.51-1.15-1.15V21.53c0-.63.51-1.15,1.15-1.15h19.05c.38,0,.74.19.95.51l32.34,48.61c.63.95,2.11.5,2.1-.65l-.44-47.31c0-.64.51-1.16,1.15-1.16h20.88c.63,0,1.15.51,1.15,1.15Z"   fill="currentColor"/>

    <path d="M125.08,54.22c0,4.3-1.69,8.39-4.42,10.69-4.5,3.86-7.84,4.22-15.58,4.22h-15.09c-.34,0-.62-.28-.62-.62V20.94c0-.33.27-.6.6-.6h16.96c5.1,0,9.52,1.2,12.14,3.31h0s0,0,0,0c2.8,2.13,4.28,5.44,4.28,9.56,0,3.4-1.82,6.72-4.98,9.12-.35.27-.3.81.1,1,4.37,2.07,6.59,5.73,6.59,10.88ZM113.32,53.48c0-1.8-.83-3.02-2.47-3.64-1.27-.5-2.87-.5-3.82-.5h-5.37c-.33,0-.6.27-.6.6v7.5c0,.34.27.61.61.61h5.36c.76,0,2.35,0,3.67-.55,1.71-.69,2.62-2.08,2.62-4.01ZM101.11,39.25c0,.33.27.6.6.6h3.85c.76,0,2.35,0,3.66-.53,1.72-.67,2.63-2,2.63-3.87,0-1.74-.84-2.92-2.48-3.51-1.27-.48-2.86-.48-3.81-.48h-3.84c-.34,0-.61.27-.61.61v7.18Z"   fill="currentColor"/>
    <path d="M139.23,21.01v47.39c0,.33-.26.59-.59.59h-10.91c-.33,0-.59-.26-.59-.59V21.01c0-.33.26-.59.59-.59h10.91c.33,0,.59.26.59.59Z"   fill="currentColor"/>
    <path d="M182.44,32.63v35.76c0,.33-.26.59-.59.59h-10.32c-.33,0-.59-.26-.59-.59v-.54c0-.23-.24-.37-.44-.25-2.96,1.67-6.3,2.55-9.73,2.55-10.81,0-19.61-8.68-19.61-19.34s8.8-19.34,19.61-19.34c3.43,0,6.77.88,9.73,2.55.2.11.44-.03.44-.25v-1.13c0-.33.26-.59.59-.59h10.32c.33,0,.59.26.59.59ZM170.93,50.8c0-4.89-3.44-8.87-8.41-8.87s-9,3.98-9,8.87,4.04,8.87,9,8.87,8.41-3.98,8.41-8.87Z"   fill="currentColor"/>
    <path d="M219.37,47.62v20.79c0,.33-.26.59-.59.59h-11.02c-.33,0-.59-.26-.59-.59v-20.21c0-1.37-.08-2.94-.65-4.21-.26-.54-.61-.98-1.04-1.31-.69-.54-1.58-.8-2.73-.8-2.13,0-3.77.73-4.29,1.91-.6,1.28-.6,3.02-.6,4.42v20.21c0,.33-.27.59-.59.59h-11.02c-.33,0-.59-.26-.59-.59v-35.76c0-.33.26-.59.59-.59h10.32c.33,0,.59.26.59.59v1c0,.24.27.38.46.24,8.32-5.73,16.42.63,16.5.7.29.23.58.48.83.73h0c3.77,3.79,4.4,6.86,4.4,12.3Z"   fill="currentColor"/>
    <path d="M257.13,60.96c-.29.46-.71,1.09-.94,1.39,0,0,0,.01-.01.02-.36.48-.75.94-1.16,1.38,0,.01-.02.02-.03.03-.16.18-.44.46-.61.63-.03.03-.06.06-.09.09-.17.17-.35.34-.53.5-.11.09-.21.19-.32.28-.08.06-.15.13-.23.19-2.83,2.39-6.32,3.96-10.05,4.47-.12.02-.25.03-.37.05-.15.02-.31.04-.46.05-.24.02-.48.04-.72.05-.09,0-.17,0-.26.01-.29.01-.58.02-.88.02-10.81,0-19.61-8.68-19.61-19.34s8.8-19.34,19.61-19.34c.29,0,.58,0,.88.02.09,0,.17,0,.26.01.24.01.48.03.72.05.15.01.31.03.46.05.12.01.25.03.37.05,3.73.51,7.22,2.08,10.05,4.47.07.06.15.13.22.19.11.09.21.19.32.28.18.16.36.33.53.5.03.03.06.07.1.1.18.19.37.37.54.56.03.03.06.07.09.1.41.44.79.9,1.15,1.38,0,0,0,.01.01.02.37.49.71.99,1.04,1.51h0c.13.22.06.51-.16.64l-5.24,3.02-3.03,1.75c-.27.16-.61.08-.78-.18-1.72-2.61-4.11-4.05-6.96-4.05s-5.25,1.24-6.9,3.18c-1.39,1.5-2.24,3.5-2.24,5.69s.85,4.19,2.24,5.69c1.65,1.95,4.13,3.18,6.9,3.18s5.24-1.44,6.96-4.05c.17-.26.51-.33.78-.18l8.13,4.69c.29.17.38.55.2.83Z"   fill="currentColor"/>

</svg>