
<svg xmlns="http://www.w3.org/2000/svg" version="1.1" width="4986px" height="2370px" style="shape-rendering:geometricPrecision; text-rendering:geometricPrecision; image-rendering:optimizeQuality; fill-rule:evenodd; clip-rule:evenodd" xmlns:xlink="http://www.w3.org/1999/xlink">
<g><path style="opacity:1" fill="#0b37e2" d="M 1900.5,669.5 C 1941.17,669.333 1981.83,669.5 2022.5,670C 2023.62,671.044 2024.96,671.71 2026.5,672C 2141.8,687.178 2233.97,742.011 2303,836.5C 2335.3,884.403 2357.63,936.403 2370,992.5C 2371.68,1006.56 2374.01,1020.56 2377,1034.5C 2377.67,1074.17 2377.67,1113.83 2377,1153.5C 2357.56,1278.05 2295.72,1377.22 2191.5,1451C 2098.63,1512.44 1996.3,1536.44 1884.5,1523C 1876.39,1522.6 1868.39,1521.6 1860.5,1520C 1848.55,1516.84 1836.55,1513.84 1824.5,1511C 1778.54,1496.24 1734.87,1476.24 1693.5,1451C 1644.94,1418.79 1598.94,1383.12 1555.5,1344C 1530.17,1320.34 1505.17,1296.34 1480.5,1272C 1520.7,1231.47 1560.53,1190.64 1600,1149.5C 1642.73,1193.23 1687.89,1234.07 1735.5,1272C 1763.84,1292.72 1793.84,1310.38 1825.5,1325C 1846.94,1333.68 1868.94,1340.35 1891.5,1345C 1969.95,1358.39 2040.29,1340.73 2102.5,1292C 2173.04,1228.73 2202.54,1149.9 2191,1055.5C 2182.6,996.262 2156.77,946.096 2113.5,905C 2055.66,856.127 1988.66,836.794 1912.5,847C 1900.61,849.897 1888.61,852.23 1876.5,854C 1825.73,868.944 1778.73,891.944 1735.5,923C 1687.33,958.659 1642.33,998.159 1600.5,1041.5C 1561.51,1002.01 1522.35,962.68 1483,923.5C 1482.33,922.5 1482.33,921.5 1483,920.5C 1531.99,870.474 1584.15,824.308 1639.5,782C 1675.93,755.512 1714.27,732.512 1754.5,713C 1780.36,701.955 1806.69,692.289 1833.5,684C 1846.56,681.243 1859.56,678.243 1872.5,675C 1880.71,673.29 1889.04,672.29 1897.5,672C 1898.94,671.623 1899.94,670.79 1900.5,669.5 Z"/></g>
<g><path style="opacity:1" fill="#3800a9" d="M 856.5,669.5 C 894.835,669.333 933.168,669.5 971.5,670C 972.328,670.915 973.328,671.581 974.5,672C 982.031,672.234 989.364,673.234 996.5,675C 1033.08,683.509 1068.42,695.509 1102.5,711C 1147.09,733.791 1189.42,760.458 1229.5,791C 1279.14,831.206 1326.48,874.206 1371.5,920C 1332.66,961.677 1293.66,1003.18 1254.5,1044.5C 1216.18,1005.67 1176.18,968.837 1134.5,934C 1097.48,904.337 1057.15,880.67 1013.5,863C 981.522,851.543 948.355,845.377 914,844.5C 826.916,846.556 757.583,882.89 706,953.5C 670.394,1007.83 656.061,1067.83 663,1133.5C 668.462,1171.67 680.962,1207.34 700.5,1240.5C 741.632,1302.23 798.632,1338.07 871.5,1348C 882.709,1348.34 893.875,1349.18 905,1350.5C 916.125,1349.18 927.291,1348.34 938.5,1348C 948.201,1346.09 957.868,1344.43 967.5,1343C 1004.61,1333.7 1039.94,1319.7 1073.5,1301C 1111.38,1278.13 1147.05,1252.13 1180.5,1223C 1205.7,1200.13 1230.53,1176.96 1255,1153.5C 1294.59,1192.59 1333.75,1232.26 1372.5,1272.5C 1323.49,1323.78 1270.82,1370.61 1214.5,1413C 1165.15,1449.75 1111.82,1478.75 1054.5,1500C 1040.21,1504.33 1025.88,1508.66 1011.5,1513C 1000.69,1514.52 990.021,1516.85 979.5,1520C 971.02,1521.75 962.354,1522.75 953.5,1523C 952.167,1523.67 950.833,1524.33 949.5,1525C 912.167,1525.67 874.833,1525.67 837.5,1525C 836.167,1524.33 834.833,1523.67 833.5,1523C 699.479,1505.07 597.979,1437.57 529,1320.5C 502.001,1269.8 485.335,1215.8 479,1158.5C 463.093,1026.15 498.759,910.149 586,810.5C 658.976,733.011 747.809,686.844 852.5,672C 854.066,671.392 855.4,670.558 856.5,669.5 Z"/></g>
<g><path style="opacity:0.937" fill="#3800a9" d="M 4117.5,831.5 C 4135.04,832.538 4141.54,841.538 4137,858.5C 4130.06,867.83 4121.23,869.997 4110.5,865C 4099.57,854.255 4099.91,843.922 4111.5,834C 4113.61,833.155 4115.61,832.322 4117.5,831.5 Z"/></g>
<g><path style="opacity:0.971" fill="#3800a9" d="M 3616.5,833.5 C 3626.83,833.5 3637.17,833.5 3647.5,833.5C 3647.33,884.834 3647.5,936.168 3648,987.5C 3647.58,998.488 3651.41,1007.65 3659.5,1015C 3662.21,1016.55 3665.04,1017.71 3668,1018.5C 3668.67,1029.5 3668.67,1040.5 3668,1051.5C 3647.26,1051.43 3633.92,1041.43 3628,1021.5C 3606.95,1050.19 3578.78,1061.03 3543.5,1054C 3501.33,1041.83 3479.33,1013.83 3477.5,970C 3479.54,928.585 3500.21,901.252 3539.5,888C 3570.97,879.393 3596.47,887.893 3616,913.5C 3616.5,886.835 3616.67,860.169 3616.5,833.5 Z M 3552.5,917.5 C 3584.99,915.144 3605.82,929.478 3615,960.5C 3617.84,993.012 3603.67,1013.84 3572.5,1023C 3539.99,1025.84 3519.16,1011.67 3510,980.5C 3507.28,947.904 3521.45,926.904 3552.5,917.5 Z"/></g>
<g><path style="opacity:1" fill="#0b37e2" d="M 2599.5,841.5 C 2654.11,890.271 2708.61,939.271 2763,988.5C 2763.5,939.501 2763.67,890.501 2763.5,841.5C 2774.5,841.5 2785.5,841.5 2796.5,841.5C 2796.83,914.17 2796.5,986.836 2795.5,1059.5C 2741.48,1010.32 2687.32,961.315 2633,912.5C 2632.5,958.499 2632.33,1004.5 2632.5,1050.5C 2621.5,1050.5 2610.5,1050.5 2599.5,1050.5C 2599.5,980.833 2599.5,911.167 2599.5,841.5 Z"/></g>
<g><path style="opacity:1" fill="#0b37e2" d="M 2834.5,841.5 C 2869.83,841.333 2905.17,841.5 2940.5,842C 2959.53,843.763 2975.03,851.929 2987,866.5C 2997.62,884.39 2998.29,902.723 2989,921.5C 2984.06,929.772 2977.23,935.939 2968.5,940C 2994.35,947.967 3007.01,965.634 3006.5,993C 3006.25,1018.56 2994.25,1035.9 2970.5,1045C 2963.31,1047.3 2955.98,1048.96 2948.5,1050C 2910.5,1050.5 2872.5,1050.67 2834.5,1050.5C 2834.5,980.833 2834.5,911.167 2834.5,841.5 Z M 2867.5,870.5 C 2889.87,870.078 2912.2,870.578 2934.5,872C 2957.04,877.267 2964.87,890.767 2958,912.5C 2951.99,920.757 2943.82,925.257 2933.5,926C 2916.84,926.5 2900.17,926.667 2883.5,926.5C 2883.5,936.167 2883.5,945.833 2883.5,955.5C 2902.86,955.193 2922.19,955.693 2941.5,957C 2964.32,960.487 2974.16,973.654 2971,996.5C 2966.59,1008.57 2958.09,1016.07 2945.5,1019C 2941.21,1019.91 2936.87,1020.58 2932.5,1021C 2910.84,1021.5 2889.17,1021.67 2867.5,1021.5C 2867.5,971.167 2867.5,920.833 2867.5,870.5 Z"/></g>
<g><path style="opacity:1" fill="#0b37e2" d="M 3033.5,841.5 C 3070.5,841.333 3107.5,841.5 3144.5,842C 3177.33,848.167 3196.83,867.667 3203,900.5C 3207.34,928.48 3199.17,951.98 3178.5,971C 3168.35,978.402 3157.02,983.068 3144.5,985C 3123.84,985.5 3103.17,985.667 3082.5,985.5C 3082.5,975.833 3082.5,966.167 3082.5,956.5C 3099.84,956.667 3117.17,956.5 3134.5,956C 3164.29,947.933 3175.79,928.766 3169,898.5C 3162.51,883.003 3151.01,873.836 3134.5,871C 3111.84,870.5 3089.17,870.333 3066.5,870.5C 3065.49,930.836 3065.49,991.169 3066.5,1051.5C 3055.5,1051.5 3044.5,1051.5 3033.5,1051.5C 3033.5,981.5 3033.5,911.5 3033.5,841.5 Z"/></g>
<g><path style="opacity:0.983" fill="#3800a9" d="M 4013.5,852.5 C 4023.83,852.5 4034.17,852.5 4044.5,852.5C 4044.5,864.167 4044.5,875.833 4044.5,887.5C 4057.83,887.5 4071.17,887.5 4084.5,887.5C 4084.5,897.833 4084.5,908.167 4084.5,918.5C 4071.17,918.5 4057.83,918.5 4044.5,918.5C 4044.33,939.169 4044.5,959.836 4045,980.5C 4044.49,1003.02 4055.33,1015.86 4077.5,1019C 4082.89,1019.21 4088.22,1019.71 4093.5,1020.5C 4094.5,1030.81 4094.83,1041.15 4094.5,1051.5C 4072.37,1053.05 4052.04,1047.88 4033.5,1036C 4022.73,1026.96 4016.23,1015.46 4014,1001.5C 4013.5,973.835 4013.33,946.169 4013.5,918.5C 4008.5,918.5 4003.5,918.5 3998.5,918.5C 3998.5,908.167 3998.5,897.833 3998.5,887.5C 4003.5,887.5 4008.5,887.5 4013.5,887.5C 4013.5,875.833 4013.5,864.167 4013.5,852.5 Z"/></g>
<g><path style="opacity:0.96" fill="#3800a9" d="M 3911.5,883.5 C 3937.83,880.559 3961.16,887.392 3981.5,904C 3987.13,909.458 3991.79,915.624 3995.5,922.5C 3987.86,929.806 3980.19,937.139 3972.5,944.5C 3957.02,918.391 3934.69,909.891 3905.5,919C 3876.31,933.529 3865.81,956.696 3874,988.5C 3886.43,1017.47 3908.27,1029.3 3939.5,1024C 3954.33,1019.33 3965.33,1010.16 3972.5,996.5C 3979.85,1003.68 3987.35,1010.68 3995,1017.5C 3995.67,1018.5 3995.67,1019.5 3995,1020.5C 3974.69,1049.29 3946.86,1061.45 3911.5,1057C 3874.01,1049.18 3850.51,1026.68 3841,989.5C 3833.71,944.242 3850.21,911.076 3890.5,890C 3897.47,887.347 3904.47,885.18 3911.5,883.5 Z"/></g>
<g><path style="opacity:0.964" fill="#3800a9" d="M 3372.5,884.5 C 3408.7,881.193 3437.2,894.193 3458,923.5C 3471.97,948.387 3474.31,974.387 3465,1001.5C 3446.47,1040.35 3415.64,1057.85 3372.5,1054C 3340.94,1048.44 3318.77,1030.94 3306,1001.5C 3292.35,958.456 3303.52,923.623 3339.5,897C 3349.92,890.922 3360.92,886.755 3372.5,884.5 Z M 3375.5,916.5 C 3399.09,913.884 3417.59,922.217 3431,941.5C 3445.35,970.93 3439.52,995.43 3413.5,1015C 3384.07,1029.35 3359.57,1023.52 3340,997.5C 3325.65,968.07 3331.48,943.57 3357.5,924C 3363.33,920.788 3369.33,918.288 3375.5,916.5 Z"/></g>
<g><path style="opacity:0.964" fill="#3800a9" d="M 4225.5,884.5 C 4261.7,881.193 4290.2,894.193 4311,923.5C 4324.97,948.387 4327.31,974.387 4318,1001.5C 4299.47,1040.35 4268.64,1057.85 4225.5,1054C 4193.94,1048.44 4171.77,1030.94 4159,1001.5C 4145.35,958.456 4156.52,923.623 4192.5,897C 4202.92,890.922 4213.92,886.755 4225.5,884.5 Z M 4228.5,916.5 C 4252.09,913.884 4270.59,922.217 4284,941.5C 4298.35,970.93 4292.52,995.43 4266.5,1015C 4237.07,1029.35 4212.57,1023.52 4193,997.5C 4178.65,968.07 4184.48,943.57 4210.5,924C 4216.33,920.788 4222.33,918.288 4228.5,916.5 Z"/></g>
<g><path style="opacity:0.978" fill="#3800a9" d="M 4404.5,884.5 C 4435.54,880.117 4461.37,889.451 4482,912.5C 4490.32,923.822 4495.32,936.489 4497,950.5C 4497.5,983.832 4497.67,1017.17 4497.5,1050.5C 4487.17,1050.5 4476.83,1050.5 4466.5,1050.5C 4466.67,1021.83 4466.5,993.165 4466,964.5C 4465.31,933.309 4449.47,917.309 4418.5,916.5C 4398.33,915.83 4383.83,924.497 4375,942.5C 4372.38,949.593 4371.05,956.926 4371,964.5C 4370.5,993.165 4370.33,1021.83 4370.5,1050.5C 4360.17,1050.5 4349.83,1050.5 4339.5,1050.5C 4339.33,1017.17 4339.5,983.832 4340,950.5C 4346.59,913.745 4368.09,891.745 4404.5,884.5 Z"/></g>
<g><path style="opacity:0.978" fill="#3800a9" d="M 3222.5,886.5 C 3232.5,886.5 3242.5,886.5 3252.5,886.5C 3252.33,892.509 3252.5,898.509 3253,904.5C 3257.4,898.208 3263.23,893.708 3270.5,891C 3282.18,887.112 3294.18,885.612 3306.5,886.5C 3306.5,897.167 3306.5,907.833 3306.5,918.5C 3287.89,916.015 3272.39,921.682 3260,935.5C 3256.14,941.602 3254.14,948.269 3254,955.5C 3253.5,987.498 3253.33,1019.5 3253.5,1051.5C 3243.17,1051.5 3232.83,1051.5 3222.5,1051.5C 3222.5,996.5 3222.5,941.5 3222.5,886.5 Z"/></g>
<g><path style="opacity:0.978" fill="#3800a9" d="M 3674.5,886.5 C 3684.83,886.5 3695.17,886.5 3705.5,886.5C 3705.33,915.169 3705.5,943.835 3706,972.5C 3708.97,1008.45 3728.47,1024.29 3764.5,1020C 3789,1013.82 3801.16,997.985 3801,972.5C 3801.5,943.835 3801.67,915.169 3801.5,886.5C 3811.83,886.5 3822.17,886.5 3832.5,886.5C 3832.67,919.835 3832.5,953.168 3832,986.5C 3823.64,1029.69 3797.47,1051.69 3753.5,1052.5C 3709.53,1051.69 3683.36,1029.69 3675,986.5C 3674.5,953.168 3674.33,919.835 3674.5,886.5 Z"/></g>
<g><path style="opacity:0.972" fill="#3800a9" d="M 4105.5,886.5 C 4115.5,886.5 4125.5,886.5 4135.5,886.5C 4135.5,941.167 4135.5,995.833 4135.5,1050.5C 4125.5,1050.5 4115.5,1050.5 4105.5,1050.5C 4105.5,995.833 4105.5,941.167 4105.5,886.5 Z"/></g>
<g><path style="opacity:1" fill="#a4a4a4" d="M 2599.5,1149.5 C 3232.17,1149.5 3864.83,1149.5 4497.5,1149.5C 4497.5,1219.17 4497.5,1288.83 4497.5,1358.5C 3864.83,1358.5 3232.17,1358.5 2599.5,1358.5C 2599.5,1288.83 2599.5,1219.17 2599.5,1149.5 Z"/></g>
<g><path style="opacity:1" fill="#707070" d="M 2944.5,1184.5 C 2980.59,1182.62 3006.09,1197.95 3021,1230.5C 3029.56,1256.67 3025.56,1280.67 3009,1302.5C 2986.24,1326.53 2959.07,1333.36 2927.5,1323C 2894.11,1307.07 2879.28,1280.57 2883,1243.5C 2891.02,1210.64 2911.52,1190.98 2944.5,1184.5 Z"/></g>
<g><path style="opacity:1" fill="#707070" d="M 3355.5,1184.5 C 3376.43,1182.68 3394.93,1188.35 3411,1201.5C 3411.5,1196.85 3411.67,1192.18 3411.5,1187.5C 3444.5,1187.5 3477.5,1187.5 3510.5,1187.5C 3510.5,1195.5 3510.5,1203.5 3510.5,1211.5C 3498.17,1211.5 3485.83,1211.5 3473.5,1211.5C 3473.5,1249.17 3473.5,1286.83 3473.5,1324.5C 3465.17,1324.5 3456.83,1324.5 3448.5,1324.5C 3448.5,1286.83 3448.5,1249.17 3448.5,1211.5C 3437.16,1211.33 3425.83,1211.5 3414.5,1212C 3409.99,1216.68 3405.32,1221.18 3400.5,1225.5C 3383.53,1207.56 3363.87,1204.06 3341.5,1215C 3318.08,1232.19 3312.58,1254.02 3325,1280.5C 3342.57,1304.77 3364.73,1309.93 3391.5,1296C 3395.33,1293.5 3398.5,1290.33 3401,1286.5C 3406.88,1292.04 3412.38,1297.88 3417.5,1304C 3409.37,1314.11 3399.04,1321.11 3386.5,1325C 3347.04,1333.68 3318.21,1320.18 3300,1284.5C 3288.13,1251.17 3295.3,1222.67 3321.5,1199C 3331.71,1191.33 3343.05,1186.49 3355.5,1184.5 Z"/></g>
<g><path style="opacity:1" fill="#707070" d="M 3619.5,1184.5 C 3655.59,1182.62 3681.09,1197.95 3696,1230.5C 3704.56,1256.67 3700.56,1280.67 3684,1302.5C 3661.24,1326.53 3634.07,1333.36 3602.5,1323C 3569.11,1307.07 3554.28,1280.57 3558,1243.5C 3566.02,1210.64 3586.52,1190.98 3619.5,1184.5 Z"/></g>
<g><path style="opacity:1" fill="#707070" d="M 4381.5,1184.5 C 4417.59,1182.62 4443.09,1197.95 4458,1230.5C 4466.56,1256.67 4462.56,1280.67 4446,1302.5C 4423.24,1326.53 4396.07,1333.36 4364.5,1323C 4331.11,1307.07 4316.28,1280.57 4320,1243.5C 4328.02,1210.64 4348.52,1190.98 4381.5,1184.5 Z"/></g>
<g><path style="opacity:1" fill="#898989" d="M 2640.5,1187.5 C 2640.5,1232.83 2640.5,1278.17 2640.5,1323.5C 2648.83,1323.5 2657.17,1323.5 2665.5,1323.5C 2657.02,1324.49 2648.35,1324.83 2639.5,1324.5C 2639.17,1278.66 2639.5,1233 2640.5,1187.5 Z"/></g>
<g><path style="opacity:1" fill="#707070" d="M 2640.5,1187.5 C 2666.21,1187.05 2691.88,1187.55 2717.5,1189C 2739.39,1196.27 2751.06,1211.44 2752.5,1234.5C 2752.43,1259.05 2740.76,1274.88 2717.5,1282C 2700.2,1283.38 2682.87,1283.88 2665.5,1283.5C 2665.5,1296.83 2665.5,1310.17 2665.5,1323.5C 2657.17,1323.5 2648.83,1323.5 2640.5,1323.5C 2640.5,1278.17 2640.5,1232.83 2640.5,1187.5 Z"/></g>
<g><path style="opacity:1" fill="#707070" d="M 2765.5,1187.5 C 2787.84,1187.33 2810.17,1187.5 2832.5,1188C 2853.9,1190.41 2867.74,1201.91 2874,1222.5C 2878.95,1248.27 2870.11,1267.6 2847.5,1280.5C 2857.5,1294.83 2867.5,1309.17 2877.5,1323.5C 2867.85,1324.67 2858.18,1324.83 2848.5,1324C 2839.17,1310.67 2829.83,1297.33 2820.5,1284C 2810.51,1283.5 2800.51,1283.33 2790.5,1283.5C 2790.5,1297.17 2790.5,1310.83 2790.5,1324.5C 2782.17,1324.5 2773.83,1324.5 2765.5,1324.5C 2765.5,1278.83 2765.5,1233.17 2765.5,1187.5 Z"/></g>
<g><path style="opacity:1" fill="#707070" d="M 3039.5,1187.5 C 3060.17,1187.33 3080.84,1187.5 3101.5,1188C 3138.99,1193.66 3158.32,1215.49 3159.5,1253.5C 3158.63,1291.85 3139.63,1315.35 3102.5,1324C 3081.5,1324.5 3060.5,1324.67 3039.5,1324.5C 3039.5,1278.83 3039.5,1233.17 3039.5,1187.5 Z"/></g>
<g><path style="opacity:1" fill="#707070" d="M 3840.5,1187.5 C 3840.83,1235 3840.5,1282.34 3839.5,1329.5C 3806.17,1300.5 3772.83,1271.5 3739.5,1242.5C 3739.44,1241.96 3739.11,1241.62 3738.5,1241.5C 3737.5,1268.83 3737.17,1296.16 3737.5,1323.5C 3729.17,1323.5 3720.83,1323.5 3712.5,1323.5C 3712.17,1278.5 3712.5,1233.5 3713.5,1188.5C 3747.19,1218.02 3781.02,1247.35 3815,1276.5C 3815.5,1246.84 3815.67,1217.17 3815.5,1187.5C 3823.83,1187.5 3832.17,1187.5 3840.5,1187.5 Z"/></g>
<g><path style="opacity:1" fill="#979797" d="M 3840.5,1187.5 C 3841.83,1235 3841.83,1282.67 3840.5,1330.5C 3839.89,1330.38 3839.56,1330.04 3839.5,1329.5C 3840.5,1282.34 3840.83,1235 3840.5,1187.5 Z"/></g>
<g><path style="opacity:1" fill="#808080" d="M 3914.5,1188.5 C 3905.32,1188.17 3896.32,1188.51 3887.5,1189.5C 3886.96,1189.44 3886.62,1189.11 3886.5,1188.5C 3895.99,1187.18 3905.33,1187.18 3914.5,1188.5 Z"/></g>
<g><path style="opacity:1" fill="#707070" d="M 4080.5,1187.5 C 4101.17,1187.33 4121.84,1187.5 4142.5,1188C 4179.99,1193.66 4199.32,1215.49 4200.5,1253.5C 4199.63,1291.85 4180.63,1315.35 4143.5,1324C 4122.5,1324.5 4101.5,1324.67 4080.5,1324.5C 4080.5,1278.83 4080.5,1233.17 4080.5,1187.5 Z"/></g>
<g><path style="opacity:1" fill="#707070" d="M 3172.5,1188.5 C 3180.5,1188.5 3188.5,1188.5 3196.5,1188.5C 3196.17,1217 3196.5,1245.34 3197.5,1273.5C 3200.28,1294.42 3212.28,1303.59 3233.5,1301C 3245.64,1298.19 3253.14,1290.69 3256,1278.5C 3256.5,1248.5 3256.67,1218.5 3256.5,1188.5C 3264.5,1188.5 3272.5,1188.5 3280.5,1188.5C 3280.5,1218.17 3280.5,1247.83 3280.5,1277.5C 3277.89,1304.61 3263.23,1320.77 3236.5,1326C 3204.31,1329.67 3183.48,1316.17 3174,1285.5C 3172.56,1253.2 3172.06,1220.86 3172.5,1188.5 Z"/></g>
<g><path style="opacity:1" fill="#7d7d7d" d="M 3172.5,1188.5 C 3180.65,1187.51 3188.98,1187.17 3197.5,1187.5C 3197.5,1216.17 3197.5,1244.83 3197.5,1273.5C 3196.5,1245.34 3196.17,1217 3196.5,1188.5C 3188.5,1188.5 3180.5,1188.5 3172.5,1188.5 Z"/></g>
<g><path style="opacity:1" fill="#7d7d7d" d="M 3256.5,1188.5 C 3264.65,1187.51 3272.98,1187.17 3281.5,1187.5C 3281.83,1217.67 3281.5,1247.67 3280.5,1277.5C 3280.5,1247.83 3280.5,1218.17 3280.5,1188.5C 3272.5,1188.5 3264.5,1188.5 3256.5,1188.5 Z"/></g>
<g><path style="opacity:1" fill="#707070" d="M 3516.5,1187.5 C 3524.83,1187.5 3533.17,1187.5 3541.5,1187.5C 3541.5,1233.17 3541.5,1278.83 3541.5,1324.5C 3533.17,1324.5 3524.83,1324.5 3516.5,1324.5C 3516.5,1278.83 3516.5,1233.17 3516.5,1187.5 Z"/></g>
<g><path style="opacity:1" fill="#707070" d="M 3887.5,1189.5 C 3896.32,1188.51 3905.32,1188.17 3914.5,1188.5C 3929.66,1217.49 3945.33,1246.16 3961.5,1274.5C 3977.17,1245.83 3992.83,1217.17 4008.5,1188.5C 4024.15,1187.5 4039.82,1187.17 4055.5,1187.5C 4055.5,1233.17 4055.5,1278.83 4055.5,1324.5C 4047.17,1324.5 4038.83,1324.5 4030.5,1324.5C 4030.67,1282.83 4030.5,1241.17 4030,1199.5C 4007.42,1240.99 3984.59,1282.33 3961.5,1323.5C 3936.33,1279.16 3911.66,1234.5 3887.5,1189.5 Z"/></g>
<g><path style="opacity:1" fill="#707070" d="M 4214.5,1187.5 C 4247.17,1187.5 4279.83,1187.5 4312.5,1187.5C 4312.5,1194.83 4312.5,1202.17 4312.5,1209.5C 4288.17,1209.5 4263.83,1209.5 4239.5,1209.5C 4239.5,1221.17 4239.5,1232.83 4239.5,1244.5C 4260.83,1244.5 4282.17,1244.5 4303.5,1244.5C 4303.5,1251.83 4303.5,1259.17 4303.5,1266.5C 4282.17,1266.5 4260.83,1266.5 4239.5,1266.5C 4239.5,1278.5 4239.5,1290.5 4239.5,1302.5C 4263.83,1302.5 4288.17,1302.5 4312.5,1302.5C 4312.5,1309.83 4312.5,1317.17 4312.5,1324.5C 4279.83,1324.5 4247.17,1324.5 4214.5,1324.5C 4214.5,1278.83 4214.5,1233.17 4214.5,1187.5 Z"/></g>
<g><path style="opacity:1" fill="#a4a4a4" d="M 2665.5,1209.5 C 2680.57,1209.05 2695.57,1209.55 2710.5,1211C 2727.47,1219.91 2731.63,1233.08 2723,1250.5C 2719.69,1254.82 2715.52,1257.98 2710.5,1260C 2695.55,1261.42 2680.55,1261.92 2665.5,1261.5C 2665.5,1244.17 2665.5,1226.83 2665.5,1209.5 Z"/></g>
<g><path style="opacity:1" fill="#a4a4a4" d="M 2790.5,1209.5 C 2803.84,1209.33 2817.17,1209.5 2830.5,1210C 2849.77,1218.05 2854.94,1231.55 2846,1250.5C 2841.63,1256.43 2835.8,1259.93 2828.5,1261C 2815.84,1261.5 2803.17,1261.67 2790.5,1261.5C 2790.5,1244.17 2790.5,1226.83 2790.5,1209.5 Z"/></g>
<g><path style="opacity:1" fill="#a4a4a4" d="M 2946.5,1209.5 C 2981.88,1209.72 2999.72,1227.38 3000,1262.5C 2991.31,1294.27 2970.81,1306.77 2938.5,1300C 2914.29,1288.76 2904.46,1269.92 2909,1243.5C 2915.39,1225.28 2927.89,1213.94 2946.5,1209.5 Z"/></g>
<g><path style="opacity:1" fill="#a4a4a4" d="M 3621.5,1209.5 C 3656.88,1209.72 3674.72,1227.38 3675,1262.5C 3666.31,1294.27 3645.81,1306.77 3613.5,1300C 3589.29,1288.76 3579.46,1269.92 3584,1243.5C 3590.39,1225.28 3602.89,1213.94 3621.5,1209.5 Z"/></g>
<g><path style="opacity:1" fill="#a4a4a4" d="M 4383.5,1209.5 C 4418.88,1209.72 4436.72,1227.38 4437,1262.5C 4428.31,1294.27 4407.81,1306.77 4375.5,1300C 4351.29,1288.76 4341.46,1269.92 4346,1243.5C 4352.39,1225.28 4364.89,1213.94 4383.5,1209.5 Z"/></g>
<g><path style="opacity:1" fill="#a4a4a4" d="M 3064.5,1211.5 C 3074.84,1211.33 3085.17,1211.5 3095.5,1212C 3119.53,1215.85 3132.2,1230.02 3133.5,1254.5C 3132.96,1279.86 3120.3,1295.03 3095.5,1300C 3085.17,1300.5 3074.84,1300.67 3064.5,1300.5C 3064.5,1270.83 3064.5,1241.17 3064.5,1211.5 Z"/></g>
<g><path style="opacity:1" fill="#a4a4a4" d="M 4105.5,1211.5 C 4115.84,1211.33 4126.17,1211.5 4136.5,1212C 4160.53,1215.85 4173.2,1230.02 4174.5,1254.5C 4173.96,1279.86 4161.3,1295.03 4136.5,1300C 4126.17,1300.5 4115.84,1300.67 4105.5,1300.5C 4105.5,1270.83 4105.5,1241.17 4105.5,1211.5 Z"/></g>
<g><path style="opacity:1" fill="#949494" d="M 3739.5,1242.5 C 3738.5,1269.66 3738.17,1296.99 3738.5,1324.5C 3729.65,1324.83 3720.98,1324.49 3712.5,1323.5C 3720.83,1323.5 3729.17,1323.5 3737.5,1323.5C 3737.17,1296.16 3737.5,1268.83 3738.5,1241.5C 3739.11,1241.62 3739.44,1241.96 3739.5,1242.5 Z"/></g>
</svg>
