<?xml version="1.0" encoding="UTF-8"?><svg id="a" xmlns="http://www.w3.org/2000/svg" width="2126.9" height="2018.9" viewBox="0 0 2126.9 2018.9"><g id="b"><path d="M414.1,1608.6c10,9.3,19,17.7,28.3,26.4-27.4,26.9-55.3,51.9-95,56.7-55.6,6.8-97.1-26.2-106.8-74.6-10.5-52.8,20.1-103.4,71.8-116.4,30.9-7.8,59.4-1.5,85.6,16.2,15.9,10.8,30,23.7,44,37.6-8.8,9.3-17.4,18.5-26.3,28-3.9-3.8-7.6-7.3-11.3-10.8-13.4-12.6-27.4-24.2-45-30.8-21.9-8.2-47.9-2.3-63.3,14.7-16.5,18.2-20,44.6-9.9,66.1,13.1,27.9,45.1,37.8,75,26.2,19.7-7.6,35.3-21.2,50.2-35.6,1.3-1.3,2.3-3.1,2.7-3.7h0Z" style="fill:#1c2e5c; stroke-width:0px;"/><path d="M467.2,1634.9c9.8-9.4,18.6-17.9,27.5-26.4,8.8,7.8,17.4,16.1,26.6,23.7,13.3,11,28.1,19,45.7,20.6,41.1,3.8,71.8-34.8,60.5-75.8-7.8-28.3-35.2-44.5-65.4-38.8-19.1,3.6-34.7,13.9-49.2,26.3-6.3,5.4-12.3,11.1-18.2,16.6-8.7-8.6-17.3-17-26.2-25.7,4.6-4.6,9-9.3,13.7-13.7,17.2-15.9,35.5-30.6,58.3-37.7,37.9-11.8,73.5-8.4,103.5,20.3,17.2,16.5,25.5,37.5,26.8,61.2,1,18.4-.5,36.3-9.6,52.9-18.6,34-47.2,52.1-86.2,53.8-29.7,1.3-53.9-11.4-76.1-29.1-10.7-8.8-20.6-18.4-31.7-28.2h0Z" style="fill:#1ba6df; stroke-width:0px;"/></g><rect x="753.4" y="1450.2" width="223.2" height="223.2" style="fill:#fff; stroke-width:0px;"/><path d="M938.7,1575.4c10,9.3,19,17.7,28.3,26.4-27.4,26.9-55.3,51.9-95,56.7-55.6,6.8-97.1-26.2-106.8-74.6-10.5-52.8,20.1-103.4,71.8-116.4,30.9-7.8,59.4-1.5,85.6,16.2,15.9,10.8,30,23.7,44,37.6-8.8,9.3-17.4,18.4-26.3,28-3.9-3.8-7.6-7.3-11.3-10.8-13.4-12.6-27.4-24.2-45-30.8-21.9-8.2-47.9-2.3-63.3,14.7-16.5,18.2-20,44.6-9.9,66.1,13,27.8,45,37.8,74.9,26.2,19.7-7.6,35.3-21.2,50.2-35.6,1.4-1.4,2.4-3.2,2.8-3.7h0Z" style="fill:#1ba6df; stroke-width:0px;"/><g style="isolation:isolate;"><path d="M839.67,1585.46c-.01,3.86-2.4,6.05-5.04,6.07-1.33,0-2.71-.54-3.9-1.69v5.96h-1.97v-16.08h1.97v1.49c1.15-1.2,2.54-1.81,3.96-1.81,2.92,0,4.96,2.66,4.98,6.07ZM837.63,1585.46c0-2.49-1.15-4.21-3.09-4.21-1.14,0-2.62.57-3.81,1.82v4.68c1.21,1.26,2.59,2,3.8,1.98,1.73-.02,3.1-1.39,3.1-4.26Z" style="stroke-width:0px;"/><path d="M852.6,1579.39l-.35,2c-.12,0-.24-.01-.36-.01-1.34,0-2.85.57-4.12,1.7v8.13h-1.97v-11.49h1.97v1.63c1.37-1.3,3.05-1.96,4.53-1.96.1,0,.21,0,.31,0Z" style="stroke-width:0px;"/><path d="M868.47,1585.46c0,3.36-2.25,6.07-5.72,6.07s-5.72-2.71-5.72-6.07,2.27-6.09,5.72-6.07c3.47,0,5.72,2.71,5.72,6.07ZM859.08,1585.46c0,2.46,1.42,4.21,3.67,4.21s3.67-1.73,3.67-4.21-1.4-4.21-3.67-4.21c-2.29,0-3.69,1.75-3.67,4.21Z" style="stroke-width:0px;"/><path d="M885.16,1591.2h-1.97v-1.49c-1.21,1.26-2.64,1.81-3.97,1.81-2.9,0-4.96-2.65-4.97-6.07,0-3.41,2.03-6.09,5.07-6.07,1.27,0,2.72.62,3.87,1.81v-6.09h1.97v16.09ZM883.2,1587.85v-4.79c-1.14-1.2-2.59-1.82-3.86-1.82-1.87,0-3.04,1.72-3.02,4.21-.02,2.5,1.13,4.21,3.09,4.21,1.16,0,2.66-.62,3.79-1.82Z" style="stroke-width:0px;"/></g><g style="isolation:isolate;"><path d="M864.52,1529.04v41.75c0,.29-.23.52-.52.52h-8.66c-.17,0-.32-.08-.42-.22l-14.51-20.33c-.29-.41-.94-.2-.94.3l.2,19.72c0,.29-.23.52-.52.52h-9.4c-.29,0-.52-.23-.52-.52v-41.75c0-.29.23-.52.52-.52h8.58c.17,0,.33.09.43.23l14.57,21.9c.28.43.95.22.95-.29l-.2-21.31c0-.29.23-.52.52-.52h9.41c.29,0,.52.23.52.52Z" style="stroke-width:0px;"/><path d="M903.68,1555.35c0,9.35-7.71,16.96-17.19,16.96-3.01,0-5.94-.77-8.53-2.24-.17-.1-.39.03-.39.22v.48c0,.29-.23.52-.52.52h-9.05c-.29,0-.52-.23-.52-.52v-41.55c0-.29.23-.52.52-.52h9.05c.29,0,.52.23.52.52v11.19c0,.2.21.32.39.22,2.59-1.47,5.53-2.24,8.53-2.24,9.48,0,17.19,7.61,17.19,16.96ZM892.82,1555.35c0-4.29-3.54-7.78-7.89-7.78s-7.37,3.49-7.37,7.78,3.02,7.78,7.37,7.78,7.89-3.49,7.89-7.78Z" style="stroke-width:0px;"/></g><rect x="497.7" y="1795.7" width="758" height="223.2" style="fill:#fff; stroke-width:0px;"/><g style="isolation:isolate;"><path d="M1046.43,1272.38c-.03,8.58-5.31,13.44-11.18,13.47-2.94.02-6.02-1.19-8.65-3.74v13.22h-4.36v-35.7h4.36v3.31c2.56-2.66,5.63-4.03,8.78-4.03,6.49,0,11.02,5.9,11.04,13.46ZM1035.03,1281.84c3.83-.05,6.87-3.09,6.87-9.46,0-5.54-2.55-9.34-6.85-9.34-2.52,0-5.81,1.27-8.44,4.03v10.37c2.69,2.79,5.75,4.43,8.42,4.4h0Z" style="stroke-width:0px;"/><path d="M1068.5,1258.9l-.78,4.43c-.26-.02-.52-.03-.8-.02-2.97,0-6.33,1.26-9.15,3.77v18.04h-4.36v-25.5h4.36v3.61c3.03-2.9,6.77-4.36,10.05-4.36.23,0,.46,0,.68.02Z" style="stroke-width:0px;"/><path d="M1097.1,1272.38c0,7.45-5,13.46-12.7,13.46s-12.7-6.02-12.7-13.46,5.05-13.51,12.7-13.46c7.7,0,12.7,6.02,12.7,13.46ZM1076.26,1272.38c0,5.46,3.16,9.34,8.14,9.34s8.14-3.84,8.14-9.34-3.11-9.34-8.14-9.34c-5.08,0-8.19,3.88-8.14,9.34Z" style="stroke-width:0px;"/><path d="M1127.53,1285.13h-4.36v-3.31c-2.69,2.81-5.86,4.03-8.81,4.03-6.43,0-11.01-5.89-11.02-13.46,0-7.56,4.51-13.51,11.24-13.46,2.82,0,6.04,1.37,8.58,4.02v-13.51h4.36v35.7ZM1114.75,1281.72c2.58,0,5.91-1.38,8.42-4.03v-10.62c-2.53-2.67-5.75-4.03-8.56-4.03-4.15,0-6.75,3.82-6.7,9.34-.04,5.54,2.5,9.34,6.85,9.34h0Z" style="stroke-width:0px;"/><path d="M1157.64,1285.13h-4.36v-3.22c-2.72,2.61-6.14,3.94-9.1,3.94-4.84,0-8.81-2.98-8.81-9.59v-16.62h4.36v16.62c0,3.56,1.79,5.51,4.88,5.51,2.81,0,6.03-1.2,8.67-3.55v-18.58h4.36v25.5Z" style="stroke-width:0px;"/><path d="M1186.77,1262.41l-1.09,3c-2.88-1.58-5.77-2.37-8.51-2.37-5.07,0-8.19,3.75-8.14,9.34,0,5.46,3.07,9.34,8.33,9.34,2.4,0,5.47-.79,8.3-2.36l1.1,3c-2.87,2.21-6.28,3.48-9.7,3.48-7.5,0-12.6-6.02-12.6-13.46s5.15-13.51,12.68-13.46c3.12,0,6.63,1.19,9.61,3.49Z" style="stroke-width:0px;"/><path d="M1209.72,1284.09c-1.72,1.09-3.86,1.73-5.92,1.75-3.81.02-7.33-2.11-7.33-7.56v-14.96h-5.05v-2.8l4.74-.79h.31v-7.33h4.36v7.33h7.72v3.59h-7.72v14.96c0,2.79,1.84,3.65,3.92,3.63,1.33,0,2.76-.37,3.87-.8l1.11,2.98Z" style="stroke-width:0px;"/><path d="M1221.85,1252.65c0,1.49-1.2,2.69-2.69,2.69s-2.69-1.21-2.69-2.69,1.2-2.69,2.69-2.69,2.69,1.2,2.69,2.69ZM1216.98,1285.13v-25.5h4.36v25.5h-4.36Z" style="stroke-width:0px;"/><path d="M1254.08,1272.38c0,7.45-5,13.46-12.7,13.46s-12.7-6.02-12.7-13.46,5.05-13.51,12.7-13.46c7.7,0,12.7,6.02,12.7,13.46ZM1233.24,1272.38c0,5.46,3.16,9.34,8.14,9.34s8.14-3.84,8.14-9.34-3.11-9.34-8.14-9.34c-5.08,0-8.19,3.88-8.14,9.34Z" style="stroke-width:0px;"/><path d="M1283.4,1268.51v16.62h-4.36v-16.62c0-3.75-2.27-5.51-5.22-5.51-2.46,0-5.69,1.21-8.33,3.56v18.58h-4.36v-25.5h4.36v3.22c2.82-2.69,6.28-3.94,9.2-3.94,4.65,0,8.71,3.07,8.71,9.59Z" style="stroke-width:0px;"/><path d="M1308.94,1262.29l-2.03,3.07c-1.57-1.7-4.46-2.61-7.32-2.61-3.23,0-5.44,1.15-5.43,3.59,0,1.89,1.32,2.56,6.03,3.78,4.01,1.07,9.53,2.29,9.58,7.91.05,5.59-5.51,7.81-10.52,7.81-4.07,0-8.08-1.47-10.07-4.14l2.04-3.09c1.52,2.22,4.74,3.44,7.96,3.45,3.38,0,6.24-1.43,6.24-4.03s-2.78-3.05-6.43-4.03c-6.44-1.71-9.15-3.3-9.14-7.46,0-5.6,4.82-7.62,9.64-7.62,3.32,0,7.14.96,9.47,3.38Z" style="stroke-width:0px;"/></g><g style="isolation:isolate;"><path d="M1015.73,1191.31v92.67c0,.63-.51,1.15-1.15,1.15h-19.22c-.37,0-.72-.18-.93-.48l-32.22-45.13c-.65-.91-2.09-.45-2.08.68l.44,43.77c0,.64-.51,1.16-1.15,1.16h-20.88c-.63,0-1.15-.51-1.15-1.15v-92.67c0-.63.51-1.15,1.15-1.15h19.05c.38,0,.74.19.95.51l32.34,48.61c.63.95,2.11.5,2.1-.65l-.44-47.31c0-.64.51-1.16,1.15-1.16h20.88c.63,0,1.15.51,1.15,1.15Z" style="stroke-width:0px;"/></g><g style="isolation:isolate;"><path d="M1059.1,1224c0,4.3-1.69,8.39-4.42,10.69-4.5,3.86-7.84,4.22-15.58,4.22h-15.09c-.34,0-.62-.28-.62-.62v-47.57c0-.33.27-.6.6-.6h16.96c5.1,0,9.52,1.2,12.14,3.31h0s0,0,0,0c2.8,2.13,4.28,5.44,4.28,9.56,0,3.4-1.82,6.72-4.98,9.12-.35.27-.3.81.1,1,4.37,2.07,6.59,5.73,6.59,10.88ZM1047.33,1223.26c0-1.8-.83-3.02-2.47-3.64-1.27-.5-2.87-.5-3.82-.5h-5.37c-.33,0-.6.27-.6.6v7.5c0,.34.27.61.61.61h5.36c.76,0,2.35,0,3.67-.55,1.71-.69,2.62-2.08,2.62-4.01ZM1035.12,1209.03c0,.33.27.6.6.6h3.85c.76,0,2.35,0,3.66-.53,1.72-.67,2.63-2,2.63-3.87,0-1.74-.84-2.92-2.48-3.51-1.27-.48-2.86-.48-3.81-.48h-3.84c-.34,0-.61.27-.61.61v7.18Z" style="stroke-width:0px;"/><path d="M1073.25,1190.8v47.39c0,.33-.26.59-.59.59h-10.91c-.33,0-.59-.26-.59-.59v-47.39c0-.33.26-.59.59-.59h10.91c.33,0,.59.26.59.59Z" style="stroke-width:0px;"/><path d="M1116.45,1202.41v35.76c0,.33-.26.59-.59.59h-10.32c-.33,0-.59-.26-.59-.59v-.54c0-.23-.24-.37-.44-.25-2.96,1.67-6.3,2.55-9.73,2.55-10.81,0-19.61-8.68-19.61-19.34s8.8-19.34,19.61-19.34c3.43,0,6.77.88,9.73,2.55.2.11.44-.03.44-.25v-1.13c0-.33.26-.59.59-.59h10.32c.33,0,.59.26.59.59ZM1104.95,1220.58c0-4.89-3.44-8.87-8.41-8.87s-9,3.98-9,8.87,4.04,8.87,9,8.87,8.41-3.98,8.41-8.87Z" style="stroke-width:0px;"/><path d="M1153.38,1217.4v20.79c0,.33-.26.59-.59.59h-11.02c-.33,0-.59-.26-.59-.59v-20.21c0-1.37-.08-2.94-.65-4.21-.26-.54-.61-.98-1.04-1.31-.69-.54-1.58-.8-2.73-.8-2.13,0-3.77.73-4.29,1.91-.6,1.28-.6,3.02-.6,4.42v20.21c0,.33-.27.59-.59.59h-11.02c-.33,0-.59-.26-.59-.59v-35.76c0-.33.26-.59.59-.59h10.32c.33,0,.59.26.59.59v1c0,.24.27.38.46.24,8.32-5.73,16.42.63,16.5.7.29.23.58.48.83.73h0c3.77,3.79,4.4,6.86,4.4,12.3Z" style="stroke-width:0px;"/><path d="M1191.15,1230.74c-.29.46-.71,1.09-.94,1.39,0,0,0,.01-.01.02-.36.48-.75.94-1.16,1.38,0,.01-.02.02-.03.03-.16.18-.44.46-.61.63-.03.03-.06.06-.09.09-.17.17-.35.34-.53.5-.11.09-.21.19-.32.28-.08.06-.15.13-.23.19-2.83,2.39-6.32,3.96-10.05,4.47-.12.02-.25.03-.37.05-.15.02-.31.04-.46.05-.24.02-.48.04-.72.05-.09,0-.17,0-.26.01-.29.01-.58.02-.88.02-10.81,0-19.61-8.68-19.61-19.34s8.8-19.34,19.61-19.34c.29,0,.58,0,.88.02.09,0,.17,0,.26.01.24.01.48.03.72.05.15.01.31.03.46.05.12.01.25.03.37.05,3.73.51,7.22,2.08,10.05,4.47.08.06.15.13.22.19.11.09.21.19.32.28.18.16.36.33.53.5.03.03.06.07.1.1.18.19.37.37.54.56.03.03.06.07.09.1.41.44.79.9,1.15,1.38,0,0,0,.01.02.02.37.49.71.99,1.04,1.51h0c.13.22.06.51-.16.64l-5.24,3.02-3.03,1.75c-.27.16-.61.08-.78-.18-1.72-2.61-4.11-4.05-6.96-4.05s-5.25,1.24-6.9,3.18c-1.39,1.5-2.24,3.5-2.24,5.69s.85,4.19,2.24,5.69c1.65,1.95,4.13,3.18,6.9,3.18s5.24-1.44,6.96-4.05c.17-.26.51-.33.78-.18l8.13,4.69c.29.17.38.55.2.83Z" style="stroke-width:0px;"/></g><circle cx="1512.2" cy="774.8" r="197.5" style="stroke-width:0px;"/><g id="c"><path d="M1481.6,785.1c7.5,7,14.3,13.3,21.3,19.8-20.6,20.3-41.7,39.1-71.6,42.7-41.9,5.1-73.1-19.8-80.4-56.2-7.9-39.7,15.1-77.8,54.1-87.6,23.2-5.8,44.7-1.1,64.4,12.2,12,8.1,22.6,17.8,33.1,28.3-6.6,7-13.1,13.9-19.8,21.1-3-2.8-5.7-5.5-8.5-8.2-10.1-9.5-20.6-18.2-33.9-23.2-16.5-6.2-36.1-1.8-47.7,11.1-12.4,13.7-15,33.6-7.4,49.8,9.9,21,33.9,28.5,56.5,19.7,14.8-5.8,26.6-15.9,37.8-26.8,1-.9,1.8-2.3,2.1-2.7h0Z" style="fill:#fff; stroke-width:0px;"/><path d="M1521.6,804.9c7.3-7.1,14-13.5,20.7-19.9,6.6,5.9,13.1,12.1,20.1,17.8,10,8.3,21.2,14.3,34.4,15.5,30.9,2.8,54.1-26.2,45.5-57.1-5.9-21.3-26.5-33.5-49.2-29.2-14.4,2.7-26.1,10.5-37,19.8-4.7,4.1-9.2,8.4-13.7,12.5-6.6-6.5-13.1-12.8-19.7-19.4,3.5-3.5,6.7-7,10.3-10.3,13-12,26.8-23,43.9-28.4,28.6-8.9,55.4-6.4,77.9,15.3,12.9,12.4,19.2,28.2,20.2,46.1.8,13.8-.4,27.4-7.2,39.8-14,25.6-35.5,39.2-64.9,40.5-22.4,1-40.6-8.6-57.3-21.9-8.2-6.5-15.7-13.7-24-21.1h0Z" style="fill:#1ba6df; stroke-width:0px;"/></g><circle cx="1929.4" cy="774.7" r="197.5" style="fill:#fff; stroke-width:0px;"/><circle cx="1074.2" cy="774.8" r="197.5" style="fill:#fff; stroke-width:0px;"/><g id="d"><path d="M1898.8,785c7.5,7,14.3,13.3,21.3,19.8-20.6,20.3-41.7,39.1-71.6,42.7-41.9,5.1-73.1-19.8-80.4-56.2-7.9-39.7,15.1-77.8,54.1-87.6,23.2-5.8,44.7-1.1,64.4,12.2,12,8.1,22.6,17.8,33.1,28.3-6.6,7-13.1,13.9-19.8,21.1-3-2.8-5.7-5.5-8.5-8.2-10.1-9.5-20.6-18.2-33.9-23.2-16.5-6.2-36.1-1.8-47.7,11.1-12.4,13.7-15,33.6-7.4,49.8,9.9,21,33.9,28.5,56.5,19.7,14.8-5.8,26.6-15.9,37.8-26.8,1.1-1,1.8-2.3,2.1-2.7h0Z" style="fill:#1c2e5c; stroke-width:0px;"/><path d="M1938.8,804.7c7.3-7.1,14-13.5,20.7-19.9,6.6,5.9,13.1,12.1,20.1,17.8,10,8.3,21.2,14.3,34.4,15.5,30.9,2.8,54.1-26.2,45.5-57.1-5.9-21.3-26.5-33.5-49.2-29.2-14.4,2.7-26.1,10.5-37,19.8-4.7,4.1-9.2,8.4-13.7,12.5-6.6-6.5-13.1-12.8-19.7-19.4,3.5-3.5,6.7-7,10.3-10.3,13-12,26.8-23,43.9-28.4,28.6-8.9,55.4-6.4,77.9,15.3,12.9,12.4,19.2,28.2,20.2,46.1.8,13.8-.4,27.4-7.2,39.8-14,25.6-35.5,39.2-64.9,40.5-22.4,1-40.6-8.6-57.3-21.9-8.2-6.4-15.7-13.6-24-21.1h0Z" style="fill:#1ba6df; stroke-width:0px;"/></g><g id="e"><path d="M1876.8,1474.4c7.5,7,14.3,13.3,21.3,19.8-20.6,20.3-41.7,39.1-71.6,42.7-41.9,5.1-73.1-19.8-80.4-56.2-7.9-39.7,15.1-77.8,54.1-87.6,23.2-5.8,44.7-1.1,64.4,12.2,12,8.1,22.6,17.8,33.1,28.3-6.6,7-13.1,13.9-19.8,21.1-3-2.8-5.7-5.5-8.5-8.2-10.1-9.5-20.6-18.2-33.9-23.2-16.5-6.2-36.1-1.8-47.7,11.1-12.4,13.7-15,33.6-7.4,49.8,9.9,21,33.9,28.5,56.5,19.7,14.8-5.8,26.6-15.9,37.8-26.8,1.1-.9,1.8-2.2,2.1-2.7h0Z" style="fill:none; stroke:#fff; stroke-miterlimit:10; stroke-width:2px;"/><path d="M1916.8,1494.2c7.3-7.1,14-13.5,20.7-19.9,6.6,5.9,13.1,12.1,20.1,17.8,10,8.3,21.2,14.3,34.4,15.5,30.9,2.8,54.1-26.2,45.5-57.1-5.9-21.3-26.5-33.5-49.2-29.2-14.4,2.7-26.1,10.5-37,19.8-4.7,4.1-9.2,8.4-13.7,12.5-6.6-6.5-13.1-12.8-19.7-19.4,3.5-3.5,6.7-7,10.3-10.3,13-12,26.8-23,43.9-28.4,28.6-8.9,55.4-6.4,77.9,15.3,12.9,12.4,19.2,28.2,20.2,46.1.8,13.8-.4,27.4-7.2,39.8-14,25.6-35.5,39.2-64.9,40.5-22.4,1-40.6-8.6-57.3-21.9-8.2-6.4-15.7-13.7-24-21.1h0Z" style="fill:none; stroke:#fff; stroke-miterlimit:10; stroke-width:2px;"/></g><g style="isolation:isolate;"><path d="M997.52,854.02c-.04,12.56-7.79,19.69-16.38,19.73-4.31.02-8.83-1.74-12.67-5.48v19.38h-6.39v-52.31h6.39v4.86c3.75-3.89,8.25-5.9,12.87-5.9,9.51,0,16.14,8.64,16.18,19.73ZM980.82,867.89c5.62-.08,10.06-4.53,10.06-13.87,0-8.11-3.73-13.69-10.04-13.69-3.7,0-8.52,1.87-12.37,5.91v15.2c3.94,4.08,8.43,6.5,12.35,6.44h0Z" style="stroke-width:0px;"/><path d="M1040.85,834.27l-1.14,6.5c-.38-.04-.77-.05-1.17-.04-4.36,0-9.28,1.85-13.41,5.53v26.44h-6.39v-37.36h6.39v5.29c4.45-4.25,9.92-6.39,14.73-6.39.34,0,.67,0,1,.03Z" style="stroke-width:0px;"/><path d="M1093.74,854.02c0,10.91-7.32,19.73-18.61,19.73s-18.61-8.82-18.61-19.73,7.4-19.8,18.61-19.73c11.28,0,18.61,8.82,18.61,19.73ZM1063.2,854.02c0,8,4.63,13.69,11.93,13.69s11.93-5.62,11.93-13.69-4.56-13.69-11.93-13.69c-7.44,0-12,5.69-11.93,13.69Z" style="stroke-width:0px;"/><path d="M1149.3,872.7h-6.39v-4.85c-3.94,4.11-8.58,5.9-12.9,5.9-9.43,0-16.14-8.62-16.14-19.73,0-11.08,6.61-19.8,16.47-19.73,4.13,0,8.85,2.01,12.57,5.9v-19.79h6.39v52.31ZM1130.58,867.71c3.78,0,8.66-2.02,12.34-5.91v-15.56c-3.71-3.91-8.42-5.91-12.55-5.91-6.08,0-9.89,5.59-9.82,13.69-.07,8.12,3.67,13.69,10.04,13.69h0Z" style="stroke-width:0px;"/></g><g style="isolation:isolate;"><g style="isolation:isolate;"><path d="M1078.37,670.52v135.77c0,.93-.75,1.68-1.68,1.68h-28.16c-.54,0-1.05-.26-1.37-.71l-47.2-66.12c-.95-1.34-3.07-.65-3.05.99l.65,64.13c0,.94-.75,1.7-1.68,1.7h-30.58c-.93,0-1.68-.75-1.68-1.68v-135.77c0-.93.75-1.68,1.68-1.68h27.91c.56,0,1.09.28,1.4.75l47.39,71.21c.92,1.39,3.1.73,3.08-.95l-.65-69.32c-.01-.94.75-1.7,1.68-1.7h30.59c.93,0,1.68.75,1.68,1.68Z" style="fill:#1c2e5c; stroke-width:0px;"/></g><g style="isolation:isolate;"><path d="M1205.74,756.08c0,30.41-25.09,55.15-55.92,55.15-9.78,0-19.31-2.51-27.75-7.28-.56-.32-1.26.08-1.26.72v1.55c0,.93-.75,1.68-1.68,1.68h-29.43c-.93,0-1.68-.75-1.68-1.68v-135.13c0-.93.75-1.68,1.68-1.68h29.43c.93,0,1.68.75,1.68,1.68v36.38c0,.65.7,1.04,1.26.72,8.44-4.77,17.97-7.27,27.75-7.27,30.83,0,55.92,24.74,55.92,55.15ZM1170.42,756.08c0-13.95-11.51-25.29-25.65-25.29s-23.96,11.35-23.96,25.29,9.82,25.29,23.96,25.29,25.65-11.35,25.65-25.29Z" style="fill:#1ba6df; stroke-width:0px;"/></g></g><path d="M46,972.4h303c25.4,0,46-20.6,46-46v-303c0-25.4-20.6-46-46-46H46c-25.4,0-46,20.6-46,46v303c0,25.4,20.6,46,46,46Z" style="stroke-width:0px;"/><g style="isolation:isolate;"><path d="M95.22,871.34c-.05,15.3-9.48,23.97-19.95,24.03-5.25.03-10.75-2.12-15.43-6.68v23.59h-7.78v-63.69h7.78v5.91c4.57-4.74,10.05-7.19,15.67-7.19,11.58,0,19.66,10.52,19.7,24.02ZM74.88,888.23c6.84-.09,12.25-5.52,12.25-16.89,0-9.88-4.54-16.67-12.22-16.67-4.5,0-10.37,2.27-15.07,7.2v18.51c4.8,4.97,10.26,7.91,15.03,7.84h0Z" style="fill:#fff; stroke-width:0px;"/><path d="M146.3,847.26c.41,0,.81.01,1.22.03l-1.39,7.91c-.46-.04-.93-.06-1.43-.04-5.3,0-11.3,2.25-16.33,6.73v32.2h-7.78v-45.49h7.78v6.45c5.41-5.17,12.08-7.78,17.93-7.78h0Z" style="fill:#fff; stroke-width:0px;"/><path d="M211.46,871.34c0,13.28-8.92,24.02-22.66,24.02s-22.66-10.74-22.66-24.02,9.01-24.11,22.66-24.02c13.74,0,22.66,10.74,22.66,24.02ZM174.27,871.34c0,9.74,5.64,16.67,14.53,16.67s14.53-6.85,14.53-16.67-5.55-16.67-14.53-16.67c-9.06,0-14.61,6.93-14.53,16.67Z" style="fill:#fff; stroke-width:0px;"/><path d="M278.66,894.09h-7.78v-5.91c-4.8,5.01-10.45,7.18-15.71,7.18-11.48,0-19.65-10.5-19.66-24.02,0-13.49,8.05-24.11,20.06-24.02,5.03,0,10.78,2.44,15.31,7.18v-24.1h7.78v63.69ZM255.86,888.01c4.6,0,10.54-2.45,15.02-7.2v-18.95c-4.52-4.76-10.26-7.19-15.28-7.19-7.4,0-12.04,6.81-11.96,16.67-.08,9.89,4.46,16.67,12.22,16.67h0Z" style="fill:#fff; stroke-width:0px;"/></g><g style="isolation:isolate;"><path d="M193.65,647.91v165.32c0,1.13-.92,2.05-2.05,2.05h-34.29c-.66,0-1.28-.32-1.67-.86l-57.47-80.51c-1.16-1.63-3.73-.79-3.71,1.21l.79,78.09c0,1.14-.91,2.07-2.05,2.07h-37.24c-1.13,0-2.05-.92-2.05-2.05v-165.32c0-1.13.92-2.04,2.05-2.04h33.98c.69,0,1.32.34,1.7.91l57.7,86.71c1.12,1.7,3.77.88,3.75-1.15l-.79-84.41c-.01-1.14.91-2.07,2.05-2.07h37.25c1.13,0,2.04.92,2.04,2.04Z" style="fill:#fff; stroke-width:0px;"/><path d="M348.73,752.09c0,37.03-30.54,67.15-68.09,67.15-11.91,0-23.52-3.05-33.79-8.86-.69-.39-1.54.09-1.54.88v1.89c0,1.13-.92,2.05-2.05,2.05h-35.84c-1.13,0-2.05-.92-2.05-2.05v-164.54c0-1.13.92-2.05,2.05-2.05h35.84c1.13,0,2.05.92,2.05,2.05v44.3c0,.79.85,1.27,1.54.88,10.28-5.8,21.88-8.86,33.79-8.86,37.54,0,68.09,30.12,68.09,67.15ZM305.72,752.09c0-16.98-14.01-30.8-31.23-30.8s-29.18,13.81-29.18,30.8,11.96,30.8,29.18,30.8,31.23-13.81,31.23-30.8Z" style="fill:#fff; stroke-width:0px;"/></g><path d="M422,394.9h302.9c25.4,0,46-20.6,46-46V46c0-25.4-20.6-46-46-46h-302.9c-25.4,0-46,20.6-46,46v302.9c0,25.4,20.6,46,46,46Z" style="stroke-width:0px;"/><path d="M460,259.5c10,0,18.5,8.1,18.4,20.3,0,12.3-8.4,20.3-18.4,20.3h-19.9v23h-8.6v-63.7h28.5v.1ZM469.4,279.8c0-8.5-4.5-13-9.4-13h-19.9v26.2h19.9c4.9-.1,9.4-4.6,9.4-13.2h0Z" style="fill:#fff; stroke-width:0px;"/><path d="M515.6,297.8v25.4h-8.6v-63.7h27.6c10,0,18.5,7.6,18.4,19.2,0,9.1-5.2,15.8-12.3,18.2l15.5,26.4h-10.3l-13.9-25.4-16.4-.1ZM534.6,290.6c5.2,0,9.4-4.2,9.4-11.9s-4.2-11.9-9.4-11.8h-19v23.8h19v-.1Z" style="fill:#fff; stroke-width:0px;"/><path d="M642.6,291.4c0,18.3-12.3,33.1-31.2,33.1s-31.2-14.8-31.2-33.1,12.4-33.1,31.2-33.1c18.9-.1,31.2,14.7,31.2,33.1ZM589.1,291.4c0,14.4,9,24.9,22.2,24.9s22.2-10.5,22.2-24.9-8.9-24.9-22.3-24.9c-13.1,0-22.1,10.4-22.1,24.9Z" style="fill:#fff; stroke-width:0px;"/><path d="M694.8,259.5c18.9,0,31.4,13.5,31.4,31.8s-12.5,31.8-31.4,31.8h-21.9v-63.7h21.9v.1ZM694.8,315.9c13.7,0,22.4-9.7,22.4-24.6s-8.7-24.6-22.4-24.6h-13.3v49.2h13.3Z" style="fill:#fff; stroke-width:0px;"/><path d="M570.1,77v165.3c0,1.1-.9,2-2,2h-34.3c-.7,0-1.3-.3-1.7-.9l-57.5-80.5c-1.2-1.6-3.7-.8-3.7,1.2l.8,78.1c0,1.1-.9,2.1-2,2.1h-37.2c-1.1,0-2-.9-2-2V77c0-1.1.9-2,2-2h34c.7,0,1.3.3,1.7.9l57.7,86.7c1.1,1.7,3.8.9,3.8-1.2l-.8-84.4c0-1.1.9-2.1,2-2.1h37.2c1.1.1,2,1,2,2.1Z" style="fill:#fff; stroke-width:0px;"/><path d="M725.2,181.2c0,37-30.5,67.2-68.1,67.2-11.9,0-23.5-3.1-33.8-8.9-.7-.4-1.5.1-1.5.9v1.9c0,1.1-.9,2-2,2h-35.8c-1.1,0-2-.9-2-2V77.8c0-1.1.9-2,2-2h35.8c1.1,0,2,.9,2,2v44.3c0,.8.8,1.3,1.5.9,10.3-5.8,21.9-8.9,33.8-8.9,37.5,0,68.1,30.1,68.1,67.1ZM682.2,181.2c0-17-14-30.8-31.2-30.8s-29.2,13.8-29.2,30.8,12,30.8,29.2,30.8,31.2-13.8,31.2-30.8Z" style="fill:#fff; stroke-width:0px;"/></svg>