<?xml version="1.0" encoding="utf-8"?>
<!-- Generator: Adobe Illustrator 28.1.0, SVG Export Plug-In . SVG Version: 6.00 Build 0)  -->
<svg version="1.1" id="Layer_2_00000114766497275270143640000003377759317217453996_"
	 xmlns="http://www.w3.org/2000/svg" xmlns:xlink="http://www.w3.org/1999/xlink" x="0px" y="0px" viewBox="0 0 567.5 249"
	 style="enable-background:new 0 0 567.5 249;" xml:space="preserve">
<style type="text/css">
	.st0{fill:#1C2E5C;}
	.st1{fill:#1BA6DF;}
	.st2{fill:#FFFFFF;}
	.st3{font-family:'Halcom-Regular';}
	.st4{font-size:51px;}
	.st5{font-family:'NewakeDemo';}
	.st6{font-size:135.6217px;}
	.st7{font-size:69.6794px;}
	.st8{fill:none;stroke:#FFFFFF;stroke-width:2;stroke-miterlimit:10;}
</style>
<g id="Layer_1-2_00000088837078511775417550000017578019134657877914_">
	<g>
		<path class="st0" d="M-462.6,487.3c10,9.3,19,17.7,28.3,26.4c-27.4,26.9-55.3,51.9-95,56.7c-55.6,6.8-97.1-26.2-106.8-74.6
			c-10.5-52.8,20.1-103.4,71.8-116.4c30.9-7.8,59.4-1.5,85.6,16.2c15.9,10.8,30,23.7,44,37.6c-8.8,9.3-17.4,18.5-26.3,28
			c-3.9-3.8-7.6-7.3-11.3-10.8c-13.4-12.6-27.4-24.2-45-30.8c-21.9-8.2-47.9-2.3-63.3,14.7c-16.5,18.2-20,44.6-9.9,66.1
			c13.1,27.9,45.1,37.8,75,26.2c19.7-7.6,35.3-21.2,50.2-35.6C-464,489.7-463,487.9-462.6,487.3L-462.6,487.3z"/>
		<path class="st1" d="M-409.5,513.6c9.8-9.4,18.6-17.9,27.5-26.4c8.8,7.8,17.4,16.1,26.6,23.7c13.3,11,28.1,19,45.7,20.6
			c41.1,3.8,71.8-34.8,60.5-75.8c-7.8-28.3-35.2-44.5-65.4-38.8c-19.1,3.6-34.7,13.9-49.2,26.3c-6.3,5.4-12.3,11.1-18.2,16.6
			c-8.7-8.6-17.3-17-26.2-25.7c4.6-4.6,9-9.3,13.7-13.7c17.2-15.9,35.5-30.6,58.3-37.7c37.9-11.8,73.5-8.4,103.5,20.3
			c17.2,16.5,25.5,37.5,26.8,61.2c1,18.4-0.5,36.3-9.6,52.9c-18.6,34-47.2,52.1-86.2,53.8c-29.7,1.3-53.9-11.4-76.1-29.1
			C-388.5,533-398.4,523.4-409.5,513.6L-409.5,513.6z"/>
	</g>
</g>
<rect x="-123.3" y="328.9" class="st2" width="223.2" height="223.2"/>
<path class="st1" d="M62,454.1c10,9.3,19,17.7,28.3,26.4c-27.4,26.9-55.3,51.9-95,56.7c-55.6,6.8-97.1-26.2-106.8-74.6
	c-10.5-52.8,20.1-103.4,71.8-116.4c30.9-7.8,59.4-1.5,85.6,16.2c15.9,10.8,30,23.7,44,37.6c-8.8,9.3-17.4,18.4-26.3,28
	c-3.9-3.8-7.6-7.3-11.3-10.8c-13.4-12.6-27.4-24.2-45-30.8c-21.9-8.2-47.9-2.3-63.3,14.7c-16.5,18.2-20,44.6-9.9,66.1
	c13,27.8,45,37.8,74.9,26.2c19.7-7.6,35.3-21.2,50.2-35.6C60.6,456.4,61.6,454.6,62,454.1L62,454.1z"/>
<text transform="matrix(1 0 0 1 -49.5125 469.9048)" class="st3" style="font-size:22.9741px; letter-spacing:2;">prod</text>
<text transform="matrix(1 0 0 1 -48.9886 450.0044)" class="st5" style="font-size:61.0938px;">Nb</text>
<rect x="-379" y="674.4" class="st2" width="758" height="223.2"/>
<text transform="matrix(1 0 0 1 142.0297 163.8288)" class="st3 st4">PRODUCTION</text>
<text transform="matrix(1 0 0 1 57.3123 163.8288)" class="st5 st6">N</text>
<text transform="matrix(1 0 0 1 144.9468 117.4773)" class="st5 st7">Blanc</text>
<circle cx="635.5" cy="-346.5" r="197.5"/>
<g id="Layer_1-2_00000124151506668249168660000015969594389572303801_">
	<g>
		<path class="st2" d="M604.9-336.2c7.5,7,14.3,13.3,21.3,19.8c-20.6,20.3-41.7,39.1-71.6,42.7c-41.9,5.1-73.1-19.8-80.4-56.2
			c-7.9-39.7,15.1-77.8,54.1-87.6c23.2-5.8,44.7-1.1,64.4,12.2c12,8.1,22.6,17.8,33.1,28.3c-6.6,7-13.1,13.9-19.8,21.1
			c-3-2.8-5.7-5.5-8.5-8.2c-10.1-9.5-20.6-18.2-33.9-23.2c-16.5-6.2-36.1-1.8-47.7,11.1c-12.4,13.7-15,33.6-7.4,49.8
			c9.9,21,33.9,28.5,56.5,19.7c14.8-5.8,26.6-15.9,37.8-26.8C603.8-334.4,604.6-335.8,604.9-336.2L604.9-336.2z"/>
		<path class="st1" d="M644.9-316.4c7.3-7.1,14-13.5,20.7-19.9c6.6,5.9,13.1,12.1,20.1,17.8c10,8.3,21.2,14.3,34.4,15.5
			c30.9,2.8,54.1-26.2,45.5-57.1c-5.9-21.3-26.5-33.5-49.2-29.2c-14.4,2.7-26.1,10.5-37,19.8c-4.7,4.1-9.2,8.4-13.7,12.5
			c-6.6-6.5-13.1-12.8-19.7-19.4c3.5-3.5,6.7-7,10.3-10.3c13-12,26.8-23,43.9-28.4c28.6-8.9,55.4-6.4,77.9,15.3
			c12.9,12.4,19.2,28.2,20.2,46.1c0.8,13.8-0.4,27.4-7.2,39.8c-14,25.6-35.5,39.2-64.9,40.5c-22.4,1-40.6-8.6-57.3-21.9
			C660.7-301.8,653.2-309,644.9-316.4L644.9-316.4z"/>
	</g>
</g>
<circle class="st2" cx="1052.7" cy="-346.6" r="197.5"/>
<circle class="st2" cx="197.5" cy="-346.5" r="197.5"/>
<g id="Layer_1-2_00000170956862478589298590000000568208970081540278_">
	<g>
		<path class="st0" d="M1022.1-336.3c7.5,7,14.3,13.3,21.3,19.8c-20.6,20.3-41.7,39.1-71.6,42.7c-41.9,5.1-73.1-19.8-80.4-56.2
			c-7.9-39.7,15.1-77.8,54.1-87.6c23.2-5.8,44.7-1.1,64.4,12.2c12,8.1,22.6,17.8,33.1,28.3c-6.6,7-13.1,13.9-19.8,21.1
			c-3-2.8-5.7-5.5-8.5-8.2c-10.1-9.5-20.6-18.2-33.9-23.2c-16.5-6.2-36.1-1.8-47.7,11.1c-12.4,13.7-15,33.6-7.4,49.8
			c9.9,21,33.9,28.5,56.5,19.7c14.8-5.8,26.6-15.9,37.8-26.8C1021.1-334.6,1021.8-335.9,1022.1-336.3L1022.1-336.3z"/>
		<path class="st1" d="M1062.1-316.6c7.3-7.1,14-13.5,20.7-19.9c6.6,5.9,13.1,12.1,20.1,17.8c10,8.3,21.2,14.3,34.4,15.5
			c30.9,2.8,54.1-26.2,45.5-57.1c-5.9-21.3-26.5-33.5-49.2-29.2c-14.4,2.7-26.1,10.5-37,19.8c-4.7,4.1-9.2,8.4-13.7,12.5
			c-6.6-6.5-13.1-12.8-19.7-19.4c3.5-3.5,6.7-7,10.3-10.3c13-12,26.8-23,43.9-28.4c28.6-8.9,55.4-6.4,77.9,15.3
			c12.9,12.4,19.2,28.2,20.2,46.1c0.8,13.8-0.4,27.4-7.2,39.8c-14,25.6-35.5,39.2-64.9,40.5c-22.4,1-40.6-8.6-57.3-21.9
			C1077.9-301.9,1070.4-309.1,1062.1-316.6L1062.1-316.6z"/>
	</g>
</g>
<g id="Layer_1-2_00000040554901361285626310000002090827136472389004_">
	<g>
		<path class="st8" d="M1000.1,353.1c7.5,7,14.3,13.3,21.3,19.8c-20.6,20.3-41.7,39.1-71.6,42.7c-41.9,5.1-73.1-19.8-80.4-56.2
			c-7.9-39.7,15.1-77.8,54.1-87.6c23.2-5.8,44.7-1.1,64.4,12.2c12,8.1,22.6,17.8,33.1,28.3c-6.6,7-13.1,13.9-19.8,21.1
			c-3-2.8-5.7-5.5-8.5-8.2c-10.1-9.5-20.6-18.2-33.9-23.2c-16.5-6.2-36.1-1.8-47.7,11.1c-12.4,13.7-15,33.6-7.4,49.8
			c9.9,21,33.9,28.5,56.5,19.7c14.8-5.8,26.6-15.9,37.8-26.8C999.1,354.9,999.8,353.6,1000.1,353.1L1000.1,353.1z"/>
		<path class="st8" d="M1040.1,372.9c7.3-7.1,14-13.5,20.7-19.9c6.6,5.9,13.1,12.1,20.1,17.8c10,8.3,21.2,14.3,34.4,15.5
			c30.9,2.8,54.1-26.2,45.5-57.1c-5.9-21.3-26.5-33.5-49.2-29.2c-14.4,2.7-26.1,10.5-37,19.8c-4.7,4.1-9.2,8.4-13.7,12.5
			c-6.6-6.5-13.1-12.8-19.7-19.4c3.5-3.5,6.7-7,10.3-10.3c13-12,26.8-23,43.9-28.4c28.6-8.9,55.4-6.4,77.9,15.3
			c12.9,12.4,19.2,28.2,20.2,46.1c0.8,13.8-0.4,27.4-7.2,39.8c-14,25.6-35.5,39.2-64.9,40.5c-22.4,1-40.6-8.6-57.3-21.9
			C1055.9,387.6,1048.4,380.3,1040.1,372.9L1040.1,372.9z"/>
	</g>
</g>
<text transform="matrix(1 0 0 1 80.2377 -248.599)" class="st3" style="font-size:74.7228px; letter-spacing:10;">prod</text>
<text transform="matrix(1 0 0 1 81.9413 -313.3256)" class="st0 st5" style="font-size:198.7065px;">N</text>
<text transform="matrix(1 0 0 1 206.7413 -313.3256)" class="st1 st5" style="font-size:198.7065px;">b</text>
<path d="M-830.7-148.9h303c25.4,0,46-20.6,46-46v-303c0-25.4-20.6-46-46-46h-303c-25.4,0-46,20.6-46,46v303
	C-876.7-169.5-856.1-148.9-830.7-148.9z"/>
<text transform="matrix(1 0 0 1 -830.9011 -227.2124)" class="st2 st3" style="font-size:90.9814px; letter-spacing:12;">prod</text>
<text transform="matrix(1 0 0 1 -828.8269 -306.0215)" class="st2 st5" style="font-size:241.9423px;">Nb</text>
<g>
	<path d="M-454.7-726.4h302.9c25.4,0,46-20.6,46-46v-302.9c0-25.4-20.6-46-46-46h-302.9c-25.4,0-46,20.6-46,46v302.9
		C-500.7-747-480.1-726.4-454.7-726.4z"/>
	<g>
		<path class="st2" d="M-416.7-861.8c10,0,18.5,8.1,18.4,20.3c0,12.3-8.4,20.3-18.4,20.3h-19.9v23h-8.6v-63.7h4.4h24.1V-861.8z
			 M-407.3-841.5c0-8.5-4.5-13-9.4-13h-19.9v26.2h19.9C-411.8-828.4-407.3-832.9-407.3-841.5L-407.3-841.5z"/>
		<path class="st2" d="M-361.1-823.5v25.4h-8.6v-63.7h8.6h19c10,0,18.5,7.6,18.4,19.2c0,9.1-5.2,15.8-12.3,18.2l15.5,26.4h-10.3
			l-13.9-25.4L-361.1-823.5z M-342.1-830.7c5.2,0,9.4-4.2,9.4-11.9c0-7.6-4.2-11.9-9.4-11.8h-19v23.8L-342.1-830.7L-342.1-830.7z"/>
		<path class="st2" d="M-234.1-829.9c0,18.3-12.3,33.1-31.2,33.1c-18.8,0-31.2-14.8-31.2-33.1c0-18.4,12.4-33.1,31.2-33.1
			C-246.4-863.1-234.1-848.3-234.1-829.9z M-287.6-829.9c0,14.4,9,24.9,22.2,24.9c13.3,0,22.2-10.5,22.2-24.9s-8.9-24.9-22.3-24.9
			C-278.6-854.8-287.6-844.4-287.6-829.9z"/>
		<path class="st2" d="M-181.9-861.8c18.9,0,31.4,13.5,31.4,31.8s-12.5,31.8-31.4,31.8h-21.9v-63.7h21.9V-861.8z M-181.9-805.4
			c13.7,0,22.4-9.7,22.4-24.6s-8.7-24.6-22.4-24.6h-13.3v49.2L-181.9-805.4L-181.9-805.4z"/>
	</g>
	<g>
		<path class="st2" d="M-306.6-1044.3V-879c0,1.1-0.9,2-2,2h-34.3c-0.7,0-1.3-0.3-1.7-0.9l-57.5-80.5c-1.2-1.6-3.7-0.8-3.7,1.2
			l0.8,78.1c0,1.1-0.9,2.1-2,2.1h-37.2c-1.1,0-2-0.9-2-2v-165.3c0-1.1,0.9-2,2-2h34c0.7,0,1.3,0.3,1.7,0.9l57.7,86.7
			c1.1,1.7,3.8,0.9,3.8-1.2l-0.8-84.4c0-1.1,0.9-2.1,2-2.1h37.2C-307.5-1046.3-306.6-1045.4-306.6-1044.3z"/>
		<path class="st2" d="M-151.5-940.1c0,37-30.5,67.2-68.1,67.2c-11.9,0-23.5-3.1-33.8-8.9c-0.7-0.4-1.5,0.1-1.5,0.9v1.9
			c0,1.1-0.9,2-2,2h-35.8c-1.1,0-2-0.9-2-2v-164.5c0-1.1,0.9-2,2-2h35.8c1.1,0,2,0.9,2,2v44.3c0,0.8,0.8,1.3,1.5,0.9
			c10.3-5.8,21.9-8.9,33.8-8.9C-182.1-1007.2-151.5-977.1-151.5-940.1z M-194.5-940.1c0-17-14-30.8-31.2-30.8s-29.2,13.8-29.2,30.8
			s12,30.8,29.2,30.8S-194.5-923.1-194.5-940.1z"/>
	</g>
</g>
</svg>
