<svg id="Capa_1" enable-background="new 0 0 512 512" height="512" viewBox="0 0 512 512" width="512" xmlns="http://www.w3.org/2000/svg"><g><path d="m474.5 84.029h-326.441c-20.678 0-37.5 16.822-37.5 37.5v35.865l-50.965-37.162c-11.465-8.359-26.442-9.558-39.09-3.127-12.648 6.431-20.504 19.24-20.504 33.428v18.991c0 4.142 3.358 7.5 7.5 7.5s7.5-3.358 7.5-7.5v-18.991c0-8.642 4.599-16.14 12.302-20.056 7.704-3.917 16.472-3.216 23.454 1.876l62.884 45.853c2.281 1.663 5.303 1.906 7.818.625 2.516-1.279 4.101-3.863 4.101-6.686v-50.616c0-12.407 10.093-22.5 22.5-22.5h326.441c12.407 0 22.5 10.093 22.5 22.5v268.941c0 12.407-10.093 22.5-22.5 22.5h-31c-4.142 0-7.5 3.358-7.5 7.5s3.358 7.5 7.5 7.5h31c20.678 0 37.5-16.822 37.5-37.5v-268.941c0-20.677-16.822-37.5-37.5-37.5z"/><path d="m413.5 412.971h-265.441c-12.407 0-22.5-10.093-22.5-22.5v-50.616c0-2.823-1.585-5.406-4.101-6.686-2.516-1.278-5.537-1.038-7.818.625l-62.883 45.853c-6.982 5.091-15.75 5.792-23.454 1.876s-12.303-11.414-12.303-20.056v-161.943c0-4.142-3.358-7.5-7.5-7.5s-7.5 3.358-7.5 7.5v161.943c0 14.188 7.856 26.997 20.504 33.427 12.646 6.43 27.625 5.232 39.09-3.127l50.964-37.162v35.865c0 20.678 16.822 37.5 37.5 37.5h265.442c4.142 0 7.5-3.358 7.5-7.5s-3.358-7.499-7.5-7.499z"/><path d="m328.009 207.024c4.142 0 7.5-3.358 7.5-7.5s-3.358-7.5-7.5-7.5h-47.593c-4.142 0-7.5 3.358-7.5 7.5v112.952c0 4.142 3.358 7.5 7.5 7.5h47.593c4.142 0 7.5-3.358 7.5-7.5s-3.358-7.5-7.5-7.5h-40.093v-41.476h36.584c4.142 0 7.5-3.358 7.5-7.5s-3.358-7.5-7.5-7.5h-36.584v-41.476z"/><path d="m463.15 301.726c2.662-3.174 2.247-7.904-.927-10.566-3.173-2.662-7.904-2.247-10.566.927-1.202 1.433-2.503 2.776-3.868 3.991-7.017 6.25-15.863 9.418-26.293 9.418-27.292.001-49.496-22.204-49.496-49.496s22.204-49.497 49.497-49.497c9.92 0 19.487 2.921 27.668 8.449 3.432 2.319 8.095 1.417 10.413-2.016 2.319-3.432 1.417-8.094-2.016-10.413-10.67-7.209-23.142-11.02-36.066-11.02-35.563 0-64.496 28.934-64.496 64.497s28.933 64.497 64.497 64.497c14.02 0 26.562-4.57 36.27-13.217 1.903-1.697 3.715-3.565 5.383-5.554z"/><path d="m245.103 228.629c0-20.471-17.407-37.125-38.802-37.125h-30.292c-1.994 0-3.905.793-5.312 2.206-1.399 1.403-2.183 3.303-2.186 5.284-.023.006-.038.01-.038.01v113.993c0 4.142 3.358 7.5 7.5 7.5s7.5-3.358 7.5-7.5v-47.152l2.793-.015 45.708 52.122c1.482 1.685 3.552 2.545 5.633 2.545 1.76 0 3.527-.616 4.952-1.87 3.109-2.736 3.412-7.476.675-10.585 0 0-37.023-42.287-36.932-42.287 21.394-.001 38.801-16.655 38.801-37.126zm-38.803 22.125c-5.192 0-15.521.05-22.625.088-.039-7.021-.121-37.041-.143-44.339h22.768c12.902 0 23.802 10.132 23.802 22.125s-10.899 22.126-23.802 22.126z"/><path d="m132.097 256c0-17.92-14.58-32.5-32.5-32.5s-32.5 14.58-32.5 32.5 14.58 32.5 32.5 32.5 32.5-14.58 32.5-32.5zm-50 0c0-9.649 7.851-17.5 17.5-17.5s17.5 7.851 17.5 17.5-7.851 17.5-17.5 17.5-17.5-7.851-17.5-17.5z"/></g></svg>